<?xml version="1.0" encoding="UTF-8" standalone="no"?>
<svg width="146px" height="186px" viewBox="0 0 146 186" version="1.1" xmlns="http://www.w3.org/2000/svg" xmlns:xlink="http://www.w3.org/1999/xlink" xmlns:sketch="http://www.bohemiancoding.com/sketch/ns">
    <!-- Generator: Sketch 3.3.2 (12043) - http://www.bohemiancoding.com/sketch -->
    <title>Imported Layers + tug  of  war copy 2</title>
    <desc>Created with Sketch.</desc>
    <defs></defs>
    <g id="Page-1" stroke="none" stroke-width="1" fill="none" fill-rule="evenodd" sketch:type="MSPage">
        <g id="iPad-Landscape" sketch:type="MSArtboardGroup" transform="translate(-458.000000, -72.000000)">
            <g id="Imported-Layers-+-tug--of--war-copy-2" sketch:type="MSLayerGroup" transform="translate(458.000000, 72.000000)">
                <path d="M7.55400807,98.1623135 L139.037299,37.4174143 L139.037299,59.6659022 L7.68652605,120.352616 C7.27175226,116.276648 7.55400807,113.68068 7.55400807,113.68068 L7.55400807,98.1623135 L7.55400807,98.1623135 Z M13.9987243,139.687354 L139.037299,81.9233417 L139.037299,104.171084 L28.6176286,155.186326 C21.7843427,150.465842 17.1454648,145.032959 13.9987243,139.687354 L13.9987243,139.687354 Z M53.7361495,165.829047 L137.745062,127.025297 C134.521955,140.072273 124.062767,159.022092 91.0987328,166.233362 C91.0987328,166.233362 75.6899615,168.82933 73.2956536,175.117838 C70.8916127,168.82933 55.4918256,166.233362 55.4918256,166.233362 C54.893623,166.108039 54.3133889,165.964068 53.7361495,165.829047 L53.7361495,165.829047 Z M7.55400807,53.6563861 L105.157618,8.5738256 L139.037299,8.5738256 L139.037299,15.1696724 L7.55400807,75.9145716 L7.55400807,53.6563861 L7.55400807,53.6563861 Z M7.55400807,8.5738256 L56.9959421,8.5738256 L7.55400807,31.4064062 L7.55400807,8.5738256 L7.55400807,8.5738256 Z M7.55400807,9.16015625 L7.55400807,8.5738256 L8.82528224,8.5738256 L7.55400807,9.16015625 L7.55400807,9.16015625 Z M145.735072,116.987555 L145.735072,0.48828125 L0.856234938,0.48828125 L0.856234938,116.987555 C0.856234938,116.987555 -4.04767899,162.522172 53.6792492,175.241668 C53.6792492,175.241668 70.6625138,178.116628 73.2956536,185.087697 C75.9385263,178.116628 92.912058,175.241668 92.912058,175.241668 C150.646473,162.531124 145.735072,116.987555 145.735072,116.987555 L145.735072,116.987555 Z" id="Imported-Layers" fill="#DA4266" sketch:type="MSShapeGroup"></path>
                <text id="tug--of--war-copy-2" sketch:type="MSTextLayer" font-family="Freshman" font-size="50" font-weight="normal" sketch:alignment="middle" line-spacing="41" fill="#4563A6">
                    <tspan x="28.7736486" y="51.2625769">tug </tspan>
                    <tspan x="46.2986486" y="92.2625769">of </tspan>
                    <tspan x="13.3486486" y="133.262577">war</tspan>
                </text>
            </g>
        </g>
    </g>
</svg>