<?xml version="1.0" encoding="UTF-8" standalone="no"?>
<svg width="70px" height="99px" viewBox="0 0 70 99" version="1.1" xmlns="http://www.w3.org/2000/svg" xmlns:xlink="http://www.w3.org/1999/xlink" xmlns:sketch="http://www.bohemiancoding.com/sketch/ns">
    <!-- Generator: Sketch 3.3.2 (12043) - http://www.bohemiancoding.com/sketch -->
    <title>blauw-poppetje</title>
    <desc>Created with Sketch.</desc>
    <defs></defs>
    <g id="Page-1" stroke="none" stroke-width="1" fill="none" fill-rule="evenodd" sketch:type="MSPage">
        <g id="Artboard-4" sketch:type="MSArtboardGroup" transform="translate(-93.000000, -608.000000)">
            <g id="blauw-poppetje" sketch:type="MSLayerGroup" transform="translate(90.000000, 602.000000)">
                <path d="M49.225,50.401 C47.975,48.895 46.265,48.277 44.442,48.054 C41.962,47.748 39.813,46.723 37.738,45.435 C36.119,44.429 34.497,43.427 32.855,42.459 C29.845,40.685 27.178,38.558 25.075,35.708 C24.22,34.547 23.03,33.608 21.903,32.677 C20.747,31.722 19.489,30.891 18.261,30.026 C17.998,29.842 17.663,29.627 17.371,29.64 C16.263,29.688 15.964,28.817 15.746,28.087 C15.646,27.752 16.145,27.201 16.44,26.797 C16.72,26.417 17.194,26.151 17.386,25.744 C17.53,25.434 17.507,24.881 17.315,24.606 C16.573,23.543 15.28,22.804 15.523,21.19 C15.546,21.046 14.976,20.734 14.639,20.629 C13.981,20.421 13.206,20.457 12.64,20.121 C11.329,19.343 10.167,18.302 8.835,17.568 C8.136,17.184 6.942,16.813 6.427,17.144 C4.78,18.202 6.855,29.693 8.105,30.292 C7.007,31.023 7.05,32.048 7.614,33.187 C7.762,33.484 7.946,33.839 7.908,34.14 C7.649,36.128 9.055,38.015 10.001,39.667 C11.137,41.651 11.706,43.43 12.962,45.348 C14.085,47.062 15.179,48.795 16.462,50.795 C16.321,50.795 16.189,50.793 16.053,50.791 C16.593,51.481 17.043,52.063 17.356,52.469 C17.529,52.637 17.69,51.842 17.836,52.095 C18.149,52.637 18.665,54.127 19.202,54.458 C20.212,55.084 20.686,55.975 20.735,57.092 C20.784,58.231 20.544,59.407 20.744,60.511 C21.378,64.011 23.314,66.664 26.312,68.586 C26.831,68.919 27.374,69.488 27.536,70.055 C28.402,73.093 29.058,76.195 29.982,79.214 C30.423,80.652 29.855,81.423 28.849,82.157 C24.952,85.005 21.001,87.783 17.173,90.721 C14.968,92.413 12.54,93.984 11.784,96.991 C11.515,98.062 11.056,99.091 10.611,100.107 C10.046,101.403 10.778,101.785 11.831,102.045 C13.763,102.521 15.776,102.815 17.589,103.579 C19.95,104.577 22.296,104.589 24.719,104.248 C25.768,104.1 25.997,103.477 25.326,102.654 C25.093,102.368 24.706,102.21 24.39,101.989 C23.207,101.166 21.978,100.399 20.858,99.495 C20.147,98.92 20.163,98.237 21.132,97.822 C21.369,97.721 21.632,97.655 21.841,97.513 C26.95,94.019 32.062,90.527 37.147,87 C37.692,86.62 38.175,86.071 38.526,85.502 C39.849,83.363 40.718,81.102 40.034,78.515 C40.015,78.438 40.134,78.326 40.231,78.154 C41.36,79.051 42.632,79.752 43.464,80.801 C44.519,82.129 45.192,83.756 46.075,85.227 C48.917,89.957 51.769,94.681 54.64,99.392 C55.44,100.707 56.319,101.976 57.371,103.586 C60.313,103.586 63.774,103.707 67.222,103.53 C68.693,103.454 70.154,102.818 71.581,102.323 C72.54,101.991 72.671,101.216 71.907,100.558 C71.546,100.247 70.99,100.155 70.515,99.989 C69.515,99.641 68.485,99.364 67.512,98.957 C65.902,98.285 64.326,97.533 62.829,96.856 C62.73,96.388 62.798,95.461 62.435,95.238 C61.028,94.376 60.53,92.931 59.817,91.64 C57.224,86.939 54.78,82.155 52.099,77.507 C50.836,75.318 49.273,73.272 47.643,71.333 C45.722,69.049 43.527,66.997 41.552,64.755 C39.597,62.535 37.095,60.772 36.399,57.521 C36.056,55.915 34.777,54.511 33.944,53.055 C34.33,52.566 30.39,49.106 30.875,48.916 C31.568,48.644 36.732,51.768 37.548,51.827 C38.668,51.908 39.882,51.65 40.894,52.002 C42.162,52.443 43.328,53.273 44.421,54.092 C45.181,54.66 45.839,54.459 46.444,54.103 C47.142,53.693 47.694,53.043 48.36,52.569 C48.8,52.258 49.323,51.889 49.821,51.868 C49.852,51.867 49.882,51.867 49.911,51.866 C49.954,51.547 49.981,51.179 49.987,50.757 C49.702,50.695 49.386,50.596 49.225,50.401" id="Fill-1" fill="#FFFFFF" sketch:type="MSShapeGroup"></path>
                <path d="M16.25,29.666 C16.25,29.666 11.501,28.825 9,29.125 C7.078,29.354 7.25,30.699 7.25,30.916 C7.25,31.416 7,33.291 8,36.041 C9,38.791 14.606,49.166 16.053,50.791 C17.5,52.416 20.596,56.018 20.735,57.092 C20.875,58.166 23.75,59.041 25.625,59.291 C27.5,59.541 36.875,61.291 37.125,60.166 C37.375,59.041 34.264,54.068 33.944,53.055 C33.625,52.041 30.5,47.291 29.375,45.666 C28.25,44.041 27.375,38.416 25.25,36.416 C23.125,34.416 23.557,33.812 21.903,32.677 C20.25,31.541 20.125,29.916 16.25,29.666" id="Fill-2" fill="#4664A6" sketch:type="MSShapeGroup"></path>
                <path d="M22.834,33.5 C22.834,33.5 33.418,42.834 34.751,43.417 C36.084,44 34.917,50.167 33.834,50.25 C32.751,50.333 29.168,47.417 27.001,46.417 C24.834,45.417 14.418,36.75 14.751,35 C15.084,33.25 13.502,31.833 16.168,31.5 C18.834,31.167 22.834,33.5 22.834,33.5" id="Fill-3" fill="#344A7A" sketch:type="MSShapeGroup"></path>
                <path d="M27.125,68.791 C27.125,68.791 29.465,78.887 29.982,79.214 C30.5,79.541 39.375,81.166 40,80.541 C40.625,79.916 40.75,75.166 39.5,73.666 C38.25,72.166 27.125,68.791 27.125,68.791" id="Fill-4" fill="#4664A6" sketch:type="MSShapeGroup"></path>
                <path d="M20.875,55.916 C20.875,55.916 20.25,61.666 21.5,63.666 C22.75,65.666 26.447,69.443 27.536,70.055 C28.625,70.666 40.375,79.541 41.25,79.666 C42.125,79.791 49.25,73.916 49.125,73.041 C49,72.166 39.25,59.666 37.125,59.416 C37.125,59.416 36.168,54.167 34.001,53.667 C31.834,53.167 20.875,55.916 20.875,55.916" id="Fill-5" fill="#344A7A" sketch:type="MSShapeGroup"></path>
                <g id="aarend-hoofd" transform="translate(3.000000, 5.000000)" sketch:type="MSShapeGroup">
                    <path d="M33.588,10.957 C33.586,10.95 33.584,10.94 33.583,10.937 C32.139,3.772 26.893,-0.015 20.19,1.232 C20.176,1.234 20.16,1.229 20.147,1.233 L19.998,1.263 C19.991,1.263 19.988,1.264 19.982,1.266 L3.823,4.504 L0.198,23.07 C0.18,23.166 0.196,23.26 0.224,23.346 C0.22,23.363 0.207,23.378 0.202,23.394 C0.126,23.694 0.305,23.994 0.605,24.069 L20.428,29.102 C20.509,29.121 20.592,29.123 20.672,29.107 C20.873,29.065 21.049,28.914 21.101,28.699 C21.133,28.579 21.111,28.46 21.066,28.354 L21.086,28.35 L18.453,15.213 C20.238,12.68 22.471,10.983 24.935,10.319 C27.598,9.601 30.375,10.134 32.967,11.858 L33.567,10.96 L33.588,10.957" id="Fill-6" fill="#344A7A"></path>
                    <path d="M16.877,6.163 C16.611,7.539 15.989,8.525 15.097,8.703 C14.203,8.882 13.249,8.212 12.477,7.047 L16.877,6.163" id="Fill-7" fill="#FFFFFF"></path>
                </g>
            </g>
        </g>
    </g>
</svg>