<?xml version="1.0" encoding="UTF-8" standalone="no"?>
<svg width="194px" height="95px" viewBox="0 0 194 95" version="1.1" xmlns="http://www.w3.org/2000/svg" xmlns:xlink="http://www.w3.org/1999/xlink" xmlns:sketch="http://www.bohemiancoding.com/sketch/ns">
    <!-- Generator: Sketch 3.3.2 (12043) - http://www.bohemiancoding.com/sketch -->
    <title>logo-rood</title>
    <desc>Created with Sketch.</desc>
    <defs></defs>
    <g id="Page-1" stroke="none" stroke-width="1" fill="none" fill-rule="evenodd" sketch:type="MSPage">
        <g id="Artboard-4" sketch:type="MSArtboardGroup" transform="translate(-1022.000000, -46.000000)">
            <g id="logo-rood" sketch:type="MSLayerGroup" transform="translate(1022.000000, 46.000000)">
                <path d="M37.8624973,0.0612331081 C56.7239725,0.0612331081 75.5849087,3.21567278 75.5849087,3.21567278 L75.5849087,50.1938506 C75.5849087,50.1938506 73.2283697,82.4186874 37.8624973,94.8386497 C2.49716401,82.4135364 0.140625,50.1938506 0.140625,50.1938506 L0.140625,3.21567278 C0.140625,3.21567278 19.0015612,0.0612331081 37.8624973,0.0612331081" id="Imported-Layers" fill="#DA4266" sketch:type="MSShapeGroup"></path>
                <g id="Imported-Layers-Copy" transform="translate(10.128641, 13.501373)" sketch:type="MSShapeGroup">
                    <path d="M5.09717285,49.8237293 L5.09717285,49.8331086 C5.12591983,49.7752695 5.15171841,49.7135223 5.1804654,49.6556832 L5.09717285,49.8237293" id="Fill-1" fill="#000000"></path>
                    <path d="M54.5147159,7.31196153 C54.5147159,4.75922328 53.953044,2.34404838 52.957219,0.200873769 C52.9542706,9.08856105 46.1559769,16.2903156 37.7743878,16.2903156 L16.7787686,16.2903156 C8.39717941,16.2903156 1.60183419,9.08856105 1.59593738,0.200873769 C0.600112298,2.34404838 0.0384404189,4.75922328 0.0384404189,7.31196153 C0.0384404189,16.0097176 6.54263027,26.7537286 14.6736047,27.2211314 L19.1198052,46.0071277 L16.6600951,47.3999567 L20.6397099,52.4249274 L34.1493191,52.4249274 L37.6277044,47.4241866 L35.6581673,46.0321392 L40.112476,27.2062808 C48.1373077,26.55051 54.5147159,15.9245221 54.5147159,7.31196153" id="Fill-2" fill="#FFFFFF"></path>
                    <path d="M17.8580786,27.4217457 C18.0475976,29.9225163 19.519637,31.8385899 21.1477029,31.7008613 C22.4392093,31.5908517 23.4284656,30.211833 23.6906879,28.3979731 L17.8523603,26.869965 C17.8515435,27.0536031 17.8441914,27.2337764 17.8580786,27.4217457" id="Fill-3" fill="#DA4266"></path>
                    <path d="M31.068857,28.3979731 C31.3310794,30.211833 32.3203357,31.5908517 33.611842,31.7008613 C35.2399079,31.8385899 36.7119474,29.9225163 36.9014664,27.4217457 C36.9153535,27.2337764 36.9080015,27.0536031 36.9071846,26.869965 L31.068857,28.3979731" id="Fill-4" fill="#DA4266"></path>
                </g>
                <text id="team-copy" sketch:type="MSTextLayer" font-family="Freshman" font-size="36" font-weight="normal" line-spacing="30" fill="#DA4266">
                    <tspan x="100.548519" y="37.1441951">team</tspan>
                    <tspan x="100.548519" y="72.7444148">rood</tspan>
                </text>
            </g>
        </g>
    </g>
</svg>