<?xml version="1.0" encoding="UTF-8" standalone="no"?>
<svg width="225px" height="95px" viewBox="0 0 225 95" version="1.1" xmlns="http://www.w3.org/2000/svg" xmlns:xlink="http://www.w3.org/1999/xlink" xmlns:sketch="http://www.bohemiancoding.com/sketch/ns">
    <!-- Generator: Sketch 3.3.2 (12043) - http://www.bohemiancoding.com/sketch -->
    <title>logo blauw</title>
    <desc>Created with Sketch.</desc>
    <defs></defs>
    <g id="Page-1" stroke="none" stroke-width="1" fill="none" fill-rule="evenodd" sketch:type="MSPage">
        <g id="Artboard-4" sketch:type="MSArtboardGroup" transform="translate(-115.000000, -64.000000)">
            <g id="logo-blauw" sketch:type="MSLayerGroup" transform="translate(116.000000, 64.000000)">
                <path d="M185.721872,0.0612331081 C204.583348,0.0612331081 223.444284,3.21567278 223.444284,3.21567278 L223.444284,50.1938506 C223.444284,50.1938506 221.087745,82.4186874 185.721872,94.8386497 C150.356539,82.4135364 148,50.1938506 148,50.1938506 L148,3.21567278 C148,3.21567278 166.860936,0.0612331081 185.721872,0.0612331081" id="Imported-Layers-Copy-2" fill="#4563A7" sketch:type="MSShapeGroup"></path>
                <g id="Imported-Layers-Copy-3" transform="translate(160.000000, 21.000000)" sketch:type="MSShapeGroup">
                    <g id="Imported-Layers">
                        <path d="M52.556029,18.1842892 L52.556029,18.1542885 C52.5437391,7.32710161 46.0362609,0.302315058 35.9516667,0.160773148 C35.9301594,0.160773148 35.9124928,0.148465156 35.8886812,0.148465156 L35.6666957,0.148465156 L35.6421159,0.148465156 L11.2659565,0.148465156 L0.612188406,26.0567887 C0.55842029,26.1921767 0.555347826,26.3306416 0.569942029,26.4652602 C0.55842029,26.489107 0.53384058,26.504492 0.522318841,26.5283387 C0.327217391,26.9406564 0.49773913,27.4298991 0.909449275,27.6252885 L28.1921594,40.7056072 C28.3066087,40.7594547 28.4264348,40.7871477 28.5462609,40.7871477 C28.851971,40.7871477 29.1461594,40.615605 29.2874928,40.3209825 C29.3681449,40.1525168 29.3712174,39.9755894 29.3381884,39.8071238 L29.3681449,39.8071238 L29.3681449,19.9627941 C32.6925507,16.8019479 36.4225217,14.989596 40.193971,14.7403592 C44.2626812,14.4695833 48.1362899,16.0534681 51.3915652,19.3166245 L52.523,18.1842892 L52.556029,18.1842892" id="Fill-1" fill="#FFFFFF"></path>
                        <path d="M30.937235,5.77737581 C29.8641199,8.40044059 28.2392073,10.1130114 26.3925246,10.1130114 C24.5521481,10.1130114 22.9261844,8.40044059 21.8530694,5.77737581 L30.937235,5.77737581" id="Fill-2" fill="#4563A7"></path>
                    </g>
                </g>
                <text id="team" sketch:type="MSTextLayer" font-family="Freshman" font-size="36" font-weight="normal" sketch:alignment="right" line-spacing="30" fill="#4563A7">
                    <tspan x="32.564" y="31.5439754">team</tspan>
                    <tspan x="0.38" y="67.1441951">blauw</tspan>
                </text>
            </g>
        </g>
    </g>
</svg>