<?xml version="1.0" encoding="UTF-8" standalone="no"?>
<svg width="175px" height="81px" viewBox="0 0 175 81" version="1.1" xmlns="http://www.w3.org/2000/svg" xmlns:xlink="http://www.w3.org/1999/xlink" xmlns:sketch="http://www.bohemiancoding.com/sketch/ns">
    <!-- Generator: Sketch 3.3.3 (12072) - http://www.bohemiancoding.com/sketch -->
    <title>Slice 1</title>
    <desc>Created with Sketch.</desc>
    <defs></defs>
    <g id="Page-1" stroke="none" stroke-width="1" fill="none" fill-rule="evenodd" sketch:type="MSPage">
        <g id="logo-rood" sketch:type="MSLayerGroup">
            <path d="M31.8448645,0.0514740815 C47.7086126,0.0514740815 63.5719074,2.70317493 63.5719074,2.70317493 L63.5719074,42.1942057 C63.5719074,42.1942057 61.5899022,69.2832091 31.8448645,79.7237399 C2.10028009,69.2788791 0.118274926,42.1942057 0.118274926,42.1942057 L0.118274926,2.70317493 C0.118274926,2.70317493 15.9815697,0.0514740815 31.8448645,0.0514740815" id="Imported-Layers" fill="#DA4266" sketch:type="MSShapeGroup"></path>
            <g id="Imported-Layers-Copy" transform="translate(8.518857, 11.349592)" sketch:type="MSShapeGroup">
                <path d="M4.28705949,41.8830724 L4.28705949,41.8909569 C4.31123761,41.8423359 4.33293592,41.7904297 4.35711403,41.7418087 L4.28705949,41.8830724" id="Fill-1" fill="#000000"></path>
                <path d="M45.8504817,6.14661766 C45.8504817,4.00072207 45.3780785,1.97046567 44.5405238,0.168859512 C44.5380439,7.64007164 38.8202294,13.6940465 31.7707585,13.6940465 L14.1120541,13.6940465 C7.06258328,13.6940465 1.3472485,7.64007164 1.34228889,0.168859512 C0.504734135,1.97046567 0.0323309347,4.00072207 0.0323309347,6.14661766 C0.0323309347,13.4581688 5.50278479,22.4898531 12.3414721,22.8827636 L16.0810207,38.6747417 L14.0122419,39.8455886 L17.3593612,44.0697046 L28.721836,44.0697046 L31.6473881,39.8659569 L29.9908772,38.695767 L33.7372453,22.8702798 C40.4866595,22.3190225 45.8504817,13.3865514 45.8504817,6.14661766" id="Fill-2" fill="#FFFFFF"></path>
                <path d="M15.0198252,23.051405 C15.1792232,25.1536153 16.4173058,26.7643147 17.7866169,26.6485365 C18.8728591,26.5560597 19.7048891,25.3968221 19.9254354,23.8720461 L15.0150158,22.5875643 C15.0143288,22.7419351 15.0081452,22.8933933 15.0198252,23.051405" id="Fill-3" fill="#DA4266"></path>
                <path d="M26.1309637,23.8720461 C26.35151,25.3968221 27.18354,26.5560597 28.2697822,26.6485365 C29.6390933,26.7643147 30.8771759,25.1536153 31.0365739,23.051405 C31.0482539,22.8933933 31.0420704,22.7419351 31.0413833,22.5875643 L26.1309637,23.8720461" id="Fill-4" fill="#DA4266"></path>
            </g>
            <text id="team" sketch:type="MSTextLayer" font-family="Freshman" font-size="30.2625" font-weight="normal" line-spacing="35" letter-spacing="1" fill="#DA4266">
                <tspan x="84.5679551" y="31.164964">team</tspan>
                <tspan x="84.5679551" y="66.164964">bull</tspan>
                <tspan x="157.354618" y="66.164964">s</tspan>
            </text>
        </g>
    </g>
</svg>