<?xml version="1.0" encoding="UTF-8" standalone="no"?>
<svg width="183px" height="77px" viewBox="0 0 183 77" version="1.1" xmlns="http://www.w3.org/2000/svg" xmlns:xlink="http://www.w3.org/1999/xlink" xmlns:sketch="http://www.bohemiancoding.com/sketch/ns">
    <!-- Generator: Sketch 3.3.3 (12072) - http://www.bohemiancoding.com/sketch -->
    <title>Slice 1</title>
    <desc>Created with Sketch.</desc>
    <defs></defs>
    <g id="Page-1" stroke="none" stroke-width="1" fill="none" fill-rule="evenodd" sketch:type="MSPage">
        <path d="M152.2158,0 C167.324131,0 182.432031,2.52542938 182.432031,2.52542938 L182.432031,40.1359349 C182.432031,40.1359349 180.544407,65.9349857 152.2158,75.8783484 C123.887624,65.9308619 122,40.1359349 122,40.1359349 L122,2.52542938 C122,2.52542938 137.1079,0 152.2158,0" id="Imported-Layers-Copy-2" fill="#4563A7" sketch:type="MSShapeGroup"></path>
        <g id="Imported-Layers-Copy-3" sketch:type="MSLayerGroup" transform="translate(131.000000, 18.000000)">
            <g id="Imported-Layers" sketch:type="MSShapeGroup">
                <path d="M42.0981871,14.5582554 L42.0981871,14.5342369 C42.0883427,5.86604266 36.8757526,0.242031996 28.7978376,0.128714217 C28.78061,0.128714217 28.7664587,0.118860497 28.7473853,0.118860497 L28.5695715,0.118860497 L28.5498827,0.118860497 L9.02420435,0.118860497 L0.490372323,20.860941 C0.447303236,20.9693319 0.444842145,21.0801863 0.456532326,21.1879613 C0.447303236,21.2070529 0.42761451,21.2193701 0.41838542,21.2384616 C0.26210616,21.5685613 0.398696695,21.9602466 0.728482849,22.1166744 L22.5823531,32.5887153 C22.6740287,32.6318253 22.7700112,32.6539962 22.8659938,32.6539962 C23.1108723,32.6539962 23.3465217,32.51666 23.4597319,32.2807865 C23.5243355,32.1459138 23.5267966,32.0042665 23.5003399,31.8693937 L23.5243355,31.8693937 L23.5243355,15.9821179 C26.1872357,13.4515594 29.1749998,12.0005992 32.1959886,11.8010614 C35.455088,11.5842795 38.5579081,12.8523301 41.1654337,15.4647976 L42.0717304,14.5582554 L42.0981871,14.5582554" id="Fill-1" fill="#FFFFFF"></path>
                <path d="M24.7812008,4.62533956 C23.9216191,6.72535273 22.6200391,8.09642875 21.1408179,8.09642875 C19.666648,8.09642875 18.3642261,6.72535273 17.5046445,4.62533956 L24.7812008,4.62533956" id="Fill-2" fill="#4563A7"></path>
            </g>
        </g>
        <text id="team" sketch:type="MSTextLayer" font-family="Freshman" font-size="28.8214286" font-weight="normal" sketch:alignment="right" line-spacing="35" letter-spacing="1" fill="#4563A7">
            <tspan x="24.6520357" y="30">team</tspan>
            <tspan x="0.306678571" y="65">eagle</tspan>
            <tspan x="88.7735357" y="65">s</tspan>
        </text>
    </g>
</svg>