<?xml version="1.0" encoding="UTF-8" standalone="no"?>
<svg width="252px" height="252px" viewBox="0 0 252 252" version="1.1" xmlns="http://www.w3.org/2000/svg" xmlns:xlink="http://www.w3.org/1999/xlink" xmlns:sketch="http://www.bohemiancoding.com/sketch/ns">
    <!-- Generator: Sketch 3.3.2 (12043) - http://www.bohemiancoding.com/sketch -->
    <title>bull-hit</title>
    <desc>Created with Sketch.</desc>
    <defs>
        <circle id="path-1" cx="126" cy="126" r="126"></circle>
    </defs>
    <g id="Page-2" stroke="none" stroke-width="1" fill="none" fill-rule="evenodd" sketch:type="MSPage">
        <g id="iPhone-6" sketch:type="MSArtboardGroup" transform="translate(-62.000000, -234.000000)">
            <g id="bull-hit" sketch:type="MSLayerGroup" transform="translate(62.000000, 234.000000)">
                <mask id="mask-2" sketch:name="Mask" fill="white">
                    <use xlink:href="#path-1"></use>
                </mask>
                <use id="Mask" fill="#DA4266" sketch:type="MSShapeGroup" xlink:href="#path-1"></use>
                <g id="Imported-Layers" mask="url(#mask-2)">
                    <g transform="translate(-6.000000, -50.000000)">
                        <path d="M0.208317582,337.510591 L0.208317582,315.84218 C0.482508817,315.598888 0.779762866,315.386327 1.01551608,315.117425 C16.9211702,297.172671 32.8216993,279.222796 48.7196659,261.272921 C75.2470272,231.309512 101.779514,201.343541 128.309437,171.380132 C128.591316,171.062571 128.860382,170.742449 129.137136,170.419766 C125.244646,173.659399 121.475157,177.001472 117.705668,180.343545 C99.2554167,196.710737 80.8051654,213.072807 62.349789,229.434878 C43.1615277,246.452558 23.9707038,263.472799 4.77219225,280.480235 C3.2782344,281.80682 1.73046332,283.069381 0.208317582,284.357552 L0.208317582,258.806702 C0.500446561,258.658166 0.81820089,258.542922 1.08726705,258.355971 C43.2153409,229.235122 85.3459772,200.10659 127.468926,170.980619 C127.732867,170.79879 127.97887,170.599034 128.229999,170.4044 C127.758492,170.427449 127.366425,170.599034 126.989732,170.796229 C112.083466,178.635374 97.1772009,186.479641 82.2734979,194.321347 C56.735275,207.753662 31.1996147,221.185977 5.65626679,234.61317 C3.85992982,235.555609 2.02259229,236.431462 0.208317582,237.343169 L0.208317582,218.33049 C0.559384864,218.212685 0.918139751,218.102563 1.2666445,217.969392 C42.6285204,202.26037 83.9878337,186.548788 125.34971,170.834644 C126.382411,170.440254 127.415113,170.030498 128.442689,169.625864 C128.191561,169.51062 127.994246,169.546473 127.799493,169.595132 C113.203294,173.193302 98.6045328,176.794033 84.0006464,180.397325 C59.8615676,186.359275 35.7224888,192.326348 11.5808475,198.295981 C7.78573329,199.235859 3.99830671,200.203907 0.208317582,201.159151 L0.208317582,184.599885 C0.579885143,184.599885 0.94889017,184.635739 1.31533266,184.592202 C5.44101386,184.103056 9.56669505,183.601105 13.6872512,183.099154 C20.7162844,182.238666 27.7504427,181.373057 34.779476,180.517691 C42.2877032,179.600862 49.793368,178.699399 57.2964702,177.782569 C64.3588164,176.924643 71.4237251,176.056472 78.4886338,175.193424 C85.4202908,174.348302 92.3493851,173.508302 99.2784795,172.665741 C106.343388,171.802692 113.408297,170.944766 120.473206,170.079156 C123.230493,169.741107 125.992906,169.395376 128.750193,169.052205 C128.360688,168.893425 127.989121,168.893425 127.61499,168.893425 C114.628064,168.919034 101.643699,168.944644 88.6593349,168.962571 C69.9784554,168.988181 51.3001385,169.01379 32.6243841,169.029156 C22.6356231,169.036839 12.6494245,169.029156 2.66066349,169.031717 C1.84577739,169.031717 1.02576622,169.054766 0.208317582,169.06501 L0.208317582,153.117818 C2.80160291,153.458427 5.39488823,153.819525 7.99073609,154.137086 C15.0556448,154.98989 22.1231161,155.827329 29.1905874,156.675012 C36.288809,157.527817 43.3895933,158.390865 50.4878149,159.241109 C58.7058644,160.224524 66.9187888,161.197694 75.1342757,162.18367 C82.8090677,163.10306 90.4838597,164.035255 98.1586518,164.962328 C106.509953,165.96623 114.858692,166.970132 123.209993,167.968913 C124.811577,168.160986 126.418287,168.33001 128.019871,168.5144 C127.743117,168.222449 127.427925,168.127693 127.105046,168.048303 C101.333633,161.732938 75.5545314,155.417573 49.7779928,149.10733 L0.208317582,136.968308 L0.208317582,119.594652 C0.433820654,119.66636 0.664448795,119.727823 0.884826797,119.812335 C42.9719001,135.718552 85.0589733,151.629891 127.143484,167.536108 C127.476614,167.664157 127.819993,167.771718 128.158248,167.886961 C128.019871,167.607815 127.822556,167.482327 127.617553,167.372205 C123.309932,165.115986 119.002311,162.857206 114.689564,160.600987 C78.1990674,141.485868 41.7060078,122.37075 5.20782318,103.263314 C3.56011324,102.400265 1.87652781,101.608924 0.208317582,100.78429 L0.208317582,79.1158787 C0.52607191,79.3002689 0.861763983,79.4667323 1.1641431,79.6741713 C23.1250672,94.7992907 45.0808663,109.929532 67.0366654,125.054652 C87.2268779,138.965869 107.419653,152.871964 127.61499,166.778059 C127.853306,166.941962 128.10956,167.085376 128.358126,167.239035 C127.930182,166.583425 127.404863,166.101962 126.869293,165.633303 C120.158014,159.699524 113.44161,153.770866 106.732894,147.839648 C91.6523756,134.50465 76.5718577,121.169652 61.4913398,107.839776 C43.9866639,92.3638033 26.481988,76.8929523 8.96706189,61.4246622 C6.0611473,58.8560041 3.12704484,56.3206386 0.208317582,53.7699074 L0.208317582,22.0829614 C43.1717778,70.4367338 86.135238,118.787945 129.098698,167.139157 C129.016697,166.706352 128.806569,166.370864 128.578504,166.04562 C102.350959,128.173919 76.1259767,90.3047793 49.8984319,52.4330783 C37.8391427,35.023569 25.7696033,17.6166207 13.7077515,0.209672431 L41.7290706,0.209672431 C52.4225288,20.4900349 63.1236746,40.7678364 73.8171327,61.0533208 C91.385872,94.3972176 108.949486,127.746236 126.520788,161.092694 C127.448426,162.859767 128.391439,164.621718 129.329326,166.388791 C129.419015,165.971352 129.319076,165.633303 129.193512,165.302937 C124.619387,153.291964 120.037575,141.283551 115.466013,129.272578 C102.322771,94.7608761 89.182092,60.2491746 76.0388505,25.742595 C72.7946813,17.2299135 69.5325744,8.71979296 66.2755925,0.209672431 L88.779774,0.209672431 C88.8463999,0.399184594 88.9309636,0.586135782 88.9822143,0.780769896 C91.0578676,9.16540264 93.1335208,17.5500354 95.2091741,25.9321071 C100.262493,46.3328354 105.318374,66.7258808 110.369131,87.1266091 C116.342399,111.256117 122.310543,135.385625 128.286375,159.515134 C128.89882,161.983914 129.526642,164.447572 130.146775,166.91123 C130.003273,164.350255 129.693206,161.820011 129.385702,159.292329 C128.532378,152.331598 127.673929,145.37599 126.823167,138.41782 C125.908342,130.919285 124.998642,123.418188 124.081255,115.919653 C123.158742,108.387825 122.22598,100.855997 121.30603,93.324169 C120.455268,86.3992921 119.622444,79.4718543 118.774245,72.5469774 C117.844045,64.946003 116.906157,57.3501507 115.978519,49.7466153 C115.114945,42.7577141 114.251371,35.7662518 113.395484,28.7722286 C112.544723,21.8140591 111.711899,14.8533285 110.856012,7.89771992 C110.54082,5.33162279 110.182066,2.77064761 109.843811,0.209672431 L130.50553,0.209672431 C130.472217,0.647599187 130.408154,1.08552594 130.408154,1.5234527 C130.426091,12.8301581 130.454279,24.1368635 130.467092,35.441008 C130.490155,53.5624684 130.492717,71.6839287 130.508092,89.8028281 C130.510655,96.7149002 130.528593,103.629533 130.538843,110.544166 C130.561906,127.029163 130.584968,143.514161 130.608031,159.996597 C130.613156,161.835377 130.605469,163.676718 130.613156,165.512937 C130.613156,165.784401 130.651594,166.050742 130.674657,166.319645 C131.28454,162.772694 131.712484,159.233426 132.137865,155.694159 C133.057815,147.993306 133.975202,140.287332 134.895152,132.583919 C135.748476,125.456725 136.606925,118.32697 137.457687,111.197215 C138.305886,104.100753 139.146398,97.0042903 139.994597,89.9103891 C140.919672,82.1736831 141.854997,74.4369771 142.77751,66.700271 C143.700022,58.9968577 144.622535,51.2934444 145.542485,43.58747 C146.393246,36.4961298 147.244008,29.3996675 148.094769,22.3032053 C148.981407,14.9404017 149.870606,7.57503705 150.754681,0.209672431 L171.826405,0.209672431 C171.793092,0.445282148 171.793092,0.686013814 171.739279,0.91137963 C170.253009,7.02698836 168.761613,13.1374751 167.265093,19.2479619 C161.079134,44.4838113 154.893175,69.7196608 148.709778,94.9555102 C143.454019,116.424165 138.203385,137.895381 132.947626,159.366597 C132.340305,161.853304 131.730422,164.334889 131.123101,166.821596 C131.389604,166.585986 131.515169,166.311962 131.622795,166.030254 C150.213986,116.823677 168.802614,67.6196611 187.39893,18.418206 C189.697524,12.3435728 192.016618,6.27918361 194.325462,0.209672431 L218.871984,0.209672431 C218.702856,0.581013832 218.554229,0.957477184 218.367164,1.31601371 C206.405251,24.1547904 194.440776,46.9910061 182.4763,69.8297827 C166.411769,100.502582 150.354925,131.175382 134.292956,161.848182 C133.483195,163.397572 132.686247,164.952084 131.884174,166.504035 C132.250616,166.345254 132.455619,166.091718 132.634996,165.825376 C144.340656,148.838428 156.046315,131.85148 167.751975,114.86197 C189.787212,82.8728293 211.819887,50.8862493 233.855125,18.8971083 C238.144809,12.6739386 242.413992,6.43796407 246.690862,0.209672431 L261.010307,0.209672431 C261.010307,6.92711033 260.997495,13.6445482 261.02312,20.3619861 C261.025683,21.0585714 260.836055,21.5656445 260.374799,22.0880834 C238.893069,46.373811 217.426714,70.6749045 195.952671,94.9708761 C176.123776,117.405019 156.292319,139.8366 136.463424,162.268182 C135.013029,163.914889 133.565197,165.564157 132.112239,167.210864 C132.158365,167.254401 132.204491,167.300498 132.250616,167.344035 C175.109012,129.264895 217.975096,91.1857547 261.010307,52.9529563 L261.010307,54.1591756 C261.010307,61.9291743 260.994932,69.696612 261.02312,77.4640497 C261.025683,78.263074 260.795055,78.7419763 260.131358,79.1978299 C246.508922,88.6042918 232.90955,98.0338024 219.302489,107.460752 C190.799414,127.20331 162.2989,146.945867 133.798387,166.690986 C133.519071,166.88562 133.247442,167.098181 132.973251,167.300498 C133.014252,167.369644 133.06294,167.43623 133.106503,167.502815 C175.706083,145.053307 218.303101,122.601237 261.010307,100.092826 C261.010307,106.210996 260.994932,112.137093 261.02312,118.06575 C261.028245,118.890384 260.818117,119.287335 259.992981,119.602335 C218.467103,135.39843 176.951475,151.227818 135.435847,167.052083 C134.53896,167.392693 133.64976,167.748669 132.760561,168.099522 C132.778498,168.163547 132.798999,168.222449 132.819499,168.286474 C175.513893,157.696841 218.203162,147.107209 260.953932,136.504772 L260.953932,152.884769 C218.034035,158.157817 175.157701,163.425743 132.273679,168.693669 C132.281367,168.716717 132.286492,168.737205 132.289054,168.757693 L260.953932,168.757693 L260.953932,184.651105 C218.287726,179.495862 175.677895,174.350863 133.070627,169.203303 C133.057815,169.282693 133.047564,169.362083 133.034752,169.444034 C175.685583,179.928667 218.331289,190.413299 260.935994,200.887688 L260.935994,218.294636 C218.098098,202.065736 175.352453,185.87269 132.611934,169.677083 C132.71956,169.935742 132.893812,170.038181 133.07319,170.132937 C147.115881,177.500862 161.158572,184.871349 175.201264,192.239274 C203.530087,207.103174 231.85891,221.969635 260.192859,236.818169 C260.828368,237.148535 261.025683,237.532681 261.02312,238.229267 C260.997495,244.769997 261.010307,251.313289 261.007745,257.85658 C261.007745,258.14341 260.979557,258.427678 260.951369,258.865605 C218.072473,229.278658 175.31914,199.781346 132.56837,170.286595 C133.229504,171.162449 134.01364,171.866717 134.805463,172.565863 C158.911229,193.898786 183.016995,215.23171 207.117636,236.569755 C224.868315,252.283898 242.621557,267.998042 260.349173,283.737796 C260.697678,284.045113 260.979557,284.634137 260.98212,285.08743 C261.017995,295.039379 261.010307,304.988768 261.005182,314.935595 C261.005182,315.18401 260.961619,315.434985 260.928306,315.819132 C260.684866,315.563034 260.541364,315.422181 260.408112,315.273644 C253.968462,308.013279 247.523686,300.755476 241.081474,293.489989 C222.234029,272.239017 203.384023,250.988045 184.534016,229.737073 C168.620674,211.797442 152.709895,193.860372 136.788865,175.928423 C135.328221,174.279155 133.813762,172.668302 132.322367,171.039522 C132.145552,170.709156 131.963612,170.37879 131.784235,170.045863 C131.653546,170.161107 131.525419,170.27379 131.397292,170.389034 C131.440855,170.56318 131.486981,170.737327 131.527981,170.911473 C131.633045,171.300741 131.704796,171.700253 131.843173,172.074156 C152.043636,225.219513 172.241536,278.362309 192.441999,331.507666 C193.187696,333.471934 193.920581,335.436202 194.686779,337.472177 L172.182598,337.472177 C158.485848,281.986089 144.778849,226.497439 131.079538,171.006229 C131.012912,171.019034 130.943723,171.0344 130.87966,171.044644 C137.624252,226.505122 144.368844,281.96304 151.115998,337.42864 L130.567031,337.42864 L130.567031,171.042083 C130.49528,171.039522 130.423529,171.036961 130.351778,171.036961 C123.671249,226.507683 116.985596,281.980967 110.305067,337.469616 L89.148779,337.469616 C102.758402,282.050113 116.35265,226.686952 129.94946,171.321229 C129.621455,171.544034 129.506141,171.82318 129.401077,172.104888 C121.859537,192.008787 114.315434,211.915247 106.773894,231.819146 C93.5589016,266.70475 80.338784,301.585232 67.1468544,336.478518 C66.8444752,337.277543 66.4780327,337.536201 65.6247086,337.531079 C58.1574819,337.495226 50.6953803,337.510591 43.2281536,337.510591 L42.05195,337.510591 C71.2443477,281.88365 100.364994,226.384756 129.485641,170.890985 C129.106386,171.103546 128.886008,171.40318 128.670755,171.710497 C110.315317,198.306225 91.9624424,224.899391 73.6070049,251.489996 C53.9933627,279.906577 34.3822831,308.320596 14.7814536,336.742299 C14.3919483,337.308274 13.9896303,337.53364 13.2951833,337.525957 C8.93374893,337.495226 4.56718945,337.510591 0.208317582,337.510591" id="Fill-1" fill="#9C2F49" sketch:type="MSShapeGroup"></path>
                        <g id="bull" stroke-width="1" fill="none" sketch:type="MSLayerGroup" transform="translate(45.000000, 108.000000)">
                            <path d="M86.9735922,82.5962256 C87.1,82.855 87.1917476,83.136188 87.3528155,83.3705113 C106.47301,111.022699 125.597282,138.67285 144.723592,166.323 C155.77,182.295699 166.816408,198.272474 177.862816,214.249248 C178.01165,214.465233 178.144175,214.691406 178.368447,215.045947 L177.481553,215.045947 C170.649417,215.045947 163.811165,215.037797 156.979029,215.058173 C156.359223,215.062248 156.035049,214.897203 155.731262,214.322602 C142.158738,188.467571 128.563786,162.620692 114.968835,136.77585 C105.531068,118.836872 96.093301,100.895857 86.6575728,82.9568797 C86.5699029,82.7938722 86.4496117,82.6471654 86.3415534,82.4943459 C86.308932,82.3557895 86.272233,82.2172331 86.2375728,82.0786767 C86.3395146,81.986985 86.4414563,81.8973308 86.5454369,81.8056391 C86.6881553,82.0705263 86.8329126,82.3333759 86.9735922,82.5962256" id="Fill-2" fill="#9C2F49" sketch:type="MSShapeGroup"></path>
                            <path d="M68.4650485,135.359722 C66.6321359,139.891331 61.4657282,142.083782 56.9272816,140.251985 C52.3929126,138.420188 50.201165,133.258962 52.0340777,128.723278 C53.8649515,124.187594 59.0293204,121.995143 63.567767,123.828977 C68.1082524,125.660774 70.2979612,130.824038 68.4650485,135.359722" id="Fill-3" fill="#85283E" sketch:type="MSShapeGroup"></path>
                            <path d="M65.6534951,149.260188 C63.6350485,154.252293 57.9487379,156.666842 52.9515534,154.647586 C47.9543689,152.632406 45.5424272,146.947519 47.5608738,141.955414 C49.5772816,136.963308 55.2635922,134.550797 60.2587379,136.568015 C65.2579612,138.587271 67.6699029,144.268083 65.6534951,149.260188" id="Fill-4" fill="#85283E" sketch:type="MSShapeGroup"></path>
                            <path d="M53.1676699,148.292331 C50.4804854,154.936925 42.9164078,158.148173 36.267767,155.464662 C29.621165,152.779113 26.4079612,145.219639 29.0931068,138.575045 C31.7802913,131.932489 39.3464078,128.723278 45.9909709,131.406789 C52.6416505,134.090301 55.8507767,141.651812 53.1676699,148.292331" id="Fill-5" fill="#85283E" sketch:type="MSShapeGroup"></path>
                            <path d="M35.0342718,156.145218 C32.3491262,162.787774 24.7850485,166.00106 18.1343689,163.315511 C11.487767,160.632 8.27456311,153.070489 10.9617476,146.425895 C13.6468932,139.785376 21.2130097,136.57209 27.8596117,139.257639 C34.5082524,141.94115 37.7194175,149.504699 35.0342718,156.145218" id="Fill-6" fill="#85283E" sketch:type="MSShapeGroup"></path>
                            <path d="M31.2073786,169.228609 C27.8596117,177.511429 18.4279612,181.517338 10.1360194,178.169571 C1.85019417,174.823842 -2.1561165,165.395895 1.19368932,157.111038 C4.54145631,148.832293 13.9751456,144.826383 22.2609709,148.17415 C30.5529126,151.51988 34.5531068,160.949865 31.2073786,169.228609" id="Fill-7" fill="#85283E" sketch:type="MSShapeGroup"></path>
                            <path d="M47.3896117,174.746414 C43.9766019,183.194278 34.3594175,187.275579 25.9043689,183.860571 C17.4513592,180.447602 13.3675728,170.836271 16.7826214,162.386368 C20.1976699,153.942579 29.8148544,149.859241 38.2678641,153.272211 C46.7249515,156.683143 50.8046602,166.298549 47.3896117,174.746414" id="Fill-8" fill="#85283E" sketch:type="MSShapeGroup"></path>
                            <path d="M60.0935922,179.936165 C56.7193204,188.28215 47.2163107,192.316586 38.8591262,188.942331 C30.5080583,185.570113 26.471165,176.068812 29.8433981,167.720789 C33.2197087,159.374805 42.7267961,155.340368 51.0799029,158.712586 C59.4370874,162.086842 63.4678641,171.586105 60.0935922,179.936165" id="Fill-9" fill="#85283E" sketch:type="MSShapeGroup"></path>
                            <path d="M66.1672816,163.085263 C63.4800971,169.72782 55.9180583,172.939068 49.2694175,170.253519 C42.6228155,167.570008 39.4096117,160.008496 42.0927184,153.367977 C44.7778641,146.723383 52.3460194,143.514173 58.9926214,146.197684 C65.643301,148.881195 68.8524272,156.440669 66.1672816,163.085263" id="Fill-10" fill="#85283E" sketch:type="MSShapeGroup"></path>
                            <path d="M59.7102913,144.74488 C57.0231068,151.387436 49.461068,154.598684 42.8124272,151.913135 C36.1658252,149.229624 32.9526214,141.668113 35.6357282,135.027594 C38.3208738,128.383 45.8890291,125.173789 52.5356311,127.857301 C59.1863107,130.540812 62.3954369,138.100286 59.7102913,144.74488" id="Fill-11" fill="#85283E" sketch:type="MSShapeGroup"></path>
                            <path d="M103.278155,135.359722 C105.109029,139.891331 110.277476,142.083782 114.813883,140.251985 C119.350291,138.420188 121.542039,133.258962 119.709126,128.723278 C117.878252,124.187594 112.713883,121.995143 108.173398,123.828977 C103.634951,125.660774 101.443204,130.824038 103.278155,135.359722" id="Fill-12" fill="#85283E" sketch:type="MSShapeGroup"></path>
                            <path d="M106.089709,149.260188 C108.108155,154.252293 113.792427,156.666842 118.789612,154.647586 C123.786796,152.632406 126.200777,146.947519 124.18233,141.955414 C122.165922,136.963308 116.477573,134.550797 111.482427,136.568015 C106.483204,138.587271 104.073301,144.268083 106.089709,149.260188" id="Fill-13" fill="#85283E" sketch:type="MSShapeGroup"></path>
                            <path d="M118.575534,148.292331 C121.26068,154.936925 128.824757,158.148173 135.475437,155.464662 C142.122039,152.779113 145.335243,145.219639 142.648058,138.575045 C139.962913,131.932489 132.396796,128.723278 125.750194,131.406789 C119.101553,134.090301 115.890388,141.651812 118.575534,148.292331" id="Fill-14" fill="#85283E" sketch:type="MSShapeGroup"></path>
                            <path d="M136.706893,156.145218 C139.394078,162.787774 146.958155,166.00106 153.606796,163.315511 C160.253398,160.632 163.466602,153.070489 160.781456,146.425895 C158.096311,139.785376 150.530194,136.57209 143.883592,139.257639 C137.232913,141.94115 134.023786,149.504699 136.706893,156.145218" id="Fill-15" fill="#85283E" sketch:type="MSShapeGroup"></path>
                            <path d="M140.533786,169.228609 C143.883592,177.511429 153.315243,181.517338 161.605146,178.169571 C169.89301,174.823842 173.89932,165.395895 170.549515,157.111038 C167.199709,148.832293 157.766019,144.826383 149.482233,148.17415 C141.190291,151.51988 137.190097,160.949865 140.533786,169.228609" id="Fill-16" fill="#85283E" sketch:type="MSShapeGroup"></path>
                            <path d="M124.353592,174.746414 C127.766602,183.194278 137.381748,187.275579 145.838835,183.860571 C154.289806,180.447602 158.373592,170.836271 154.958544,162.386368 C151.545534,153.942579 141.92835,149.859241 133.473301,153.272211 C125.018252,156.683143 120.938544,166.298549 124.353592,174.746414" id="Fill-17" fill="#85283E" sketch:type="MSShapeGroup"></path>
                            <path d="M111.647573,179.936165 C115.023883,188.28215 124.526893,192.316586 132.882039,188.942331 C141.235146,185.570113 145.272039,176.068812 141.897767,167.720789 C138.523495,159.374805 129.016408,155.340368 120.661262,158.712586 C112.306117,162.086842 108.273301,171.586105 111.647573,179.936165" id="Fill-18" fill="#85283E" sketch:type="MSShapeGroup"></path>
                            <path d="M105.575922,163.085263 C108.261068,169.72782 115.823107,172.939068 122.473786,170.253519 C129.120388,167.570008 132.333592,160.008496 129.648447,153.367977 C126.963301,146.723383 119.395146,143.514173 112.748544,146.197684 C106.099903,148.881195 102.888738,156.440669 105.575922,163.085263" id="Fill-19" fill="#85283E" sketch:type="MSShapeGroup"></path>
                            <path d="M112.032913,144.74488 C114.718058,151.387436 122.280097,154.598684 128.930777,151.913135 C135.577379,149.229624 138.790583,141.668113 136.105437,135.027594 C133.420291,128.383 125.852136,125.173789 119.205534,127.857301 C112.556893,130.540812 109.345728,138.100286 112.032913,144.74488" id="Fill-20" fill="#85283E" sketch:type="MSShapeGroup"></path>
                            <path d="M161.030194,19.0558947 C161.030194,12.4031504 159.476602,6.10698496 156.722136,0.519902256 C156.713981,23.6893835 137.909806,42.4637744 114.726214,42.4637744 L56.6520388,42.4637744 C33.4684466,42.4637744 14.6724272,23.6893835 14.6561165,0.519902256 C11.9016505,6.10698496 10.3480583,12.4031504 10.3480583,19.0558947 C10.3480583,41.7322782 28.3387379,69.7410451 50.8291262,70.9595263 L63.1273786,119.933098 L56.3258252,123.56409 L67.3314563,136.663782 L104.699223,136.663782 L114.320485,123.627256 L108.872718,119.998301 L121.193398,70.920812 C143.390194,69.2112707 161.030194,41.5101805 161.030194,19.0558947" id="Fill-21" fill="#FFFFFF" sketch:type="MSShapeGroup"></path>
                            <path d="M113.119612,75.3016391 C113.119612,80.9743008 108.515922,85.5731504 102.839806,85.5731504 C97.1636893,85.5731504 92.5620388,80.9743008 92.5620388,75.3016391 C92.5620388,69.6269398 97.1636893,65.0280902 102.839806,65.0280902 C108.515922,65.0280902 113.119612,69.6269398 113.119612,75.3016391" id="Fill-22" fill="#D94266" sketch:type="MSShapeGroup"></path>
                            <path d="M106.748252,77.3392331 C106.748252,79.4950075 104.998932,81.2432632 102.839806,81.2432632 C100.68068,81.2432632 98.9333981,79.4950075 98.9333981,77.3392331 C98.9333981,75.1793835 100.68068,73.4331654 102.839806,73.4331654 C104.998932,73.4331654 106.748252,75.1793835 106.748252,77.3392331" id="Fill-23" fill="#F1F1F2" sketch:type="MSShapeGroup"></path>
                            <path d="M82.1986408,75.3016391 C82.1986408,80.9743008 77.5949515,85.5731504 71.918835,85.5731504 C66.2427184,85.5731504 61.641068,80.9743008 61.641068,75.3016391 C61.641068,69.6269398 66.2427184,65.0280902 71.918835,65.0280902 C77.5949515,65.0280902 82.1986408,69.6269398 82.1986408,75.3016391" id="Fill-24" fill="#D94266" sketch:type="MSShapeGroup"></path>
                            <path d="M75.8272816,77.3392331 C75.8272816,79.4950075 74.0779612,81.2432632 71.918835,81.2432632 C69.7597087,81.2432632 68.0124272,79.4950075 68.0124272,77.3392331 C68.0124272,75.1793835 69.7597087,73.4331654 71.918835,73.4331654 C74.0779612,73.4331654 75.8272816,75.1793835 75.8272816,77.3392331" id="Fill-25" fill="#F1F1F2" sketch:type="MSShapeGroup"></path>
                            <path d="M85.271165,72.6935188 L60.7684466,67.0412331 L62.2975728,60.4231278 L86.8002913,66.0754135 L85.271165,72.6935188" id="Fill-26" fill="#FFFFFF" sketch:type="MSShapeGroup"></path>
                            <path d="M90.1623301,72.6935188 L114.665049,67.0412331 L113.135922,60.4231278 L88.6332039,66.0754135 L90.1623301,72.6935188" id="Fill-27" fill="#FFFFFF" sketch:type="MSShapeGroup"></path>
                        </g>
                    </g>
                </g>
            </g>
        </g>
    </g>
</svg>