<?xml version="1.0" encoding="UTF-8" standalone="no"?>
<svg width="153px" height="138px" viewBox="0 0 153 138" version="1.1" xmlns="http://www.w3.org/2000/svg" xmlns:xlink="http://www.w3.org/1999/xlink" xmlns:sketch="http://www.bohemiancoding.com/sketch/ns">
    <!-- Generator: Sketch 3.3.2 (12043) - http://www.bohemiancoding.com/sketch -->
    <title>Imported Layers</title>
    <desc>Created with Sketch.</desc>
    <defs></defs>
    <g id="Page-2" stroke="none" stroke-width="1" fill="none" fill-rule="evenodd" sketch:type="MSPage">
        <g id="iPhone-6" sketch:type="MSArtboardGroup" transform="translate(-178.000000, -211.000000)">
            <g id="bull" sketch:type="MSLayerGroup" transform="translate(62.000000, 160.000000)">
                <g id="Imported-Layers" transform="translate(116.000000, 51.000000)" sketch:type="MSShapeGroup">
                    <path d="M152.544187,19.1447794 C152.544187,12.4686912 150.979547,6.15236765 148.205493,0.547397059 C148.19728,23.7910588 129.259387,42.6255588 105.910933,42.6255588 L47.4237867,42.6255588 C24.0753333,42.6255588 5.14565333,23.7910588 5.12922667,0.547397059 C2.35517333,6.15236765 0.790533333,12.4686912 0.790533333,19.1447794 C0.790533333,41.8917206 18.9091467,69.9901618 41.5594667,71.2125441 L53.9451733,120.342912 L47.0952533,123.985529 L58.1791467,137.127162 L95.81264,137.127162 L105.50232,124.048897 L100.015813,120.408324 L112.424107,71.1737059 C134.778747,69.4586912 152.544187,41.6689118 152.544187,19.1447794" id="Fill-1" fill="#FFFFFF"></path>
                    <path d="M53.0211733,72.2141618 C53.4975467,78.1155294 57.1976533,82.6371176 61.2899467,82.3121029 C64.5362667,82.0525 67.0228533,78.7982647 67.6819733,74.5178824 L53.0068,70.9120588 C53.0068,71.3454118 52.9862667,71.7705882 53.0211733,72.2141618" id="Fill-2" fill="#417505"></path>
                    <path d="M86.22768,74.5178824 C86.8868,78.7982647 89.3733867,82.0525 92.6197067,82.3121029 C96.712,82.6371176 100.412107,78.1155294 100.88848,72.2141618 C100.923387,71.7705882 100.904907,71.3454118 100.902853,70.9120588 L86.22768,74.5178824" id="Fill-3" fill="#417505"></path>
                </g>
            </g>
        </g>
    </g>
</svg>