<?xml version="1.0" encoding="UTF-8" standalone="no"?>
<svg width="513px" height="114px" viewBox="0 0 513 114" version="1.1" xmlns="http://www.w3.org/2000/svg" xmlns:xlink="http://www.w3.org/1999/xlink" xmlns:sketch="http://www.bohemiancoding.com/sketch/ns">
    <!-- Generator: Sketch 3.3.2 (12043) - http://www.bohemiancoding.com/sketch -->
    <title>logo</title>
    <desc>Created with Sketch.</desc>
    <defs></defs>
    <g id="Page-1" stroke="none" stroke-width="1" fill="none" fill-rule="evenodd" sketch:type="MSPage">
        <g id="Artboard-4" sketch:type="MSArtboardGroup" transform="translate(-423.000000, -69.000000)">
            <g id="logo" sketch:type="MSLayerGroup" transform="translate(423.000000, 69.000000)">
                <g id="Imported-Layers" fill="#365F07" sketch:type="MSShapeGroup">
                    <path d="M75.8686366,0.672367712 L437.208414,0.672367712 L437.208414,113.893934 L75.8686366,113.893934 L75.8686366,0.672367712 Z" id="Fill-1"></path>
                    <path d="M512.337111,104.316165 L444.226301,104.316165 L444.226301,10.2739373 L512.337111,10.2739373 L487.383524,57.2940592 L512.337111,104.316165" id="Fill-2"></path>
                    <path d="M0.761771288,104.316165 L68.8805206,104.316165 L68.8805206,10.2739373 L0.761771288,10.2739373 L25.721313,57.2940592 L0.761771288,104.316165" id="Fill-3"></path>
                </g>
                <path d="M130.992686,49.1242615 L123.106369,49.1242615 L123.106369,47.0212438 L120.950776,46.9686684 L120.950776,66.2112799 L123.106369,66.2112799 L123.106369,74.0975961 L109.279028,74.0975961 L109.279028,66.2112799 L111.382046,66.2112799 L111.382046,47.0212438 L109.279028,47.0212438 L109.279028,49.1242615 L101.392712,49.1242615 L101.392712,39.0823522 L130.992686,39.0823522 L130.992686,49.1242615 Z M161.907045,68.5245993 L156.281473,74.1501715 L140.876868,74.1501715 L135.251296,68.5245993 L135.251296,46.9686684 L133.148279,46.9686684 L133.148279,39.0823522 L146.97562,39.0823522 L146.97562,46.9686684 L144.872602,46.9686684 L144.872602,65.1071956 L146.029262,66.2638553 L151.12908,66.2638553 L152.285739,65.1071956 L152.285739,46.9686684 L150.130146,46.9686684 L150.130146,39.0823522 L164.010063,39.0823522 L164.010063,46.9686684 L161.907045,46.9686684 L161.907045,68.5245993 Z M192.87398,54.6446828 L192.87398,68.5245993 L187.248408,74.1501715 L171.843803,74.1501715 L166.218231,68.5245993 L166.218231,44.7079244 L171.843803,39.0823522 L187.248408,39.0823522 L192.87398,44.7079244 L192.87398,52.4890897 L183.200099,52.4890897 L183.200099,48.1253281 L182.096014,46.9686684 L176.996197,46.9686684 L175.839537,48.1253281 L175.839537,65.1071956 L176.996197,66.2638553 L182.096014,66.2638553 L183.252674,65.1071956 L183.252674,61.8475183 L180.571327,61.8475183 L180.571327,54.6446828 L192.87398,54.6446828 Z M210.854781,44.7079244 L216.480353,39.0823522 L231.884957,39.0823522 L237.51053,44.7079244 L237.51053,68.5245993 L231.884957,74.1501715 L216.480353,74.1501715 L210.854781,68.5245993 L210.854781,44.7079244 Z M227.889224,48.1253281 L226.732564,46.9686684 L221.632746,46.9686684 L220.476087,48.1253281 L220.476087,65.1071956 L221.632746,66.2638553 L226.732564,66.2638553 L227.889224,65.1071956 L227.889224,48.1253281 Z M253.598615,60.5857077 L252.179078,60.5857077 L252.179078,66.2638553 L256.227387,66.2638553 L256.227387,74.1501715 L240.454754,74.1501715 L240.454754,66.2638553 L242.557772,66.2638553 L242.557772,46.9686684 L240.454754,46.9686684 L240.454754,39.0823522 L266.21672,39.0823522 L266.21672,48.3882053 L258.330404,48.3882053 L258.330404,46.9686684 L252.179078,46.9686684 L252.179078,52.6993915 L253.598615,52.6993915 L253.598615,51.2798546 L261.484931,51.2798546 L261.484931,62.0052446 L253.598615,62.0052446 L253.598615,60.5857077 Z M308.329649,66.2638553 L309.486309,66.2638553 L309.486309,74.1501715 L291.505508,74.1501715 L291.505508,66.2638553 L292.662167,66.2638553 L286.247964,46.9686684 L283.461465,46.9686684 L283.461465,39.0823522 L298.077438,39.0823522 L298.077438,46.9686684 L296.710476,46.9686684 L300.548484,58.5352655 L304.386491,46.9686684 L303.282407,46.9686684 L303.282407,39.0823522 L318.949888,39.0823522 L318.949888,46.9686684 L317.793228,46.9686684 L321.683811,58.5352655 L325.521818,46.9686684 L324.365158,46.9686684 L324.365158,39.0823522 L338.770829,39.0823522 L338.770829,46.9686684 L335.931756,46.9686684 L329.570127,66.2638553 L330.674211,66.2638553 L330.674211,74.1501715 L312.798561,74.1501715 L312.798561,66.2638553 L313.902646,66.2638553 L311.116147,57.8517847 L308.329649,66.2638553 Z M367.845048,39.0823522 L367.845048,46.9686684 L366.057483,46.9686684 L373.786073,66.2638553 L375.889091,66.2638553 L375.889091,74.1501715 L362.377203,74.1501715 L362.377203,66.2638553 L363.586438,66.2638553 L363.060683,64.6340167 L353.75483,64.6340167 L353.1765,66.2638553 L354.33316,66.2638553 L354.33316,74.1501715 L340.926422,74.1501715 L340.926422,66.2638553 L343.02944,66.2638553 L350.75803,46.9686684 L349.233342,46.9686684 L349.233342,39.0823522 L367.845048,39.0823522 Z M356.120725,57.9043602 L360.642213,57.9043602 L358.381469,52.4365143 L356.120725,57.9043602 Z M389.769007,66.2638553 L391.872025,66.2638553 L391.872025,74.1501715 L378.044684,74.1501715 L378.044684,66.2638553 L380.147702,66.2638553 L380.147702,46.9686684 L378.044684,46.9686684 L378.044684,39.0823522 L399.758341,39.0823522 L405.331338,44.7079244 L405.331338,53.6983249 L403.018019,56.0116443 L405.331338,58.2723883 L405.331338,66.2638553 L407.434356,66.2638553 L407.434356,74.1501715 L395.710032,74.1501715 L395.710032,61.1114621 L394.605948,59.9548024 L389.769007,59.9548024 L389.769007,66.2638553 Z M389.769007,52.0684862 L394.605948,52.0684862 L395.710032,50.9118265 L395.710032,48.1253281 L394.605948,46.9686684 L389.769007,46.9686684 L389.769007,52.0684862 Z" id="tug-of-war" fill="#FFFFFF" sketch:type="MSShapeGroup"></path>
            </g>
        </g>
    </g>
</svg>