<?xml version="1.0" encoding="UTF-8" standalone="no"?>
<svg width="137px" height="106px" viewBox="0 0 137 106" version="1.1" xmlns="http://www.w3.org/2000/svg" xmlns:xlink="http://www.w3.org/1999/xlink" xmlns:sketch="http://www.bohemiancoding.com/sketch/ns">
    <!-- Generator: Sketch 3.3.2 (12043) - http://www.bohemiancoding.com/sketch -->
    <title>Page 1</title>
    <desc>Created with Sketch.</desc>
    <defs></defs>
    <g id="Page-2" stroke="none" stroke-width="1" fill="none" fill-rule="evenodd" sketch:type="MSPage">
        <g id="iPhone-6-Copy" sketch:type="MSArtboardGroup" transform="translate(-115.000000, -327.000000)">
            <g id="eagle-hit" sketch:type="MSLayerGroup" transform="translate(62.000000, 234.000000)">
                <g id="Imported-EPS" transform="translate(37.934339, 73.000000)" sketch:type="MSShapeGroup">
                    <g id="Page-1" transform="translate(15.000000, 20.000000)">
                        <path d="M136.245271,47.1092669 L136.245271,47.0315486 C136.213256,18.9832012 119.261194,0.785154449 92.9907,0.418483336 C92.9346734,0.418483336 92.8886515,0.386598891 92.826622,0.386598891 L92.248347,0.386598891 L92.1843165,0.386598891 L28.6841171,0.386598891 L0.930918305,67.5033548 C0.78885074,67.8540837 0.782847885,68.2107909 0.820865966,68.5615198 C0.78885074,68.6232959 0.72682124,68.6631515 0.696806966,68.7249276 C0.188565257,69.7910637 0.632776515,71.0604632 1.70528658,71.5666287 L72.7770868,105.451822 C73.0752286,105.591317 73.3873771,105.661064 73.6995255,105.661064 C74.4979052,105.661064 75.2622688,105.218667 75.6304438,104.455433 C75.8405438,104.019015 75.8485476,103.560676 75.7625067,103.124258 L75.8405438,103.124258 L75.8405438,51.7165692 C84.5006623,43.5282452 94.2172834,38.8332608 104.041956,38.1876008 C114.640996,37.486143 124.731795,41.5892725 133.211828,50.0426358 L136.15923,47.1092669 L136.245271,47.1092669" id="Fill-1" fill="#FFFFFF"></path>
                        <path d="M78.6258684,20.7587662 C77.4473079,26.1831074 72.0767538,29.6246346 66.6321645,28.4508885 C61.1855742,27.2771424 57.7279298,21.9325123 58.9044893,16.510164 C60.0830498,11.0858228 65.453604,7.64031004 70.8981933,8.81405616 C76.3427826,9.98780228 79.8044289,15.3344251 78.6258684,20.7587662" id="Fill-2" fill="#417505"></path>
                        <path d="M72.0907604,21.388484 C71.6425473,23.451009 69.6015766,24.760264 67.5305917,24.3138818 C65.4596068,23.8674996 64.1469826,21.8348662 64.5931948,19.774334 C65.0434089,17.711809 67.0803776,16.402554 69.1533635,16.8469434 C71.2243484,17.2953184 72.5389736,19.325959 72.0907604,21.388484" id="Fill-3" fill="#FFFFFF"></path>
                        <path d="M84.8168127,15.972114 L58.298201,13.0347595 L59.2566568,4.4498728 L85.7732676,7.38722726 L84.8168127,15.972114" id="Fill-4" fill="#FFFFFF"></path>
                    </g>
                </g>
            </g>
        </g>
    </g>
</svg>