<?xml version="1.0" encoding="UTF-8" standalone="no"?>
<svg width="252px" height="252px" viewBox="0 0 252 252" version="1.1" xmlns="http://www.w3.org/2000/svg" xmlns:xlink="http://www.w3.org/1999/xlink" xmlns:sketch="http://www.bohemiancoding.com/sketch/ns">
    <!-- Generator: Sketch 3.3.2 (12043) - http://www.bohemiancoding.com/sketch -->
    <title>eagle-hit</title>
    <desc>Created with Sketch.</desc>
    <defs>
        <circle id="path-1" cx="126" cy="126" r="126"></circle>
    </defs>
    <g id="Page-2" stroke="none" stroke-width="1" fill="none" fill-rule="evenodd" sketch:type="MSPage">
        <g id="iPhone-6-Copy" sketch:type="MSArtboardGroup" transform="translate(-62.000000, -234.000000)">
            <g id="eagle-hit" sketch:type="MSLayerGroup" transform="translate(62.000000, 234.000000)">
                <mask id="mask-2" sketch:name="Mask Copy" fill="white">
                    <use xlink:href="#path-1"></use>
                </mask>
                <use id="Mask-Copy" fill="#4563A7" sketch:type="MSShapeGroup" xlink:href="#path-1"></use>
                <g id="Fill-1-Copy-+-Fill-2-Copy" mask="url(#mask-2)" fill="#344A7A" sketch:type="MSShapeGroup">
                    <g transform="translate(-3.000000, -47.000000)">
                        <path d="M0.685876597,332.749897 L0.685876597,311.434612 C0.950800852,311.195284 1.23800845,310.986187 1.46579379,310.721667 C16.8338765,293.069356 32.1970073,275.412007 47.5576622,257.752138 C73.1884648,228.279555 98.8242193,198.801934 124.457498,169.329352 C124.72985,169.014447 124.989822,168.699542 125.257222,168.384637 C121.496288,171.566437 117.854199,174.856563 114.212109,178.14669 C96.3854306,194.242111 78.5587518,210.340051 60.7271212,226.435472 C42.1873752,243.175818 23.6451533,259.918684 5.09550367,276.648953 C3.65203787,277.953919 2.1565776,279.195904 0.685876597,280.463082 L0.685876597,255.32863 C0.968132345,255.182514 1.27514737,255.069148 1.53511977,254.885243 C42.2393697,226.238971 82.9460955,197.587661 123.645394,168.933831 C123.900414,168.754965 124.138103,168.555945 124.380744,168.369522 C123.925173,168.389676 123.546356,168.555945 123.182395,168.752446 C108.779924,176.463838 94.3774533,184.180269 79.9774583,191.89418 C55.3023638,205.105072 30.6297451,218.321002 5.9496987,231.526855 C4.21407344,232.456454 2.43883335,233.318034 0.685876597,234.214884 L0.685876597,215.51205 C1.02507868,215.393646 1.37170855,215.287837 1.7084347,215.156837 C41.6723823,199.701303 81.6338539,184.248288 121.597801,168.790235 C122.5956,168.404791 123.593399,167.999193 124.586246,167.601154 C124.343605,167.487788 124.152959,167.523057 123.964788,167.570923 C109.861905,171.110454 95.756545,174.652505 81.6462335,178.197075 C58.3229954,184.061864 34.9997574,189.931692 11.6740433,195.806559 C8.00719454,196.7286 4.34777353,197.680873 0.685876597,198.620549 L0.685876597,182.331147 C1.0448861,182.331147 1.40141968,182.368935 1.75547733,182.323589 C5.74172078,181.842414 9.72796423,181.348643 13.7092558,180.852353 C20.5007253,180.008408 27.2971466,179.154386 34.088616,178.31296 C41.3430839,177.413591 48.5950759,176.526819 55.8445919,175.627451 C62.6682484,174.780986 69.4943808,173.926964 76.3205132,173.07798 C83.0178974,172.246631 89.7128057,171.420321 96.407714,170.591491 C103.233846,169.742507 110.059979,168.896043 116.886111,168.047059 C119.550209,167.714519 122.219259,167.374422 124.883357,167.036844 C124.507016,166.880651 124.148007,166.880651 123.786521,166.880651 C111.23852,166.903324 98.6929951,166.931036 86.1474699,166.948671 C68.0979577,166.971344 50.0509213,166.996536 32.0063609,167.014171 C22.355195,167.021729 12.7065051,167.01669 3.05533932,167.01669 C2.26799434,167.01669 1.47569751,167.039363 0.685876597,167.051959 L0.685876597,151.364655 C3.19151534,151.699714 5.69715408,152.052408 8.20526875,152.362274 C15.0314012,153.2037 21.8600095,154.027491 28.6886179,154.86136 C35.5469374,155.700266 42.4077328,156.54925 49.2660522,157.385638 C57.2063521,158.353026 65.1417001,159.310337 73.079524,160.280244 C80.4949272,161.18717 87.9103304,162.101654 95.3257336,163.011099 C103.394782,164.00116 111.461354,164.988702 119.530402,165.973725 C121.077857,166.160149 122.630263,166.326418 124.177718,166.507804 C123.910318,166.218091 123.605779,166.124879 123.293812,166.046783 C98.3934079,159.836858 73.4855761,153.624413 48.5802203,147.417007 C32.6154391,143.436609 16.6506578,139.45873 0.685876597,135.475812 L0.685876597,118.382772 C0.903758227,118.45583 1.12659171,118.516292 1.33952149,118.599427 C42.0041566,134.246423 82.6687916,149.898458 123.330951,165.545454 C123.652821,165.671416 123.984596,165.777224 124.311418,165.89059 C124.177718,165.613474 123.987072,165.490031 123.788997,165.384223 C119.626963,163.164773 115.464929,160.945323 111.297943,158.725873 C76.0407334,139.91975 40.7810483,121.113628 5.51641137,102.317582 C3.92438991,101.471118 2.29770547,100.695192 0.685876597,99.8814775 L0.685876597,78.5661924 C0.992891621,78.7500968 1.31723814,78.9113282 1.6093976,79.1153866 C22.8280972,93.9940148 44.041845,108.877682 65.2555928,123.75631 C84.7634264,137.440819 104.273736,151.11777 123.786521,164.799759 C124.016783,164.960991 124.264376,165.102068 124.50454,165.253222 C124.091061,164.608297 123.583495,164.13468 123.066027,163.673659 C116.581572,157.836581 110.092166,152.004542 103.610187,146.167464 C89.0393534,133.052304 74.4685194,119.934624 59.8976854,106.819463 C42.9846239,91.5956989 26.0715624,76.3769733 9.14859717,61.1632861 C6.34089526,58.6364889 3.50595815,56.1424419 0.685876597,53.6307601 L0.685876597,22.4652487 C42.1972789,70.0284898 83.7086812,117.591731 125.220084,165.157491 C125.140854,164.729221 124.937828,164.3992 124.71747,164.079257 C99.3763512,126.827263 74.037708,89.5727496 48.6965889,52.3182363 C37.0448736,35.1949657 25.3832545,18.0691758 13.7290633,0.945905139 L40.8033317,0.945905139 C51.1353776,20.8957625 61.4748513,40.8431006 71.8068972,60.8005156 C88.7818569,93.5984943 105.751865,126.404031 122.7293,159.207048 C123.625586,160.945323 124.536728,162.67856 125.442917,164.419354 C125.529575,164.006199 125.433013,163.673659 125.311693,163.351197 C120.892162,151.533444 116.465204,139.72073 112.048149,127.902978 C99.349116,93.9587455 86.6525592,60.0069552 73.9535265,26.0627226 C70.8190021,17.6862514 67.6671462,9.31733789 64.5202423,0.945905139 L86.2638385,0.945905139 C86.3282127,1.13232886 86.4099183,1.31623334 86.4594368,1.51021478 C88.4649382,9.75568555 90.4704395,18.0011563 92.4759409,26.2491463 C97.3584702,46.3174079 102.243475,66.3806311 107.123529,86.4438542 C112.894916,110.180128 118.661351,133.918922 124.435215,157.655196 C125.026961,160.083743 125.633563,162.507251 126.232738,164.93076 C126.094086,162.41152 125.794499,159.919992 125.497387,157.436022 C124.672904,150.58621 123.843468,143.746475 123.02146,136.901701 C122.137554,129.522849 121.258599,122.146516 120.372217,114.770183 C119.480883,107.361099 118.579646,99.9520162 117.690788,92.5404137 C116.86878,85.7309094 116.064103,78.9163666 115.244571,72.1043431 C114.345809,64.6272404 113.43962,57.1526569 112.543334,49.6755541 C111.708947,42.8005496 110.874559,35.9230259 110.047599,29.0429829 C109.225591,22.1982093 108.420915,15.3509164 107.593955,8.50866202 C107.289416,5.98438407 106.942786,3.46514461 106.615963,0.945905139 L126.579368,0.945905139 C126.547181,1.37669509 126.485283,1.80748504 126.485283,2.23827499 C126.502614,13.3607172 126.529849,24.4831595 126.542229,35.6030825 C126.564512,53.429221 126.566988,71.2553594 126.581844,89.0764594 C126.58432,95.878406 126.601651,102.680353 126.611555,109.482299 C126.633838,125.696124 126.656122,141.912469 126.678405,158.128813 C126.683357,159.937627 126.675929,161.746441 126.683357,163.557774 C126.683357,163.822294 126.720496,164.084295 126.742779,164.348815 C127.33205,160.859669 127.74553,157.37808 128.156534,153.89901 C129.045392,146.321138 129.931774,138.738227 130.820632,131.162874 C131.645116,124.149311 132.474551,117.138268 133.296559,110.127224 C134.116091,103.143893 134.928196,96.16308 135.747728,89.1847867 C136.641538,81.5741643 137.545251,73.9635418 138.436585,66.3529194 C139.327919,58.7750471 140.219253,51.1971748 141.108111,43.6167832 C141.930119,36.6410091 142.752127,29.6576773 143.574135,22.6819033 C144.430806,15.4340513 145.289953,8.19123785 146.144148,0.945905139 L166.503701,0.945905139 C166.471513,1.17767517 166.471513,1.41448368 166.419519,1.63617675 C164.983481,7.64960136 163.542491,13.663026 162.096549,19.6764506 C156.11966,44.498517 150.142771,69.3231027 144.168358,94.1476885 C139.09023,115.268992 134.017054,136.387777 128.938927,157.50908 C128.352132,159.955262 127.762861,162.396405 127.176066,164.842586 C127.433563,164.610816 127.554883,164.338738 127.658872,164.064141 C145.621727,115.659474 163.582106,67.2573264 181.549913,18.8576977 C183.77082,12.8795425 186.011534,6.91650268 188.242345,0.945905139 L211.959256,0.945905139 C211.795844,1.30867562 211.652241,1.68152306 211.471498,2.03421659 C199.913868,24.5033134 188.353762,46.9648525 176.793656,69.43143 C161.272065,99.6018419 145.757903,129.779811 130.238789,159.950223 C129.456396,161.474363 128.686382,163.001022 127.911417,164.530201 C128.265475,164.374008 128.463549,164.122084 128.636864,163.862602 C139.946901,147.152487 151.256938,130.442371 162.566976,113.729737 C183.857477,82.2619167 205.145503,50.7966157 226.436004,19.3287955 C230.580707,13.2045244 234.705603,7.07521476 238.837926,0.945905139 L252.673409,0.945905139 C252.673409,7.55135102 252.66103,14.1593161 252.685789,20.7672813 C252.688265,21.4575529 252.505046,21.9538431 252.059379,22.4652487 C231.303678,46.3577158 210.562832,70.2627791 189.814559,94.1628039 C170.655831,116.233861 151.494627,138.294841 132.3359,160.363379 C130.934524,161.98325 129.535625,163.60564 128.131774,165.225511 C128.176341,165.268338 128.220908,165.313684 128.265475,165.35903 C169.675364,127.900459 211.092681,90.439368 252.673409,52.829642 L252.673409,54.0136845 C252.673409,61.6595763 252.658554,69.3029488 252.685789,76.9412829 C252.688265,77.7247664 252.465431,78.1983834 251.824166,78.646808 C238.662135,87.8999746 225.522387,97.1758143 212.375211,106.449135 C184.835469,125.872471 157.298202,145.290769 129.760935,164.714105 C129.491059,164.905567 129.22861,165.114664 128.963686,165.313684 C129.003301,165.381704 129.050344,165.447204 129.092434,165.512704 C170.252255,143.429051 211.4096,121.342879 252.673409,99.2012828 C252.673409,105.219746 252.658554,111.049266 252.685789,116.881305 C252.690741,117.69502 252.487715,118.082983 251.690466,118.392849 C211.568059,133.931518 171.455556,149.502937 131.343053,165.066799 C130.476478,165.401858 129.617331,165.75707 128.758184,166.102206 C128.775516,166.160149 128.795323,166.22061 128.81513,166.283591 C170.06656,155.866536 211.313038,145.449481 252.618939,135.01983 L252.618939,151.132885 C211.149627,156.319999 169.722406,161.502075 128.287758,166.68415 C128.295186,166.706824 128.300138,166.726977 128.302613,166.747131 L252.618939,166.747131 L252.618939,182.381532 C211.394744,177.310302 170.22502,172.24915 129.057771,167.18296 C129.045392,167.263576 129.035488,167.341672 129.023108,167.419768 C170.232448,177.736054 211.436835,188.04982 252.601607,198.35351 L252.601607,215.47678 C211.211525,199.51236 169.910577,183.583209 128.61458,167.651538 C128.718569,167.905982 128.886932,168.006751 129.060247,168.099963 C142.628331,175.347815 156.196414,182.600705 169.764497,189.846038 C197.135877,204.467704 224.507257,219.091889 251.883588,233.698439 C252.497618,234.023421 252.688265,234.401307 252.685789,235.08654 C252.66103,241.520678 252.673409,247.957335 252.670933,254.391472 C252.670933,254.676147 252.643698,254.955782 252.616463,255.386572 C211.186766,226.281798 169.87839,197.267718 128.57249,168.251117 C129.211279,169.112697 129.968913,169.805488 130.733974,170.493241 C154.025025,191.481024 177.316076,212.46377 200.602176,233.454073 C217.752926,248.912127 234.906153,264.37018 252.03462,279.853426 C252.371346,280.155734 252.643698,280.73516 252.646174,281.181065 C252.680837,290.97083 252.673409,300.758075 252.668457,310.542801 C252.668457,310.787167 252.626367,311.034053 252.594179,311.411939 C252.358966,311.160015 252.220314,311.021456 252.091566,310.875341 C245.86956,303.733297 239.642602,296.591253 233.41812,289.44669 C215.207673,268.542041 196.994749,247.637391 178.781826,226.730223 C163.406315,209.08547 148.033281,191.440717 132.650342,173.801002 C131.239064,172.178612 129.77579,170.59401 128.3348,168.991774 C128.163961,168.664273 127.988171,168.339291 127.814856,168.014309 C127.688583,168.127675 127.564787,168.236002 127.440991,168.349368 C127.483081,168.523195 127.527648,168.694504 127.567263,168.865812 C127.668776,169.248736 127.738102,169.641738 127.871802,170.007027 C147.389539,222.288804 166.904801,274.565542 186.422538,326.8448 C187.143033,328.777056 187.851148,330.709313 188.591451,332.712108 L166.847854,332.712108 C153.614021,278.130266 140.370285,223.545904 127.133976,168.959024 C127.069601,168.97162 127.002751,168.984216 126.940853,168.999331 C133.457495,223.550943 139.974136,278.107593 146.493254,332.669281 L126.63879,332.669281 L126.63879,168.994293 C126.569464,168.991774 126.500138,168.989255 126.430812,168.989255 C119.976069,223.555981 113.516374,278.125227 107.06163,332.709589 L86.6203721,332.709589 C99.7700236,278.193247 112.90482,223.732328 126.042092,169.26889 C125.725173,169.485545 125.613756,169.762661 125.512243,170.039777 C118.225588,189.621826 110.936457,209.198836 103.649802,228.780884 C90.8814435,263.097964 78.108133,297.410006 65.3620576,331.734643 C65.0698982,332.520646 64.7158405,332.775089 63.8913566,332.770051 C56.6765036,332.734781 49.4666024,332.749897 42.2517493,332.749897 L41.1152986,332.749897 C69.3210659,278.029496 97.4575073,223.435058 125.593949,168.845658 C125.227511,169.052236 125.014582,169.349506 124.806604,169.651815 C107.071534,195.814116 89.3389406,221.97138 71.6038711,248.131162 C52.6531212,276.084644 33.7048472,304.035605 14.7664769,331.994125 C14.3901359,332.550877 14.0014153,332.77257 13.3304389,332.765012 C9.11641011,332.734781 4.89742946,332.749897 0.685876597,332.749897" id="Fill-1-Copy"></path>
                        <path d="M127.851995,168.193175 C128.005502,168.513118 128.116919,168.860773 128.312517,169.150486 C151.531766,203.339085 174.755967,237.525164 197.982644,271.711244 C211.39722,291.459562 224.811796,311.212919 238.226372,330.966275 C238.407114,331.233315 238.56805,331.51295 238.840402,331.951298 L237.763373,331.951298 C229.46654,331.951298 221.162278,331.941221 212.865445,331.966413 C212.112763,331.971452 211.719091,331.767393 211.350177,331.056968 C194.867927,299.090338 178.358442,267.133786 161.848957,235.179752 C150.387888,213.000368 138.926819,190.818465 127.468226,168.63908 C127.361761,168.437541 127.215681,168.256156 127.084457,168.067213 C127.044842,167.895905 127.000276,167.724596 126.958185,167.550769 C127.081981,167.437403 127.205778,167.329076 127.33205,167.21571 C127.505365,167.540692 127.681156,167.865674 127.851995,168.193175" id="Fill-2-Copy"></path>
                    </g>
                </g>
                <g id="Imported-EPS" mask="url(#mask-2)">
                    <g transform="translate(58.934339, 83.000000)" id="Page-1">
                        <g>
                            <path d="M136.245271,47.1092669 L136.245271,47.0315486 C136.213256,18.9832012 119.261194,0.785154449 92.9907,0.418483336 C92.9346734,0.418483336 92.8886515,0.386598891 92.826622,0.386598891 L92.248347,0.386598891 L92.1843165,0.386598891 L28.6841171,0.386598891 L0.930918305,67.5033548 C0.78885074,67.8540837 0.782847885,68.2107909 0.820865966,68.5615198 C0.78885074,68.6232959 0.72682124,68.6631515 0.696806966,68.7249276 C0.188565257,69.7910637 0.632776515,71.0604632 1.70528658,71.5666287 L72.7770868,105.451822 C73.0752286,105.591317 73.3873771,105.661064 73.6995255,105.661064 C74.4979052,105.661064 75.2622688,105.218667 75.6304438,104.455433 C75.8405438,104.019015 75.8485476,103.560676 75.7625067,103.124258 L75.8405438,103.124258 L75.8405438,51.7165692 C84.5006623,43.5282452 94.2172834,38.8332608 104.041956,38.1876008 C114.640996,37.486143 124.731795,41.5892725 133.211828,50.0426358 L136.15923,47.1092669 L136.245271,47.1092669" id="Fill-1" fill="#FFFFFF" sketch:type="MSShapeGroup"></path>
                            <path d="M78.6258684,20.7587662 C77.4473079,26.1831074 72.0767538,29.6246346 66.6321645,28.4508885 C61.1855742,27.2771424 57.7279298,21.9325123 58.9044893,16.510164 C60.0830498,11.0858228 65.453604,7.64031004 70.8981933,8.81405616 C76.3427826,9.98780228 79.8044289,15.3344251 78.6258684,20.7587662" id="Fill-2" fill="#4664A6" sketch:type="MSShapeGroup"></path>
                            <path d="M72.0907604,21.388484 C71.6425473,23.451009 69.6015766,24.760264 67.5305917,24.3138818 C65.4596068,23.8674996 64.1469826,21.8348662 64.5931948,19.774334 C65.0434089,17.711809 67.0803776,16.402554 69.1533635,16.8469434 C71.2243484,17.2953184 72.5389736,19.325959 72.0907604,21.388484" id="Fill-3" fill="#FFFFFF" sketch:type="MSShapeGroup"></path>
                            <path d="M84.8168127,15.972114 L58.298201,13.0347595 L59.2566568,4.4498728 L85.7732676,7.38722726 L84.8168127,15.972114" id="Fill-4" fill="#FFFFFF" sketch:type="MSShapeGroup"></path>
                        </g>
                    </g>
                </g>
            </g>
        </g>
    </g>
</svg>