<?xml version="1.0" encoding="UTF-8" standalone="no"?>
<svg width="139px" height="39px" viewBox="0 0 139 39" version="1.1" xmlns="http://www.w3.org/2000/svg" xmlns:xlink="http://www.w3.org/1999/xlink" xmlns:sketch="http://www.bohemiancoding.com/sketch/ns">
    <!-- Generator: Sketch 3.3.2 (12043) - http://www.bohemiancoding.com/sketch -->
    <title>groepje-iconen</title>
    <desc>Created with Sketch.</desc>
    <defs></defs>
    <g id="Page-1" stroke="none" stroke-width="1" fill="none" fill-rule="evenodd" sketch:type="MSPage">
        <g id="team-kiezen" sketch:type="MSArtboardGroup" transform="translate(-169.000000, -494.000000)" fill="#000000">
            <g id="Group-Copy" sketch:type="MSLayerGroup" transform="translate(169.000000, 258.000000)">
                <g id="groepje-iconen" transform="translate(0.000000, 236.000000)" sketch:type="MSShapeGroup">
                    <path d="M19.8184737,16.7415558 C19.8184737,13.8724649 16.9323947,10.2870104 11.8808421,10.2870104 C7.49502632,10.2870104 5.39356579,13.8161013 5.39356579,18.1706467 C5.39356579,22.4742831 9.72268421,24.6251922 11.8808421,24.6251922 C14.0536316,24.6324649 19.8184737,25.343374 19.8184737,16.7415558" id="Fill-1"></path>
                    <path d="M49.6028816,16.7415558 C49.6028816,13.8724649 46.7168026,10.2870104 41.66525,10.2870104 C37.28675,10.2870104 35.1779737,13.8161013 35.1779737,18.1706467 C35.1779737,22.4742831 39.5016053,24.6251922 41.66525,24.6251922 C43.8307237,24.6251922 49.6028816,25.343374 49.6028816,16.7415558" id="Fill-2"></path>
                    <path d="M77.2382763,16.7415558 C77.2382763,13.8724649 74.3503684,10.2870104 69.3006447,10.2870104 C64.913,10.2870104 62.8133684,13.8161013 62.8133684,18.1706467 C62.8133684,22.4742831 67.1351711,24.6251922 69.3006447,24.6251922 C71.4642895,24.6324649 77.2382763,25.343374 77.2382763,16.7415558" id="Fill-3"></path>
                    <path d="M33.2063684,8.22701036 C33.2063684,5.563374 30.5269605,2.23791945 25.8485132,2.23791945 C21.7754474,2.23791945 19.8257895,5.50701036 19.8257895,9.55428309 C19.8257895,13.5524649 23.8403289,15.5415558 25.8485132,15.5415558 C27.8566974,15.5415558 33.2063684,16.2161013 33.2063684,8.22701036" id="Fill-4"></path>
                    <path d="M62.9834605,5.99610127 C62.9834605,3.33246491 60.3058816,0.00155581551 55.6182895,0.00155581551 C51.5525395,0.00155581551 49.6028816,3.27610127 49.6028816,7.32519218 C49.6028816,11.3161013 53.6174211,13.3124649 55.6182895,13.3124649 C57.6337895,13.3124649 62.9834605,13.9797376 62.9834605,5.99610127" id="Fill-5"></path>
                    <path d="M91.6046579,6.72701036 C91.6046579,4.06519218 88.92525,0.734283088 84.2449737,0.734283088 C80.1737368,0.734283088 78.22225,4.00701036 78.22225,8.04882854 C78.22225,12.0470104 82.2386184,14.0361013 84.2449737,14.0361013 C86.2531579,14.043374 91.6046579,14.7106467 91.6046579,6.72701036" id="Fill-6"></path>
                    <path d="M106.029566,16.7415558 C106.029566,13.8724649 103.141658,10.2870104 98.0919342,10.2870104 C93.7042895,10.2870104 91.6046579,13.8161013 91.6046579,18.1706467 C91.6046579,22.4742831 95.9264605,24.6251922 98.0919342,24.6251922 C100.262895,24.6324649 106.029566,25.343374 106.029566,16.7415558" id="Fill-7"></path>
                    <path d="M24.2975658,34.0924649 C24.2975658,29.6542831 19.0686053,26.0524649 12.6032763,26.0524649 C6.14343421,26.0524649 0.914473684,29.6542831 0.914473684,34.0924649 L0.914473684,38.5961013 L24.2975658,38.5961013 L24.2975658,34.0924649" id="Fill-8"></path>
                    <path d="M54.0819737,34.0924649 C54.0819737,29.6542831 48.8530132,26.0524649 42.3876842,26.0524649 C35.9278421,26.0524649 30.6988816,29.6542831 30.6988816,34.0924649 L30.6988816,38.5961013 L54.0819737,38.5961013 L54.0819737,34.0924649" id="Fill-9"></path>
                    <path d="M81.7173684,34.0924649 C81.7173684,29.6542831 76.4792632,26.0524649 70.02125,26.0524649 C63.5632368,26.0524649 58.3269605,29.6542831 58.3269605,34.0924649 L58.3269605,38.5961013 L81.7100526,38.5961013 L81.7100526,34.0924649 L81.7173684,34.0924649" id="Fill-10"></path>
                    <path d="M110.508658,34.0924649 C110.508658,29.6542831 105.277868,26.0524649 98.8198553,26.0524649 C92.3618421,26.0524649 87.1328816,29.6542831 87.1328816,34.0924649 L87.1328816,38.5961013 L110.515974,38.5961013 L110.515974,34.0924649 L110.508658,34.0924649" id="Fill-11"></path>
                    <path d="M119.181526,6.72701036 C119.181526,4.06519218 116.502118,0.734283088 111.816355,0.734283088 C107.743289,0.734283088 105.793632,4.00701036 105.793632,8.04882854 C105.793632,12.0470104 109.808171,14.0361013 111.816355,14.0361013 C113.822711,14.043374 119.181526,14.7106467 119.181526,6.72701036" id="Fill-12"></path>
                    <path d="M133.606434,16.7415558 C133.606434,13.8724649 130.720355,10.2870104 125.676118,10.2870104 C121.288474,10.2870104 119.188842,13.8161013 119.188842,18.1706467 C119.188842,22.4742831 123.510645,24.6251922 125.676118,24.6251922 C127.832447,24.6324649 133.606434,25.343374 133.606434,16.7415558" id="Fill-13"></path>
                    <path d="M138.085526,34.0924649 C138.085526,29.6542831 132.84925,26.0524649 126.391237,26.0524649 C119.931395,26.0524649 114.702434,29.6542831 114.702434,34.0924649 L114.702434,38.5961013 L138.085526,38.5961013 L138.085526,34.0924649" id="Fill-14"></path>
                </g>
            </g>
        </g>
    </g>
</svg>