<?xml version="1.0" encoding="UTF-8" standalone="no"?>
<svg width="88px" height="111px" viewBox="0 0 88 111" version="1.1" xmlns="http://www.w3.org/2000/svg" xmlns:xlink="http://www.w3.org/1999/xlink" xmlns:sketch="http://www.bohemiancoding.com/sketch/ns">
    <!-- Generator: Sketch 3.3.2 (12043) - http://www.bohemiancoding.com/sketch -->
    <title>rood-poppetje</title>
    <desc>Created with Sketch.</desc>
    <defs></defs>
    <g id="Page-1" stroke="none" stroke-width="1" fill="none" fill-rule="evenodd" sketch:type="MSPage">
        <g id="Artboard-4" sketch:type="MSArtboardGroup" transform="translate(-1219.000000, -601.000000)">
            <g id="rood-poppetje" sketch:type="MSLayerGroup" transform="translate(1219.000000, 601.000000)">
                <path d="M28.261,54.388 C30.741,54.082 32.891,53.057 34.965,51.769 C36.584,50.763 38.206,49.761 39.849,48.793 C42.858,47.019 45.525,44.892 47.628,42.042 C48.483,40.881 49.673,39.942 50.8,39.011 C51.956,38.056 53.214,37.225 54.442,36.36 C54.705,36.176 55.04,35.961 55.332,35.974 C56.44,36.023 58.1838573,35.5399996 58.4018573,34.8099996 C58.5028573,34.4749996 62.3880009,35.2139996 62.0920009,34.8099996 C61.8120009,34.4299996 62.8940015,35.2169996 62.7020015,34.8099996 C62.5580015,34.4999996 62.5100015,33.4060002 62.7020015,33.1310002 C63.4440015,32.0680002 61.1149997,32.5540002 60.8719997,30.9400002 C60.8489997,30.7960002 62.3650015,30.0693556 62.7020015,29.9643556 C63.3590015,29.7563556 60.3049997,29.0781874 60.8719997,28.7421874 C62.1819997,27.9641874 63.463,26.0884922 64.795,25.3544922 C65.494,24.9704922 65.6461347,26.124 66.1611347,26.455 C67.8081347,27.512 66.9550025,26.2055897 68.3600025,27.5795897 C68.8060025,28.0155897 68.3850025,28.5882267 68.3600025,29.2822267 C68.2760025,31.6002267 69.0584433,31.9580002 66.8774433,33.1310002 C65.6504433,33.7930002 65.849,36.027 64.599,36.626 C65.696,37.356 65.653,38.382 65.089,39.521 C64.941,39.818 64.757,40.173 64.795,40.474 C65.054,42.462 63.649,44.349 62.702,46.001 C61.566,47.985 60.997,49.764 59.741,51.682 C58.618,53.396 57.524,55.129 56.241,57.129 C56.382,57.129 56.515,57.127 56.65,57.125 C56.11,57.815 55.66,58.398 55.347,58.803 C55.174,58.971 55.013,58.176 54.867,58.429 C54.554,58.971 54.038,60.461 53.501,60.792 C52.491,61.418 52.018,62.309 51.968,63.426 C51.919,64.565 52.159,65.741 51.959,66.845 C51.325,70.345 49.39,72.998 46.392,74.92 C45.872,75.253 45.329,75.822 45.167,76.389 C44.301,79.427 43.646,82.529 42.721,85.548 C42.28,86.986 42.849,87.757 43.854,88.491 C47.751,91.339 51.702,94.117 55.53,97.055 C57.735,98.747 60.163,100.318 60.919,103.325 C61.189,104.396 61.648,105.425 62.092,106.441 C62.657,107.737 61.925,108.119 60.872,108.379 C58.941,108.856 56.927,109.148 55.114,109.913 C52.753,110.911 50.407,110.923 47.984,110.582 C46.936,110.434 46.706,109.812 47.377,108.988 C47.61,108.702 47.997,108.544 48.313,108.323 C49.496,107.5 50.726,106.733 51.845,105.829 C52.557,105.254 52.54,104.571 51.571,104.156 C51.334,104.055 51.071,103.989 50.862,103.847 C45.753,100.353 40.642,96.861 35.557,93.334 C35.011,92.954 34.528,92.405 34.177,91.836 C32.855,89.697 31.985,87.436 32.669,84.849 C32.689,84.773 32.569,84.66 32.472,84.488 C31.343,85.385 30.071,86.086 29.239,87.135 C28.184,88.463 27.511,90.09 26.628,91.561 C23.786,96.291 20.935,101.015 18.064,105.726 C17.263,107.041 16.384,108.31 15.332,109.92 C12.39,109.92 8.929,110.041 5.481,109.864 C4.01,109.788 2.549,109.152 1.122,108.657 C0.163,108.325 0.032,107.55 0.796,106.892 C1.157,106.581 1.713,106.489 2.188,106.323 C3.189,105.975 4.218,105.698 5.191,105.291 C6.801,104.619 8.377,103.867 9.874,103.19 C9.974,102.722 9.905,101.795 10.269,101.572 C11.675,100.71 12.173,99.265 12.886,97.974 C15.48,93.273 17.923,88.489 20.604,83.841 C21.867,81.652 23.431,79.606 25.061,77.667 C26.981,75.383 29.176,73.331 31.151,71.089 C33.107,68.869 35.608,67.106 36.304,63.856 C36.647,62.249 37.926,60.845 38.759,59.389 C38.373,58.9 42.313,55.44 41.828,55.25 C41.135,54.979 35.971,58.102 35.155,58.161 C34.035,58.242 32.821,57.984 31.81,58.336 C30.541,58.777 29.375,59.607 28.282,60.426 C27.523,60.994 26.864,60.793 26.259,60.438 C25.562,60.027 25.009,59.377 24.343,58.903 C23.903,58.592 23.38,58.223 22.882,58.202 C22.749,57.881 22.723,57.513 22.716,57.091 C23.001,57.029 23.317,56.93 23.479,56.735 C24.729,55.23 26.439,54.611 28.261,54.388 Z" id="Fill-1" fill="#FFFFFF" sketch:type="MSShapeGroup"></path>
                <path d="M56.453,36 C56.453,36 65.453,36.75 65.453,37.25 C65.453,37.75 65.703,39.625 64.703,42.375 C63.703,45.125 58.098,55.5 56.65,57.125 C55.203,58.75 52.107,62.352 51.968,63.426 C51.828,64.5 48.953,65.375 47.078,65.625 C45.203,65.875 35.828,67.625 35.578,66.5 C35.328,65.375 38.439,60.402 38.759,59.389 C39.078,58.375 42.203,53.625 43.328,52 C44.453,50.375 45.328,44.75 47.453,42.75 C49.578,40.75 49.147,40.146 50.8,39.011 C52.453,37.875 52.578,36.25 56.453,36" id="Fill-2" fill="#D94266" sketch:type="MSShapeGroup"></path>
                <path d="M49.869,39.834 C49.869,39.834 39.285,49.168 37.952,49.751 C36.619,50.334 37.786,56.501 38.869,56.584 C39.952,56.667 43.535,53.751 45.702,52.751 C47.869,51.751 58.285,43.084 57.952,41.334 C57.619,39.584 59.201,38.167 56.535,37.834 C53.869,37.501 49.869,39.834 49.869,39.834" id="Fill-3" fill="#9C2F49" sketch:type="MSShapeGroup"></path>
                <path d="M45.578,75.125 C45.578,75.125 43.238,85.221 42.721,85.548 C42.203,85.875 33.328,87.5 32.703,86.875 C32.078,86.25 31.953,81.5 33.203,80 C34.453,78.5 45.578,75.125 45.578,75.125" id="Fill-4" fill="#D94266" sketch:type="MSShapeGroup"></path>
                <path d="M51.828,62.25 C51.828,62.25 52.453,68 51.203,70 C49.953,72 46.256,75.777 45.167,76.389 C44.078,77 32.328,85.875 31.453,86 C30.578,86.125 23.453,80.25 23.578,79.375 C23.703,78.5 33.453,66 35.578,65.75 C35.578,65.75 36.535,60.501 38.702,60.001 C40.869,59.501 51.828,62.25 51.828,62.25" id="Fill-5" fill="#9C2F49" sketch:type="MSShapeGroup"></path>
                <g id="stier-hoofd" transform="translate(50.000000, 0.000000)" sketch:type="MSShapeGroup">
                    <path d="M36.768,13.208 C37.152,11.599 37.139,9.986 36.8,8.475 C35.456,14.079 29.82,17.535 24.214,16.19 L10.17,12.825 C4.564,11.482 1.107,5.846 2.447,0.242 C1.461,1.436 0.717,2.868 0.331,4.478 C-0.984,9.964 1.739,17.783 7.112,19.382 L7.243,31.943 L5.39,32.427 L7.289,36.235 L16.326,38.401 L19.408,35.804 L18.303,34.611 L24.127,23.45 C29.594,24.322 35.465,18.644 36.768,13.208" id="Fill-6" fill="#9C2F49"></path>
                    <path d="M9.803,20.284 C9.58,21.735 10.206,23.037 11.207,23.193 C12.001,23.32 12.786,22.674 13.19,21.682 L9.875,19.969 C9.851,20.07 9.822,20.174 9.803,20.284" id="Fill-7" fill="#FFFFFF"></path>
                    <path d="M17.646,22.749 C17.557,23.818 17.965,24.75 18.73,24.996 C19.693,25.31 20.842,24.434 21.296,23.039 C21.332,22.933 21.352,22.828 21.377,22.725 L17.646,22.749" id="Fill-8" fill="#FFFFFF"></path>
                </g>
            </g>
        </g>
    </g>
</svg>