<?xml version="1.0" encoding="UTF-8" standalone="no"?>
<svg width="194px" height="95px" viewBox="0 0 194 95" version="1.1" xmlns="http://www.w3.org/2000/svg" xmlns:xlink="http://www.w3.org/1999/xlink" xmlns:sketch="http://www.bohemiancoding.com/sketch/ns">
    <!-- Generator: Sketch 3.3.2 (12043) - http://www.bohemiancoding.com/sketch -->
    <title>logo-rood</title>
    <desc>Created with Sketch.</desc>
    <defs></defs>
    <g id="Page-1" stroke="none" stroke-width="1" fill="none" fill-rule="evenodd" sketch:type="MSPage">
        <g id="Artboard-4" sketch:type="MSArtboardGroup" transform="translate(-1024.000000, -85.000000)">
            <g id="logo-rood" sketch:type="MSLayerGroup" transform="translate(1024.000000, 85.000000)">
                <path d="M37.8624973,0.0612331081 C56.7239725,0.0612331081 75.5849087,3.21567278 75.5849087,3.21567278 L75.5849087,50.1938506 C75.5849087,50.1938506 73.2283697,82.4186874 37.8624973,94.8386497 C2.49716401,82.4135364 0.140625,50.1938506 0.140625,50.1938506 L0.140625,3.21567278 C0.140625,3.21567278 19.0015612,0.0612331081 37.8624973,0.0612331081" id="Imported-Layers" fill="#DA4266" sketch:type="MSShapeGroup"></path>
                <g id="Imported-Layers-Copy" transform="translate(10.128641, 13.501373)" sketch:type="MSShapeGroup">
                    <path d="M5.09717285,49.8237293 L5.09717285,49.8331086 C5.12591983,49.7752695 5.15171841,49.7135223 5.1804654,49.6556832 L5.09717285,49.8237293" id="Fill-1" fill="#000000"></path>
                    <path d="M54.5147159,7.31196153 C54.5147159,4.75922328 53.953044,2.34404838 52.957219,0.200873769 C52.9542706,9.08856105 46.1559769,16.2903156 37.7743878,16.2903156 L16.7787686,16.2903156 C8.39717941,16.2903156 1.60183419,9.08856105 1.59593738,0.200873769 C0.600112298,2.34404838 0.0384404189,4.75922328 0.0384404189,7.31196153 C0.0384404189,16.0097176 6.54263027,26.7537286 14.6736047,27.2211314 L19.1198052,46.0071277 L16.6600951,47.3999567 L20.6397099,52.4249274 L34.1493191,52.4249274 L37.6277044,47.4241866 L35.6581673,46.0321392 L40.112476,27.2062808 C48.1373077,26.55051 54.5147159,15.9245221 54.5147159,7.31196153" id="Fill-2" fill="#FFFFFF"></path>
                    <path d="M17.8580786,27.4217457 C18.0475976,29.9225163 19.519637,31.8385899 21.1477029,31.7008613 C22.4392093,31.5908517 23.4284656,30.211833 23.6906879,28.3979731 L17.8523603,26.869965 C17.8515435,27.0536031 17.8441914,27.2337764 17.8580786,27.4217457" id="Fill-3" fill="#DA4266"></path>
                    <path d="M31.068857,28.3979731 C31.3310794,30.211833 32.3203357,31.5908517 33.611842,31.7008613 C35.2399079,31.8385899 36.7119474,29.9225163 36.9014664,27.4217457 C36.9153535,27.2337764 36.9080015,27.0536031 36.9071846,26.869965 L31.068857,28.3979731" id="Fill-4" fill="#DA4266"></path>
                </g>
                <path d="M120.744519,20.0081951 L115.344519,20.0081951 L115.344519,18.5681951 L113.868519,18.5321951 L113.868519,31.7081951 L115.344519,31.7081951 L115.344519,37.1081951 L105.876519,37.1081951 L105.876519,31.7081951 L107.316519,31.7081951 L107.316519,18.5681951 L105.876519,18.5681951 L105.876519,20.0081951 L100.476519,20.0081951 L100.476519,13.1321951 L120.744519,13.1321951 L120.744519,20.0081951 Z M130.248519,31.7441951 L134.460519,31.7441951 L134.460519,30.7721951 L139.860519,30.7721951 L139.860519,37.1441951 L122.220519,37.1441951 L122.220519,31.7441951 L123.660519,31.7441951 L123.660519,18.5321951 L122.220519,18.5321951 L122.220519,13.1321951 L139.860519,13.1321951 L139.860519,19.5041951 L134.460519,19.5041951 L134.460519,18.5321951 L130.248519,18.5321951 L130.248519,22.4561951 L131.220519,22.4561951 L131.220519,21.4841951 L136.620519,21.4841951 L136.620519,28.8281951 L131.220519,28.8281951 L131.220519,27.8561951 L130.248519,27.8561951 L130.248519,31.7441951 Z M160.308519,13.1321951 L160.308519,18.5321951 L159.084519,18.5321951 L164.376519,31.7441951 L165.816519,31.7441951 L165.816519,37.1441951 L156.564519,37.1441951 L156.564519,31.7441951 L157.392519,31.7441951 L157.032519,30.6281951 L150.660519,30.6281951 L150.264519,31.7441951 L151.056519,31.7441951 L151.056519,37.1441951 L141.876519,37.1441951 L141.876519,31.7441951 L143.316519,31.7441951 L148.608519,18.5321951 L147.564519,18.5321951 L147.564519,13.1321951 L160.308519,13.1321951 Z M152.280519,26.0201951 L155.376519,26.0201951 L153.828519,22.2761951 L152.280519,26.0201951 Z M180.540519,34.1921951 L175.320519,25.5161951 L175.320519,31.7441951 L176.760519,31.7441951 L176.760519,37.1441951 L167.292519,37.1441951 L167.292519,31.7441951 L168.732519,31.7441951 L168.732519,18.5321951 L167.292519,18.5321951 L167.292519,13.1321951 L174.996519,13.1321951 L180.540519,22.4561951 L186.120519,13.1321951 L193.860519,13.1321951 L193.860519,18.5321951 L192.384519,18.5321951 L192.384519,31.7441951 L193.860519,31.7441951 L193.860519,37.1441951 L184.356519,37.1441951 L184.356519,31.7441951 L185.796519,31.7441951 L185.796519,25.5161951 L180.540519,34.1921951 Z M108.504519,61.7441951 L109.944519,61.7441951 L109.944519,67.1441951 L100.476519,67.1441951 L100.476519,61.7441951 L101.916519,61.7441951 L101.916519,48.5321951 L100.476519,48.5321951 L100.476519,43.1321951 L115.344519,43.1321951 L119.160519,46.9841951 L119.160519,53.1401951 L117.576519,54.7241951 L119.160519,56.2721951 L119.160519,61.7441951 L120.600519,61.7441951 L120.600519,67.1441951 L112.572519,67.1441951 L112.572519,58.2161951 L111.816519,57.4241951 L108.504519,57.4241951 L108.504519,61.7441951 Z M108.504519,52.0241951 L111.816519,52.0241951 L112.572519,51.2321951 L112.572519,49.3241951 L111.816519,48.5321951 L108.504519,48.5321951 L108.504519,52.0241951 Z M122.580519,46.9841951 L126.432519,43.1321951 L136.980519,43.1321951 L140.832519,46.9841951 L140.832519,63.2921951 L136.980519,67.1441951 L126.432519,67.1441951 L122.580519,63.2921951 L122.580519,46.9841951 Z M134.244519,49.3241951 L133.452519,48.5321951 L129.960519,48.5321951 L129.168519,49.3241951 L129.168519,60.9521951 L129.960519,61.7441951 L133.452519,61.7441951 L134.244519,60.9521951 L134.244519,49.3241951 Z M142.848519,46.9841951 L146.700519,43.1321951 L157.248519,43.1321951 L161.100519,46.9841951 L161.100519,63.2921951 L157.248519,67.1441951 L146.700519,67.1441951 L142.848519,63.2921951 L142.848519,46.9841951 Z M154.512519,49.3241951 L153.720519,48.5321951 L150.228519,48.5321951 L149.436519,49.3241951 L149.436519,60.9521951 L150.228519,61.7441951 L153.720519,61.7441951 L154.512519,60.9521951 L154.512519,49.3241951 Z M163.116519,43.1321951 L177.984519,43.1321951 L181.800519,46.9841951 L181.800519,63.2921951 L177.984519,67.1441951 L163.116519,67.1441951 L163.116519,61.7441951 L164.556519,61.7441951 L164.556519,48.5321951 L163.116519,48.5321951 L163.116519,43.1321951 Z M171.144519,61.7441951 L174.456519,61.7441951 L175.212519,60.9521951 L175.212519,49.3241951 L174.456519,48.5321951 L171.144519,48.5321951 L171.144519,61.7441951 Z" id="team-copy" fill="#DA4266" sketch:type="MSShapeGroup"></path>
            </g>
        </g>
    </g>
</svg>