<?xml version="1.0" encoding="UTF-8" standalone="no"?>
<svg width="224px" height="95px" viewBox="0 0 224 95" version="1.1" xmlns="http://www.w3.org/2000/svg" xmlns:xlink="http://www.w3.org/1999/xlink" xmlns:sketch="http://www.bohemiancoding.com/sketch/ns">
    <!-- Generator: Sketch 3.3.2 (12043) - http://www.bohemiancoding.com/sketch -->
    <title>logo blauw</title>
    <desc>Created with Sketch.</desc>
    <defs></defs>
    <g id="Page-1" stroke="none" stroke-width="1" fill="none" fill-rule="evenodd" sketch:type="MSPage">
        <g id="Artboard-4" sketch:type="MSArtboardGroup" transform="translate(-98.000000, -78.000000)">
            <g id="logo-blauw" sketch:type="MSLayerGroup" transform="translate(98.000000, 78.000000)">
                <path d="M185.721872,0.0612331081 C204.583348,0.0612331081 223.444284,3.21567278 223.444284,3.21567278 L223.444284,50.1938506 C223.444284,50.1938506 221.087745,82.4186874 185.721872,94.8386497 C150.356539,82.4135364 148,50.1938506 148,50.1938506 L148,3.21567278 C148,3.21567278 166.860936,0.0612331081 185.721872,0.0612331081" id="Imported-Layers-Copy-2" fill="#4563A7" sketch:type="MSShapeGroup"></path>
                <g id="Imported-Layers-Copy-3" transform="translate(160.000000, 21.000000)" sketch:type="MSShapeGroup">
                    <g id="Imported-Layers">
                        <path d="M52.556029,18.1842892 L52.556029,18.1542885 C52.5437391,7.32710161 46.0362609,0.302315058 35.9516667,0.160773148 C35.9301594,0.160773148 35.9124928,0.148465156 35.8886812,0.148465156 L35.6666957,0.148465156 L35.6421159,0.148465156 L11.2659565,0.148465156 L0.612188406,26.0567887 C0.55842029,26.1921767 0.555347826,26.3306416 0.569942029,26.4652602 C0.55842029,26.489107 0.53384058,26.504492 0.522318841,26.5283387 C0.327217391,26.9406564 0.49773913,27.4298991 0.909449275,27.6252885 L28.1921594,40.7056072 C28.3066087,40.7594547 28.4264348,40.7871477 28.5462609,40.7871477 C28.851971,40.7871477 29.1461594,40.615605 29.2874928,40.3209825 C29.3681449,40.1525168 29.3712174,39.9755894 29.3381884,39.8071238 L29.3681449,39.8071238 L29.3681449,19.9627941 C32.6925507,16.8019479 36.4225217,14.989596 40.193971,14.7403592 C44.2626812,14.4695833 48.1362899,16.0534681 51.3915652,19.3166245 L52.523,18.1842892 L52.556029,18.1842892" id="Fill-1" fill="#FFFFFF"></path>
                        <path d="M30.937235,5.77737581 C29.8641199,8.40044059 28.2392073,10.1130114 26.3925246,10.1130114 C24.5521481,10.1130114 22.9261844,8.40044059 21.8530694,5.77737581 L30.937235,5.77737581" id="Fill-2" fill="#4563A7"></path>
                    </g>
                </g>
                <path d="M52.832,20.0081951 L47.432,20.0081951 L47.432,18.5681951 L45.956,18.5321951 L45.956,31.7081951 L47.432,31.7081951 L47.432,37.1081951 L37.964,37.1081951 L37.964,31.7081951 L39.404,31.7081951 L39.404,18.5681951 L37.964,18.5681951 L37.964,20.0081951 L32.564,20.0081951 L32.564,13.1321951 L52.832,13.1321951 L52.832,20.0081951 Z M62.336,31.7441951 L66.548,31.7441951 L66.548,30.7721951 L71.948,30.7721951 L71.948,37.1441951 L54.308,37.1441951 L54.308,31.7441951 L55.748,31.7441951 L55.748,18.5321951 L54.308,18.5321951 L54.308,13.1321951 L71.948,13.1321951 L71.948,19.5041951 L66.548,19.5041951 L66.548,18.5321951 L62.336,18.5321951 L62.336,22.4561951 L63.308,22.4561951 L63.308,21.4841951 L68.708,21.4841951 L68.708,28.8281951 L63.308,28.8281951 L63.308,27.8561951 L62.336,27.8561951 L62.336,31.7441951 Z M92.396,13.1321951 L92.396,18.5321951 L91.172,18.5321951 L96.464,31.7441951 L97.904,31.7441951 L97.904,37.1441951 L88.652,37.1441951 L88.652,31.7441951 L89.48,31.7441951 L89.12,30.6281951 L82.748,30.6281951 L82.352,31.7441951 L83.144,31.7441951 L83.144,37.1441951 L73.964,37.1441951 L73.964,31.7441951 L75.404,31.7441951 L80.696,18.5321951 L79.652,18.5321951 L79.652,13.1321951 L92.396,13.1321951 Z M84.368,26.0201951 L87.464,26.0201951 L85.916,22.2761951 L84.368,26.0201951 Z M112.628,34.1921951 L107.408,25.5161951 L107.408,31.7441951 L108.848,31.7441951 L108.848,37.1441951 L99.38,37.1441951 L99.38,31.7441951 L100.82,31.7441951 L100.82,18.5321951 L99.38,18.5321951 L99.38,13.1321951 L107.084,13.1321951 L112.628,22.4561951 L118.208,13.1321951 L125.948,13.1321951 L125.948,18.5321951 L124.472,18.5321951 L124.472,31.7441951 L125.948,31.7441951 L125.948,37.1441951 L116.444,37.1441951 L116.444,31.7441951 L117.884,31.7441951 L117.884,25.5161951 L112.628,34.1921951 Z M19.064,56.2721951 L19.064,63.2921951 L15.248,67.1441951 L0.38,67.1441951 L0.38,61.7441951 L1.82,61.7441951 L1.82,48.5321951 L0.38,48.5321951 L0.38,43.1321951 L15.248,43.1321951 L19.064,46.9841951 L19.064,53.1401951 L17.48,54.7241951 L19.064,56.2721951 Z M12.476,58.2161951 L11.72,57.4241951 L8.408,57.4241951 L8.408,61.7441951 L11.72,61.7441951 L12.476,60.9521951 L12.476,58.2161951 Z M12.476,49.3241951 L11.72,48.5321951 L8.408,48.5321951 L8.408,52.0241951 L11.72,52.0241951 L12.476,51.2321951 L12.476,49.3241951 Z M29.072,48.5321951 L29.072,61.7441951 L33.392,61.7441951 L33.392,60.3041951 L38.792,60.3041951 L38.792,67.1441951 L21.044,67.1441951 L21.044,61.7441951 L22.484,61.7441951 L22.484,48.5321951 L21.044,48.5321951 L21.044,43.1321951 L30.512,43.1321951 L30.512,48.5321951 L29.072,48.5321951 Z M58.736,43.1321951 L58.736,48.5321951 L57.512,48.5321951 L62.804,61.7441951 L64.244,61.7441951 L64.244,67.1441951 L54.992,67.1441951 L54.992,61.7441951 L55.82,61.7441951 L55.46,60.6281951 L49.088,60.6281951 L48.692,61.7441951 L49.484,61.7441951 L49.484,67.1441951 L40.304,67.1441951 L40.304,61.7441951 L41.744,61.7441951 L47.036,48.5321951 L45.992,48.5321951 L45.992,43.1321951 L58.736,43.1321951 Z M50.708,56.0201951 L53.804,56.0201951 L52.256,52.2761951 L50.708,56.0201951 Z M85.412,63.2921951 L81.56,67.1441951 L71.012,67.1441951 L67.16,63.2921951 L67.16,48.5321951 L65.72,48.5321951 L65.72,43.1321951 L75.188,43.1321951 L75.188,48.5321951 L73.748,48.5321951 L73.748,60.9521951 L74.54,61.7441951 L78.032,61.7441951 L78.824,60.9521951 L78.824,48.5321951 L77.348,48.5321951 L77.348,43.1321951 L86.852,43.1321951 L86.852,48.5321951 L85.412,48.5321951 L85.412,63.2921951 Z M105.608,61.7441951 L106.4,61.7441951 L106.4,67.1441951 L94.088,67.1441951 L94.088,61.7441951 L94.88,61.7441951 L90.488,48.5321951 L88.58,48.5321951 L88.58,43.1321951 L98.588,43.1321951 L98.588,48.5321951 L97.652,48.5321951 L100.28,56.4521951 L102.908,48.5321951 L102.152,48.5321951 L102.152,43.1321951 L112.88,43.1321951 L112.88,48.5321951 L112.088,48.5321951 L114.752,56.4521951 L117.38,48.5321951 L116.588,48.5321951 L116.588,43.1321951 L126.452,43.1321951 L126.452,48.5321951 L124.508,48.5321951 L120.152,61.7441951 L120.908,61.7441951 L120.908,67.1441951 L108.668,67.1441951 L108.668,61.7441951 L109.424,61.7441951 L107.516,55.9841951 L105.608,61.7441951 Z" id="team" fill="#4563A7" sketch:type="MSShapeGroup"></path>
            </g>
        </g>
    </g>
</svg>