<?xml version="1.0" encoding="UTF-8" standalone="no"?>
<svg width="178px" height="76px" viewBox="0 0 178 76" version="1.1" xmlns="http://www.w3.org/2000/svg" xmlns:xlink="http://www.w3.org/1999/xlink" xmlns:sketch="http://www.bohemiancoding.com/sketch/ns">
    <!-- Generator: Sketch 3.3.3 (12072) - http://www.bohemiancoding.com/sketch -->
    <title>logo blauw</title>
    <desc>Created with Sketch.</desc>
    <defs></defs>
    <g id="Page-2" stroke="none" stroke-width="1" fill="none" fill-rule="evenodd" sketch:type="MSPage">
        <g id="battle-scherm" sketch:type="MSArtboardGroup" transform="translate(-140.000000, -279.000000)">
            <g id="powermeter-blauw-+-logo-blauw" sketch:type="MSLayerGroup" transform="translate(140.000000, 103.673950)">
                <g id="logo-blauw" transform="translate(0.000000, 175.330357)" sketch:type="MSShapeGroup">
                    <path d="M147.083942,0.0490229348 C162.192274,0.0490229348 177.300174,2.57445231 177.300174,2.57445231 L177.300174,40.1849578 C177.300174,40.1849578 175.41255,65.9840086 147.083942,75.9273713 C118.755767,65.9798848 116.868143,40.1849578 116.868143,40.1849578 L116.868143,2.57445231 C116.868143,2.57445231 131.976043,0.0490229348 147.083942,0.0490229348" id="Imported-Layers-Copy-2" fill="#4563A7"></path>
                    <g id="Imported-Layers-Copy-3" transform="translate(126.480327, 16.812500)">
                        <g id="Imported-Layers">
                            <path d="M42.0981871,14.5582554 L42.0981871,14.5342369 C42.0883427,5.86604266 36.8757526,0.242031996 28.7978376,0.128714217 C28.78061,0.128714217 28.7664587,0.118860497 28.7473853,0.118860497 L28.5695715,0.118860497 L28.5498827,0.118860497 L9.02420435,0.118860497 L0.490372323,20.860941 C0.447303236,20.9693319 0.444842145,21.0801863 0.456532326,21.1879613 C0.447303236,21.2070529 0.42761451,21.2193701 0.41838542,21.2384616 C0.26210616,21.5685613 0.398696695,21.9602466 0.728482849,22.1166744 L22.5823531,32.5887153 C22.6740287,32.6318253 22.7700112,32.6539962 22.8659938,32.6539962 C23.1108723,32.6539962 23.3465217,32.51666 23.4597319,32.2807865 C23.5243355,32.1459138 23.5267966,32.0042665 23.5003399,31.8693937 L23.5243355,31.8693937 L23.5243355,15.9821179 C26.1872357,13.4515594 29.1749998,12.0005992 32.1959886,11.8010614 C35.455088,11.5842795 38.5579081,12.8523301 41.1654337,15.4647976 L42.0717304,14.5582554 L42.0981871,14.5582554" id="Fill-1" fill="#FFFFFF"></path>
                            <path d="M24.7812008,4.62533956 C23.9216191,6.72535273 22.6200391,8.09642875 21.1408179,8.09642875 C19.666648,8.09642875 18.3642261,6.72535273 17.5046445,4.62533956 L24.7812008,4.62533956" id="Fill-2" fill="#4563A7"></path>
                        </g>
                    </g>
                    <path d="M39.8208571,15.2000133 L35.4976429,15.2000133 L35.4976429,14.0471562 L34.3159643,14.0183348 L34.3159643,24.5669776 L35.4976429,24.5669776 L35.4976429,28.8901919 L27.9176071,28.8901919 L27.9176071,24.5669776 L29.0704643,24.5669776 L29.0704643,14.0471562 L27.9176071,14.0471562 L27.9176071,15.2000133 L23.5943929,15.2000133 L23.5943929,9.69512047 L39.8208571,9.69512047 L39.8208571,15.2000133 Z M47.4297143,24.595799 L50.8018214,24.595799 L50.8018214,23.8176205 L55.1250357,23.8176205 L55.1250357,28.9190133 L41.0025357,28.9190133 L41.0025357,24.595799 L42.1553929,24.595799 L42.1553929,14.0183348 L41.0025357,14.0183348 L41.0025357,9.69512047 L55.1250357,9.69512047 L55.1250357,14.7965133 L50.8018214,14.7965133 L50.8018214,14.0183348 L47.4297143,14.0183348 L47.4297143,17.1598705 L48.2078929,17.1598705 L48.2078929,16.3816919 L52.5311071,16.3816919 L52.5311071,22.2612633 L48.2078929,22.2612633 L48.2078929,21.4830848 L47.4297143,21.4830848 L47.4297143,24.595799 Z M71.4956071,9.69512047 L71.4956071,14.0183348 L70.5156786,14.0183348 L74.7524286,24.595799 L75.9052857,24.595799 L75.9052857,28.9190133 L68.4981786,28.9190133 L68.4981786,24.595799 L69.1610714,24.595799 L68.8728571,23.7023348 L63.7714643,23.7023348 L63.4544286,24.595799 L64.0885,24.595799 L64.0885,28.9190133 L56.7390357,28.9190133 L56.7390357,24.595799 L57.8918929,24.595799 L62.1286429,14.0183348 L61.2928214,14.0183348 L61.2928214,9.69512047 L71.4956071,9.69512047 Z M65.0684286,20.0131919 L67.5470714,20.0131919 L66.30775,17.0157633 L65.0684286,20.0131919 Z M87.69325,26.5556562 L83.5141429,19.6096919 L83.5141429,24.595799 L84.667,24.595799 L84.667,28.9190133 L77.0869643,28.9190133 L77.0869643,24.595799 L78.2398214,24.595799 L78.2398214,14.0183348 L77.0869643,14.0183348 L77.0869643,9.69512047 L83.25475,9.69512047 L87.69325,17.1598705 L92.1605714,9.69512047 L98.3571786,9.69512047 L98.3571786,14.0183348 L97.1755,14.0183348 L97.1755,24.595799 L98.3571786,24.595799 L98.3571786,28.9190133 L90.7483214,28.9190133 L90.7483214,24.595799 L91.9011786,24.595799 L91.9011786,19.6096919 L87.69325,26.5556562 Z M6.67621429,59.595799 L10.0483214,59.595799 L10.0483214,58.8176205 L14.3715357,58.8176205 L14.3715357,63.9190133 L0.249035714,63.9190133 L0.249035714,59.595799 L1.40189286,59.595799 L1.40189286,49.0183348 L0.249035714,49.0183348 L0.249035714,44.6951205 L14.3715357,44.6951205 L14.3715357,49.7965133 L10.0483214,49.7965133 L10.0483214,49.0183348 L6.67621429,49.0183348 L6.67621429,52.1598705 L7.45439286,52.1598705 L7.45439286,51.3816919 L11.7776071,51.3816919 L11.7776071,57.2612633 L7.45439286,57.2612633 L7.45439286,56.4830848 L6.67621429,56.4830848 L6.67621429,59.595799 Z M30.7421071,44.6951205 L30.7421071,49.0183348 L29.7621786,49.0183348 L33.9989286,59.595799 L35.1517857,59.595799 L35.1517857,63.9190133 L27.7446786,63.9190133 L27.7446786,59.595799 L28.4075714,59.595799 L28.1193571,58.7023348 L23.0179643,58.7023348 L22.7009286,59.595799 L23.335,59.595799 L23.335,63.9190133 L15.9855357,63.9190133 L15.9855357,59.595799 L17.1383929,59.595799 L21.3751429,49.0183348 L20.5393214,49.0183348 L20.5393214,44.6951205 L30.7421071,44.6951205 Z M24.3149286,55.0131919 L26.7935714,55.0131919 L25.55425,52.0157633 L24.3149286,55.0131919 Z M50.9459286,53.2262633 L50.9459286,60.8351205 L47.8620357,63.9190133 L39.4173571,63.9190133 L36.3334643,60.8351205 L36.3334643,47.7790133 L39.4173571,44.6951205 L47.8620357,44.6951205 L50.9459286,47.7790133 L50.9459286,52.0445848 L45.6427857,52.0445848 L45.6427857,49.6524062 L45.0375357,49.0183348 L42.2418571,49.0183348 L41.6077857,49.6524062 L41.6077857,58.9617276 L42.2418571,59.595799 L45.0375357,59.595799 L45.6716071,58.9617276 L45.6716071,57.174799 L44.2017143,57.174799 L44.2017143,53.2262633 L50.9459286,53.2262633 Z M58.9871071,49.0183348 L58.9871071,59.595799 L62.4456786,59.595799 L62.4456786,58.4429419 L66.7688929,58.4429419 L66.7688929,63.9190133 L52.5599286,63.9190133 L52.5599286,59.595799 L53.7127857,59.595799 L53.7127857,49.0183348 L52.5599286,49.0183348 L52.5599286,44.6951205 L60.1399643,44.6951205 L60.1399643,49.0183348 L58.9871071,49.0183348 Z M74.4065714,59.595799 L77.7786786,59.595799 L77.7786786,58.8176205 L82.1018929,58.8176205 L82.1018929,63.9190133 L67.9793929,63.9190133 L67.9793929,59.595799 L69.13225,59.595799 L69.13225,49.0183348 L67.9793929,49.0183348 L67.9793929,44.6951205 L82.1018929,44.6951205 L82.1018929,49.7965133 L77.7786786,49.7965133 L77.7786786,49.0183348 L74.4065714,49.0183348 L74.4065714,52.1598705 L75.18475,52.1598705 L75.18475,51.3816919 L79.5079643,51.3816919 L79.5079643,57.2612633 L75.18475,57.2612633 L75.18475,56.4830848 L74.4065714,56.4830848 L74.4065714,59.595799 Z M92.4487857,56.5119062 L86.8286071,56.5119062 L83.7158929,53.4568348 L83.7158929,47.7790133 L86.7997857,44.6951205 L95.2444643,44.6951205 L98.3283571,47.7790133 L98.3283571,51.5834419 L93.0540357,51.5834419 L93.0540357,49.6524062 L92.4199643,49.0183348 L89.6242857,49.0183348 L88.9902143,49.6524062 L88.9902143,51.5834419 L89.6242857,52.1886919 L95.2444643,52.1886919 L98.3283571,55.2725848 L98.3283571,60.8351205 L95.2444643,63.9190133 L86.7997857,63.9190133 L83.7158929,60.8351205 L83.7158929,57.1459776 L88.9902143,57.1459776 L88.9902143,58.9617276 L89.6242857,59.595799 L92.4199643,59.595799 L93.0540357,58.9617276 L93.0540357,57.1459776 L92.4487857,56.5119062 Z" id="team" fill="#4563A7"></path>
                </g>
            </g>
        </g>
    </g>
</svg>