<?xml version="1.0" encoding="UTF-8" standalone="no"?>
<svg width="169px" height="80px" viewBox="0 0 169 80" version="1.1" xmlns="http://www.w3.org/2000/svg" xmlns:xlink="http://www.w3.org/1999/xlink" xmlns:sketch="http://www.bohemiancoding.com/sketch/ns">
    <!-- Generator: Sketch 3.3.3 (12072) - http://www.bohemiancoding.com/sketch -->
    <title>logo-rood</title>
    <desc>Created with Sketch.</desc>
    <defs></defs>
    <g id="Page-2" stroke="none" stroke-width="1" fill="none" fill-rule="evenodd" sketch:type="MSPage">
        <g id="battle-scherm" sketch:type="MSArtboardGroup" transform="translate(-1051.000000, -288.000000)">
            <g id="power-+-logo-rood" sketch:type="MSLayerGroup" transform="translate(1051.000000, 104.000000)">
                <g id="logo-rood" transform="translate(0.000000, 184.096875)" sketch:type="MSShapeGroup">
                    <path d="M31.8448645,0.0514740815 C47.7086126,0.0514740815 63.5719074,2.70317493 63.5719074,2.70317493 L63.5719074,42.1942057 C63.5719074,42.1942057 61.5899022,69.2832091 31.8448645,79.7237399 C2.10028009,69.2788791 0.118274926,42.1942057 0.118274926,42.1942057 L0.118274926,2.70317493 C0.118274926,2.70317493 15.9815697,0.0514740815 31.8448645,0.0514740815" id="Imported-Layers" fill="#DA4266"></path>
                    <g id="Imported-Layers-Copy" transform="translate(8.518857, 11.349592)">
                        <path d="M4.28705949,41.8830724 L4.28705949,41.8909569 C4.31123761,41.8423359 4.33293592,41.7904297 4.35711403,41.7418087 L4.28705949,41.8830724" id="Fill-1" fill="#000000"></path>
                        <path d="M45.8504817,6.14661766 C45.8504817,4.00072207 45.3780785,1.97046567 44.5405238,0.168859512 C44.5380439,7.64007164 38.8202294,13.6940465 31.7707585,13.6940465 L14.1120541,13.6940465 C7.06258328,13.6940465 1.3472485,7.64007164 1.34228889,0.168859512 C0.504734135,1.97046567 0.0323309347,4.00072207 0.0323309347,6.14661766 C0.0323309347,13.4581688 5.50278479,22.4898531 12.3414721,22.8827636 L16.0810207,38.6747417 L14.0122419,39.8455886 L17.3593612,44.0697046 L28.721836,44.0697046 L31.6473881,39.8659569 L29.9908772,38.695767 L33.7372453,22.8702798 C40.4866595,22.3190225 45.8504817,13.3865514 45.8504817,6.14661766" id="Fill-2" fill="#FFFFFF"></path>
                        <path d="M15.0198252,23.051405 C15.1792232,25.1536153 16.4173058,26.7643147 17.7866169,26.6485365 C18.8728591,26.5560597 19.7048891,25.3968221 19.9254354,23.8720461 L15.0150158,22.5875643 C15.0143288,22.7419351 15.0081452,22.8933933 15.0198252,23.051405" id="Fill-3" fill="#DA4266"></path>
                        <path d="M26.1309637,23.8720461 C26.35151,25.3968221 27.18354,26.5560597 28.2697822,26.6485365 C29.6390933,26.7643147 30.8771759,25.1536153 31.0365739,23.051405 C31.0482539,22.8933933 31.0420704,22.7419351 31.0413833,22.5875643 L26.1309637,23.8720461" id="Fill-4" fill="#DA4266"></path>
                    </g>
                    <path d="M101.545218,16.760014 L97.0058426,16.760014 L97.0058426,15.549514 L95.7650801,15.5192515 L95.7650801,26.5953265 L97.0058426,26.5953265 L97.0058426,31.1347015 L89.0468051,31.1347015 L89.0468051,26.5953265 L90.2573051,26.5953265 L90.2573051,15.549514 L89.0468051,15.549514 L89.0468051,16.760014 L84.5074301,16.760014 L84.5074301,10.9798765 L101.545218,10.9798765 L101.545218,16.760014 Z M109.534518,26.625589 L113.07523,26.625589 L113.07523,25.8085015 L117.614605,25.8085015 L117.614605,31.164964 L102.78598,31.164964 L102.78598,26.625589 L103.99648,26.625589 L103.99648,15.5192515 L102.78598,15.5192515 L102.78598,10.9798765 L117.614605,10.9798765 L117.614605,16.336339 L113.07523,16.336339 L113.07523,15.5192515 L109.534518,15.5192515 L109.534518,18.817864 L110.351605,18.817864 L110.351605,18.0007765 L114.89098,18.0007765 L114.89098,24.1743265 L110.351605,24.1743265 L110.351605,23.357239 L109.534518,23.357239 L109.534518,26.625589 Z M134.803705,10.9798765 L134.803705,15.5192515 L133.77478,15.5192515 L138.223368,26.625589 L139.433868,26.625589 L139.433868,31.164964 L131.656405,31.164964 L131.656405,26.625589 L132.352443,26.625589 L132.049818,25.6874515 L126.693355,25.6874515 L126.360468,26.625589 L127.026243,26.625589 L127.026243,31.164964 L119.309305,31.164964 L119.309305,26.625589 L120.519805,26.625589 L124.968393,15.5192515 L124.09078,15.5192515 L124.09078,10.9798765 L134.803705,10.9798765 Z M128.055168,21.8138515 L130.657743,21.8138515 L129.356455,18.6665515 L128.055168,21.8138515 Z M151.81123,28.683439 L147.423168,21.3901765 L147.423168,26.625589 L148.633668,26.625589 L148.633668,31.164964 L140.67463,31.164964 L140.67463,26.625589 L141.88513,26.625589 L141.88513,15.5192515 L140.67463,15.5192515 L140.67463,10.9798765 L147.150805,10.9798765 L151.81123,18.817864 L156.501918,10.9798765 L163.008355,10.9798765 L163.008355,15.5192515 L161.767593,15.5192515 L161.767593,26.625589 L163.008355,26.625589 L163.008355,31.164964 L155.019055,31.164964 L155.019055,26.625589 L156.229555,26.625589 L156.229555,21.3901765 L151.81123,28.683439 Z M100.213668,57.025689 L100.213668,62.9268765 L97.0058426,66.164964 L84.5074301,66.164964 L84.5074301,61.625589 L85.7179301,61.625589 L85.7179301,50.5192515 L84.5074301,50.5192515 L84.5074301,45.9798765 L97.0058426,45.9798765 L100.213668,49.217964 L100.213668,54.3928515 L98.8821176,55.7244015 L100.213668,57.025689 Z M94.6756301,58.659864 L94.0401176,57.994089 L91.2559676,57.994089 L91.2559676,61.625589 L94.0401176,61.625589 L94.6756301,60.959814 L94.6756301,58.659864 Z M94.6756301,51.1850265 L94.0401176,50.5192515 L91.2559676,50.5192515 L91.2559676,53.454714 L94.0401176,53.454714 L94.6756301,52.788939 L94.6756301,51.1850265 Z M118.431693,62.9268765 L115.193605,66.164964 L106.326693,66.164964 L103.088605,62.9268765 L103.088605,50.5192515 L101.878105,50.5192515 L101.878105,45.9798765 L109.837143,45.9798765 L109.837143,50.5192515 L108.626643,50.5192515 L108.626643,60.959814 L109.292418,61.625589 L112.22788,61.625589 L112.893655,60.959814 L112.893655,50.5192515 L111.652893,50.5192515 L111.652893,45.9798765 L119.642193,45.9798765 L119.642193,50.5192515 L118.431693,50.5192515 L118.431693,62.9268765 Z M127.661755,50.5192515 L127.661755,61.625589 L131.293255,61.625589 L131.293255,60.415089 L135.83263,60.415089 L135.83263,66.164964 L120.913218,66.164964 L120.913218,61.625589 L122.123718,61.625589 L122.123718,50.5192515 L120.913218,50.5192515 L120.913218,45.9798765 L128.872255,45.9798765 L128.872255,50.5192515 L127.661755,50.5192515 Z M143.852193,50.5192515 L143.852193,61.625589 L147.483693,61.625589 L147.483693,60.415089 L152.023068,60.415089 L152.023068,66.164964 L137.103655,66.164964 L137.103655,61.625589 L138.314155,61.625589 L138.314155,50.5192515 L137.103655,50.5192515 L137.103655,45.9798765 L145.062693,45.9798765 L145.062693,50.5192515 L143.852193,50.5192515 Z M162.46363,58.3875015 L156.562443,58.3875015 L153.294093,55.1796765 L153.294093,49.217964 L156.53218,45.9798765 L165.399093,45.9798765 L168.63718,49.217964 L168.63718,53.212614 L163.099143,53.212614 L163.099143,51.1850265 L162.433368,50.5192515 L159.497905,50.5192515 L158.83213,51.1850265 L158.83213,53.212614 L159.497905,53.8481265 L165.399093,53.8481265 L168.63718,57.086214 L168.63718,62.9268765 L165.399093,66.164964 L156.53218,66.164964 L153.294093,62.9268765 L153.294093,59.0532765 L158.83213,59.0532765 L158.83213,60.959814 L159.497905,61.625589 L162.433368,61.625589 L163.099143,60.959814 L163.099143,59.0532765 L162.46363,58.3875015 Z" id="team" fill="#DA4266"></path>
                </g>
            </g>
        </g>
    </g>
</svg>