<?xml version="1.0" encoding="UTF-8" standalone="no"?>
<svg width="1142px" height="14px" viewBox="0 0 1142 14" version="1.1" xmlns="http://www.w3.org/2000/svg" xmlns:xlink="http://www.w3.org/1999/xlink" xmlns:sketch="http://www.bohemiancoding.com/sketch/ns">
    <!-- Generator: Sketch 3.3.2 (12043) - http://www.bohemiancoding.com/sketch -->
    <title>touw</title>
    <desc>Created with Sketch.</desc>
    <defs>
        <rect id="path-1" x="0" y="0" width="1152" height="14"></rect>
    </defs>
    <g id="Page-1" stroke="none" stroke-width="1" fill="none" fill-rule="evenodd" sketch:type="MSPage">
        <g id="Artboard-4" sketch:type="MSArtboardGroup" transform="translate(-128.000000, -649.000000)">
            <g id="touw" sketch:type="MSLayerGroup" transform="translate(118.000000, 649.000000)">
                <mask id="mask-2" sketch:name="Mask" fill="white">
                    <use xlink:href="#path-1"></use>
                </mask>
                <use id="Mask" sketch:type="MSShapeGroup" xlink:href="#path-1"></use>
                <path d="M12.747609,14.3295 C12.3937559,14.3295 12.0369041,14.23875 11.7092902,14.049 C10.7159527,13.47525 10.3763437,12.204 10.9506052,11.2095 L16.7314545,1.20975 C17.3064658,0.21525 18.5764384,-0.123 19.5697758,0.4515 C20.5631133,1.026 20.9027223,2.298 20.3284608,3.29175 L14.5476115,13.2915 C14.1622715,13.95675 13.4643113,14.3295 12.747609,14.3295" id="Fill-1" fill="#5A3513" sketch:type="MSShapeGroup" mask="url(#mask-2)"></path>
                <path d="M18.9662765,14.3295 C18.6131731,14.3295 18.2555716,14.23875 17.9279577,14.049 C16.9346202,13.47525 16.5950112,12.204 17.1700224,11.2095 L22.950122,1.20975 C23.5243836,0.21525 24.7958555,-0.123 25.789193,0.4515 C26.7817808,1.026 27.1213898,2.298 26.5471283,3.29175 L20.766279,13.2915 C20.3816887,13.95675 19.6837285,14.3295 18.9662765,14.3295" id="Fill-2" fill="#5A3513" sketch:type="MSShapeGroup" mask="url(#mask-2)"></path>
                <path d="M25.184944,14.3295 C24.8318406,14.3295 24.4749888,14.23875 24.1473748,14.049 C23.1540374,13.47525 22.8144284,12.204 23.3886899,11.2095 L29.1695392,1.20975 C29.7430511,0.216 31.012274,-0.1245 32.0078605,0.4515 C33.001198,1.026 33.340807,2.298 32.7657958,3.29175 L26.9856961,13.2915 C26.6003562,13.95675 25.902396,14.3295 25.184944,14.3295" id="Fill-3" fill="#5A3513" sketch:type="MSShapeGroup" mask="url(#mask-2)"></path>
                <path d="M31.4036115,14.3295 C31.0505081,14.3295 30.6936563,14.23875 30.3660423,14.049 C29.3727049,13.47525 29.0330959,12.204 29.6073574,11.21025 L35.387457,1.2105 C35.9609689,0.216 37.2316912,-0.1245 38.2250286,0.4515 C39.2191158,1.026 39.5587248,2.298 38.9837136,3.291 L33.2036139,13.29075 C32.8197733,13.95675 32.1210635,14.3295 31.4036115,14.3295" id="Fill-4" fill="#5A3513" sketch:type="MSShapeGroup" mask="url(#mask-2)"></path>
                <path d="M37.622279,14.3295 C37.2691756,14.3295 36.9115741,14.23875 36.5839601,14.049 C35.5913724,13.47525 35.2517634,12.204 35.8260249,11.2095 L41.6068742,1.20975 C42.1818854,0.216 43.449609,-0.1245 44.4451955,0.4515 C45.438533,1.026 45.778142,2.298 45.2031308,3.29175 L39.4222814,13.2915 C39.0369415,13.95675 38.339731,14.3295 37.622279,14.3295" id="Fill-5" fill="#5A3513" sketch:type="MSShapeGroup" mask="url(#mask-2)"></path>
                <path d="M43.8409465,14.3295 C43.4878431,14.3295 43.1302416,14.23875 42.8026276,14.049 C41.8100399,13.47525 41.4704309,12.204 42.0446924,11.2095 L47.8255417,1.20975 C48.3998032,0.216 49.6682765,-0.1245 50.663863,0.4515 C51.6564508,1.026 51.9968095,2.298 51.4217983,3.29175 L45.6409489,13.2915 C45.255609,13.95675 44.5583985,14.3295 43.8409465,14.3295" id="Fill-6" fill="#5A3513" sketch:type="MSShapeGroup" mask="url(#mask-2)"></path>
                <path d="M50.0596139,14.3295 C49.7065106,14.3295 49.3489091,14.23875 49.0212951,14.049 C48.0287073,13.47525 47.6883487,12.204 48.2633599,11.2095 L54.0442092,1.20975 C54.6184707,0.216 55.8876936,-0.1245 56.8825305,0.4515 C57.8751183,1.026 58.215477,2.298 57.6404658,3.29175 L51.8596164,13.2915 C51.4742765,13.95675 50.777066,14.3295 50.0596139,14.3295" id="Fill-7" fill="#5A3513" sketch:type="MSShapeGroup" mask="url(#mask-2)"></path>
                <path d="M56.2782814,14.3295 C55.9259278,14.3295 55.5683263,14.23875 55.2407123,14.049 C54.2481245,13.47525 53.9077659,12.204 54.4827771,11.2095 L60.2636264,1.20975 C60.8371382,0.216 62.1063611,-0.1245 63.1019477,0.4515 C64.0945355,1.026 64.4341445,2.298 63.8598829,3.29175 L58.0790336,13.2915 C57.6936936,13.95675 56.9957335,14.3295 56.2782814,14.3295" id="Fill-8" fill="#5A3513" sketch:type="MSShapeGroup" mask="url(#mask-2)"></path>
                <path d="M62.4969489,14.3295 C62.1445953,14.3295 61.7869938,14.23875 61.4593798,14.049 C60.4660423,13.47525 60.1264334,12.204 60.7014446,11.2095 L66.4822939,1.20975 C67.0558057,0.216 68.3257783,-0.1245 69.3206152,0.4515 C70.313203,1.026 70.652812,2.298 70.0785504,3.29175 L64.2977011,13.2915 C63.9123611,13.95675 63.214401,14.3295 62.4969489,14.3295" id="Fill-9" fill="#5A3513" sketch:type="MSShapeGroup" mask="url(#mask-2)"></path>
                <path d="M68.7156164,14.3295 C68.3632628,14.3295 68.0056613,14.23875 67.6780473,14.049 C66.6847098,13.47525 66.3451009,12.204 66.9201121,11.2095 L72.7009614,1.20975 C73.2752229,0.216 74.5444458,-0.1245 75.5392827,0.4515 C76.5318705,1.026 76.8714795,2.298 76.2972179,3.29175 L70.5163686,13.2915 C70.1310286,13.95675 69.4330685,14.3295 68.7156164,14.3295" id="Fill-10" fill="#5A3513" sketch:type="MSShapeGroup" mask="url(#mask-2)"></path>
                <path d="M74.9350336,14.3295 C74.58268,14.3295 74.2250785,14.23875 73.8967148,14.049 C72.904127,13.47525 72.5645181,12.204 73.1395293,11.2095 L78.9203786,1.20975 C79.4938904,0.216 80.7631133,-0.1245 81.7586999,0.4515 C82.7512877,1.026 83.0908966,2.298 82.5166351,3.29175 L76.7357858,13.2915 C76.3504458,13.95675 75.6524857,14.3295 74.9350336,14.3295" id="Fill-11" fill="#5A3513" sketch:type="MSShapeGroup" mask="url(#mask-2)"></path>
                <path d="M81.1537011,14.3295 C80.8005978,14.3295 80.443746,14.23875 80.1153823,14.049 C79.1227945,13.47525 78.7831856,12.204 79.3581968,11.2095 L85.1390461,1.20975 C85.7125579,0.216 86.9817808,-0.1245 87.9773674,0.4515 C88.9699552,1.026 89.3095641,2.298 88.7345529,3.29175 L82.9537036,13.2915 C82.5691133,13.95675 81.8711532,14.3295 81.1537011,14.3295" id="Fill-12" fill="#5A3513" sketch:type="MSShapeGroup" mask="url(#mask-2)"></path>
                <path d="M87.3723686,14.3295 C87.0192653,14.3295 86.6624134,14.23875 86.3340498,14.049 C85.341462,13.47525 85.0018531,12.204 85.5761146,11.2095 L91.3577136,1.20975 C91.9312254,0.216 93.1996986,-0.1245 94.1960349,0.4515 C95.1886227,1.026 95.5282316,2.298 94.9532204,3.29175 L89.1723711,13.2915 C88.7877808,13.95675 88.0898207,14.3295 87.3723686,14.3295" id="Fill-13" fill="#5A3513" sketch:type="MSShapeGroup" mask="url(#mask-2)"></path>
                <path d="M93.5917858,14.3295 C93.2386824,14.3295 92.8818306,14.23875 92.553467,14.049 C91.5608792,13.47525 91.2212702,12.204 91.7955318,11.2095 L97.5763811,1.20975 C98.1506426,0.216 99.4198655,-0.1245 100.415452,0.4515 C101.40804,1.026 101.747649,2.298 101.172638,3.29175 L95.3917883,13.2915 C95.007198,13.95675 94.3092379,14.3295 93.5917858,14.3295" id="Fill-14" fill="#5A3513" sketch:type="MSShapeGroup" mask="url(#mask-2)"></path>
                <path d="M99.8104533,14.3295 C99.4573499,14.3295 99.1004981,14.23875 98.7721345,14.049 C97.7795467,13.47525 97.4399377,12.204 98.0141993,11.2095 L103.795049,1.20975 C104.36931,0.216 105.637783,-0.1245 106.63337,0.4515 C107.626707,1.026 107.966316,2.298 107.391305,3.29175 L101.610456,13.2915 C101.225866,13.95675 100.527905,14.3295 99.8104533,14.3295" id="Fill-15" fill="#5A3513" sketch:type="MSShapeGroup" mask="url(#mask-2)"></path>
                <path d="M106.02987,14.3295 C105.676767,14.3295 105.319915,14.23875 104.991552,14.049 C103.998964,13.47525 103.659355,12.204 104.233616,11.2095 L110.014466,1.20975 C110.588727,0.216 111.85795,-0.1245 112.852787,0.4515 C113.846125,1.026 114.185733,2.298 113.610722,3.29175 L107.829873,13.2915 C107.445283,13.95675 106.747323,14.3295 106.02987,14.3295" id="Fill-16" fill="#5A3513" sketch:type="MSShapeGroup" mask="url(#mask-2)"></path>
                <path d="M112.248538,14.3295 C111.895435,14.3295 111.537833,14.23875 111.210969,14.049 C110.217631,13.47525 109.878022,12.204 110.452284,11.21025 L116.232384,1.2105 C116.805895,0.216 118.076618,-0.1245 119.069955,0.4515 C120.064042,1.026 120.403651,2.298 119.82864,3.291 L114.04854,13.29075 C113.66395,13.95675 112.96599,14.3295 112.248538,14.3295" id="Fill-17" fill="#5A3513" sketch:type="MSShapeGroup" mask="url(#mask-2)"></path>
                <path d="M118.466456,14.3295 C118.113352,14.3295 117.755751,14.23875 117.428137,14.049 C116.435549,13.47525 116.09594,12.204 116.670202,11.2095 L122.451051,1.20975 C123.025313,0.216 124.293786,-0.1245 125.289372,0.4515 C126.28196,1.026 126.622319,2.298 126.047308,3.29175 L120.266458,13.2915 C119.881118,13.95675 119.183908,14.3295 118.466456,14.3295" id="Fill-18" fill="#5A3513" sketch:type="MSShapeGroup" mask="url(#mask-2)"></path>
                <path d="M124.685873,14.3295 C124.33277,14.3295 123.975168,14.23875 123.647554,14.049 C122.654966,13.47525 122.314608,12.204 122.889619,11.2095 L128.670468,1.20975 C129.24473,0.216 130.513953,-0.1245 131.50879,0.4515 C132.501377,1.026 132.840986,2.298 132.266725,3.29175 L126.485875,13.2915 C126.100535,13.95675 125.403325,14.3295 124.685873,14.3295" id="Fill-19" fill="#5A3513" sketch:type="MSShapeGroup" mask="url(#mask-2)"></path>
                <path d="M130.90454,14.3295 C130.551437,14.3295 130.193836,14.23875 129.866222,14.049 C128.872884,13.47525 128.533275,12.204 129.108286,11.2095 L134.889136,1.20975 C135.463397,0.216 136.73262,-0.1245 137.727457,0.4515 C138.720045,1.026 139.059654,2.298 138.485392,3.29175 L132.704543,13.2915 C132.319203,13.95675 131.621993,14.3295 130.90454,14.3295" id="Fill-20" fill="#5A3513" sketch:type="MSShapeGroup" mask="url(#mask-2)"></path>
                <path d="M137.122458,14.3295 C136.770105,14.3295 136.412503,14.23875 136.084889,14.049 C135.091552,13.47525 134.751943,12.204 135.326954,11.2095 L141.107803,1.20975 C141.682065,0.216 142.950538,-0.1245 143.946125,0.4515 C144.938712,1.026 145.278321,2.298 144.70406,3.29175 L138.92321,13.2915 C138.53787,13.95675 137.83991,14.3295 137.122458,14.3295" id="Fill-21" fill="#5A3513" sketch:type="MSShapeGroup" mask="url(#mask-2)"></path>
                <path d="M143.341126,14.3295 C142.988772,14.3295 142.631171,14.23875 142.302807,14.049 C141.310219,13.47525 140.97061,12.204 141.545621,11.2095 L147.326471,1.20975 C147.899983,0.216 149.169955,-0.1245 150.164792,0.4515 C151.15738,1.026 151.496989,2.298 150.922727,3.29175 L145.141878,13.2915 C144.756538,13.95675 144.058578,14.3295 143.341126,14.3295" id="Fill-22" fill="#5A3513" sketch:type="MSShapeGroup" mask="url(#mask-2)"></path>
                <path d="M149.559793,14.3295 C149.20744,14.3295 148.849838,14.23875 148.522224,14.049 C147.528887,13.47525 147.189278,12.204 147.764289,11.21025 L153.544389,1.2105 C154.117151,0.216 155.388623,-0.1245 156.38196,0.4515 C157.375298,1.026 157.714907,2.298 157.140645,3.291 L151.360545,13.29075 C150.975955,13.95675 150.277245,14.3295 149.559793,14.3295" id="Fill-23" fill="#5A3513" sketch:type="MSShapeGroup" mask="url(#mask-2)"></path>
                <path d="M155.778461,14.3295 C155.425357,14.3295 155.068506,14.23875 154.740142,14.049 C153.747554,13.47525 153.407945,12.204 153.982956,11.2095 L159.763806,1.20975 C160.338067,0.216 161.60654,-0.1245 162.602127,0.4515 C163.594715,1.026 163.934324,2.298 163.359313,3.29175 L157.579213,13.2915 C157.193873,13.95675 156.495913,14.3295 155.778461,14.3295" id="Fill-24" fill="#5A3513" sketch:type="MSShapeGroup" mask="url(#mask-2)"></path>
                <path d="M161.997128,14.3295 C161.644025,14.3295 161.287173,14.23875 160.958809,14.049 C159.966222,13.47525 159.626613,12.204 160.201624,11.2095 L165.981724,1.20975 C166.555985,0.216 167.825208,-0.1245 168.820795,0.4515 C169.813382,1.026 170.152991,2.298 169.57798,3.29175 L163.797131,13.2915 C163.41254,13.95675 162.71458,14.3295 161.997128,14.3295" id="Fill-25" fill="#5A3513" sketch:type="MSShapeGroup" mask="url(#mask-2)"></path>
                <path d="M168.215796,14.3295 C167.862692,14.3295 167.505841,14.23875 167.177477,14.049 C166.184889,13.47525 165.84528,12.204 166.419542,11.2095 L172.200391,1.20975 C172.774653,0.216 174.043875,-0.1245 175.039462,0.4515 C176.03205,1.026 176.371659,2.298 175.796648,3.29175 L170.015798,13.2915 C169.631208,13.95675 168.933248,14.3295 168.215796,14.3295" id="Fill-26" fill="#5A3513" sketch:type="MSShapeGroup" mask="url(#mask-2)"></path>
                <path d="M174.435213,14.3295 C174.08211,14.3295 173.725258,14.23875 173.396894,14.049 C172.404306,13.47525 172.064697,12.204 172.638959,11.2095 L178.419808,1.20975 C178.99407,0.216 180.262543,-0.1245 181.258879,0.4515 C182.251467,1.026 182.591076,2.298 182.016065,3.29175 L176.235215,13.2915 C175.850625,13.95675 175.152665,14.3295 174.435213,14.3295" id="Fill-27" fill="#5A3513" sketch:type="MSShapeGroup" mask="url(#mask-2)"></path>
                <path d="M180.65388,14.3295 C180.300777,14.3295 179.943925,14.23875 179.616311,14.049 C178.622974,13.47525 178.283365,12.204 178.857626,11.21025 L184.637726,1.2105 C185.211238,0.216 186.48196,-0.1245 187.475298,0.4515 C188.469385,1.026 188.808994,2.298 188.233983,3.291 L182.453883,13.29075 C182.070042,13.95675 181.371333,14.3295 180.65388,14.3295" id="Fill-28" fill="#5A3513" sketch:type="MSShapeGroup" mask="url(#mask-2)"></path>
                <path d="M186.871798,14.3295 C186.518695,14.3295 186.161843,14.23875 185.833479,14.049 C184.840892,13.47525 184.501283,12.204 185.075544,11.2095 L190.856394,1.20975 C191.430655,0.216 192.699878,-0.1245 193.694715,0.4515 C194.688052,1.026 195.027661,2.298 194.45265,3.29175 L188.671801,13.2915 C188.28721,13.95675 187.58925,14.3295 186.871798,14.3295" id="Fill-29" fill="#5A3513" sketch:type="MSShapeGroup" mask="url(#mask-2)"></path>
                <path d="M193.091215,14.3295 C192.738112,14.3295 192.380511,14.23875 192.052897,14.049 C191.060309,13.47525 190.7207,12.204 191.294961,11.2095 L197.075811,1.20975 C197.650822,0.216 198.918545,-0.1245 199.914132,0.4515 C200.90672,1.026 201.247078,2.298 200.672067,3.29175 L194.891218,13.2915 C194.505878,13.95675 193.808667,14.3295 193.091215,14.3295" id="Fill-30" fill="#5A3513" sketch:type="MSShapeGroup" mask="url(#mask-2)"></path>
                <path d="M199.309883,14.3295 C198.95678,14.3295 198.599178,14.23875 198.271564,14.049 C197.278976,13.47525 196.939367,12.204 197.513629,11.2095 L203.294478,1.20975 C203.86874,0.216 205.137963,-0.1245 206.1328,0.4515 C207.125387,1.026 207.464996,2.298 206.890735,3.29175 L201.109885,13.2915 C200.724545,13.95675 200.027335,14.3295 199.309883,14.3295" id="Fill-31" fill="#5A3513" sketch:type="MSShapeGroup" mask="url(#mask-2)"></path>
                <path d="M205.5293,14.3295 C205.176197,14.3295 204.818595,14.23875 204.490981,14.049 C203.497644,13.47525 203.158035,12.204 203.733046,11.2095 L209.513895,1.20975 C210.087407,0.216 211.35663,-0.1245 212.352217,0.4515 C213.344804,1.026 213.684413,2.298 213.110152,3.29175 L207.329303,13.2915 C206.943963,13.95675 206.246752,14.3295 205.5293,14.3295" id="Fill-32" fill="#5A3513" sketch:type="MSShapeGroup" mask="url(#mask-2)"></path>
                <path d="M211.747218,14.3295 C211.394864,14.3295 211.037263,14.23875 210.709649,14.049 C209.716311,13.47525 209.376702,12.204 209.951714,11.2095 L215.732563,1.20975 C216.306824,0.216 217.576047,-0.1245 218.570884,0.4515 C219.563472,1.026 219.903081,2.298 219.328819,3.29175 L213.54797,13.2915 C213.16263,13.95675 212.46467,14.3295 211.747218,14.3295" id="Fill-33" fill="#5A3513" sketch:type="MSShapeGroup" mask="url(#mask-2)"></path>
                <path d="M217.965885,14.3295 C217.613532,14.3295 217.25593,14.23875 216.928316,14.049 C215.934979,13.47525 215.59537,12.204 216.170381,11.2095 L221.95123,1.20975 C222.525492,0.216 223.794715,-0.1245 224.789552,0.4515 C225.782139,1.026 226.121748,2.298 225.547487,3.29175 L219.766638,13.2915 C219.381298,13.95675 218.683337,14.3295 217.965885,14.3295" id="Fill-34" fill="#5A3513" sketch:type="MSShapeGroup" mask="url(#mask-2)"></path>
                <path d="M224.185303,14.3295 C223.832949,14.3295 223.475347,14.23875 223.147733,14.049 C222.154396,13.47525 221.814787,12.204 222.389798,11.2095 L228.170648,1.20975 C228.744159,0.216 230.014132,-0.1245 231.008969,0.4515 C232.001557,1.026 232.341166,2.298 231.766904,3.29175 L225.986055,13.2915 C225.600715,13.95675 224.902755,14.3295 224.185303,14.3295" id="Fill-35" fill="#5A3513" sketch:type="MSShapeGroup" mask="url(#mask-2)"></path>
                <path d="M230.40397,14.3295 C230.050867,14.3295 229.694015,14.23875 229.365651,14.049 C228.373064,13.47525 228.033455,12.204 228.608466,11.2095 L234.389315,1.20975 C234.963577,0.216 236.2328,-0.1245 237.227636,0.4515 C238.220224,1.026 238.559833,2.298 237.984822,3.29175 L232.204722,13.2915 C231.819382,13.95675 231.121422,14.3295 230.40397,14.3295" id="Fill-36" fill="#5A3513" sketch:type="MSShapeGroup" mask="url(#mask-2)"></path>
                <path d="M236.623387,14.3295 C236.270284,14.3295 235.913432,14.23875 235.585068,14.049 C234.592481,13.47525 234.252872,12.204 234.827133,11.2095 L240.608732,1.20975 C241.182244,0.216 242.450717,-0.1245 243.447054,0.4515 C244.439641,1.026 244.77925,2.298 244.204239,3.29175 L238.42339,13.2915 C238.0388,13.95675 237.340839,14.3295 236.623387,14.3295" id="Fill-37" fill="#5A3513" sketch:type="MSShapeGroup" mask="url(#mask-2)"></path>
                <path d="M242.842055,14.3295 C242.488951,14.3295 242.1321,14.23875 241.803736,14.049 C240.811148,13.47525 240.471539,12.204 241.04655,11.2095 L246.82665,1.20975 C247.400912,0.216 248.670134,-0.1245 249.665721,0.4515 C250.658309,1.026 250.997918,2.298 250.422907,3.29175 L244.642057,13.2915 C244.257467,13.95675 243.559507,14.3295 242.842055,14.3295" id="Fill-38" fill="#5A3513" sketch:type="MSShapeGroup" mask="url(#mask-2)"></path>
                <path d="M249.060722,14.3295 C248.707619,14.3295 248.350767,14.23875 248.022403,14.049 C247.029816,13.47525 246.690207,12.204 247.264468,11.2095 L253.045318,1.20975 C253.619579,0.216 254.888052,-0.1245 255.883639,0.4515 C256.876976,1.026 257.216585,2.298 256.641574,3.29175 L250.860725,13.2915 C250.476134,13.95675 249.778174,14.3295 249.060722,14.3295" id="Fill-39" fill="#5A3513" sketch:type="MSShapeGroup" mask="url(#mask-2)"></path>
                <path d="M255.280139,14.3295 C254.927036,14.3295 254.570184,14.23875 254.241821,14.049 C253.249233,13.47525 252.909624,12.204 253.483885,11.2095 L259.264735,1.20975 C259.838996,0.216 261.108219,-0.1245 262.103056,0.4515 C263.096394,1.026 263.436002,2.298 262.860991,3.29175 L257.080142,13.2915 C256.695552,13.95675 255.997592,14.3295 255.280139,14.3295" id="Fill-40" fill="#5A3513" sketch:type="MSShapeGroup" mask="url(#mask-2)"></path>
                <path d="M261.498807,14.3295 C261.145704,14.3295 260.788102,14.23875 260.461238,14.049 C259.4679,13.47525 259.128291,12.204 259.702553,11.21025 L265.482653,1.2105 C266.056164,0.216 267.326887,-0.1245 268.320224,0.4515 C269.314311,1.026 269.65392,2.298 269.078909,3.291 L263.298809,13.29075 C262.914219,13.95675 262.216259,14.3295 261.498807,14.3295" id="Fill-41" fill="#5A3513" sketch:type="MSShapeGroup" mask="url(#mask-2)"></path>
                <path d="M267.716725,14.3295 C267.363621,14.3295 267.00602,14.23875 266.678406,14.049 C265.685818,13.47525 265.346209,12.204 265.920471,11.2095 L271.70132,1.20975 C272.275582,0.216 273.544055,-0.1245 274.539641,0.4515 C275.532229,1.026 275.872588,2.298 275.297577,3.29175 L269.516727,13.2915 C269.131387,13.95675 268.434177,14.3295 267.716725,14.3295" id="Fill-42" fill="#5A3513" sketch:type="MSShapeGroup" mask="url(#mask-2)"></path>
                <path d="M273.936142,14.3295 C273.583039,14.3295 273.225437,14.23875 272.897823,14.049 C271.905235,13.47525 271.564877,12.204 272.139888,11.2095 L277.920737,1.20975 C278.494999,0.216 279.764222,-0.1245 280.759059,0.4515 C281.751646,1.026 282.092005,2.298 281.516994,3.29175 L275.736144,13.2915 C275.350804,13.95675 274.653594,14.3295 273.936142,14.3295" id="Fill-43" fill="#5A3513" sketch:type="MSShapeGroup" mask="url(#mask-2)"></path>
                <path d="M280.154809,14.3295 C279.801706,14.3295 279.444105,14.23875 279.116491,14.049 C278.123153,13.47525 277.783544,12.204 278.358555,11.2095 L284.139405,1.20975 C284.713666,0.216 285.982139,-0.1245 286.977726,0.4515 C287.970314,1.026 288.309923,2.298 287.735661,3.29175 L281.954812,13.2915 C281.569472,13.95675 280.872262,14.3295 280.154809,14.3295" id="Fill-44" fill="#5A3513" sketch:type="MSShapeGroup" mask="url(#mask-2)"></path>
                <path d="M286.373477,14.3295 C286.021123,14.3295 285.663522,14.23875 285.336658,14.049 C284.34257,13.47525 284.002961,12.204 284.577973,11.21025 L290.357323,1.2105 C290.930085,0.216 292.202306,-0.1245 293.194894,0.4515 C294.188232,1.026 294.527841,2.298 293.953579,3.291 L288.174229,13.29075 C287.789639,13.95675 287.090929,14.3295 286.373477,14.3295" id="Fill-45" fill="#5A3513" sketch:type="MSShapeGroup" mask="url(#mask-2)"></path>
                <path d="M292.591395,14.3295 C292.239041,14.3295 291.88144,14.23875 291.553076,14.049 C290.560488,13.47525 290.220879,12.204 290.79589,11.2095 L296.57674,1.20975 C297.150252,0.216 298.420224,-0.1245 299.415061,0.4515 C300.407649,1.026 300.747258,2.298 300.172996,3.29175 L294.392147,13.2915 C294.006807,13.95675 293.308847,14.3295 292.591395,14.3295" id="Fill-46" fill="#5A3513" sketch:type="MSShapeGroup" mask="url(#mask-2)"></path>
                <path d="M298.810062,14.3295 C298.456959,14.3295 298.100107,14.23875 297.772493,14.049 C296.779156,13.47525 296.439547,12.204 297.014558,11.21025 L302.794658,1.2105 C303.36742,0.216 304.638892,-0.1245 305.632229,0.4515 C306.625567,1.026 306.965176,2.298 306.390914,3.291 L300.610814,13.29075 C300.226224,13.95675 299.527514,14.3295 298.810062,14.3295" id="Fill-47" fill="#5A3513" sketch:type="MSShapeGroup" mask="url(#mask-2)"></path>
                <path d="M305.02873,14.3295 C304.676376,14.3295 304.318775,14.23875 303.990411,14.049 C302.997823,13.47525 302.658214,12.204 303.233225,11.2095 L309.014075,1.20975 C309.588336,0.216 310.856809,-0.1245 311.852396,0.4515 C312.844984,1.026 313.184593,2.298 312.610331,3.29175 L306.828732,13.2915 C306.444142,13.95675 305.746182,14.3295 305.02873,14.3295" id="Fill-48" fill="#5A3513" sketch:type="MSShapeGroup" mask="url(#mask-2)"></path>
                <path d="M311.247397,14.3295 C310.894294,14.3295 310.537442,14.23875 310.209078,14.049 C309.216491,13.47525 308.876882,12.204 309.451893,11.2095 L315.231993,1.20975 C315.806254,0.216 317.074727,-0.1245 318.071064,0.4515 C319.063651,1.026 319.40326,2.298 318.828249,3.29175 L313.0474,13.2915 C312.662809,13.95675 311.964849,14.3295 311.247397,14.3295" id="Fill-49" fill="#5A3513" sketch:type="MSShapeGroup" mask="url(#mask-2)"></path>
                <path d="M317.466065,14.3295 C317.112961,14.3295 316.75611,14.23875 316.427746,14.049 C315.435158,13.47525 315.095549,12.204 315.669811,11.2095 L321.45066,1.20975 C322.024922,0.216 323.294144,-0.1245 324.289731,0.4515 C325.282319,1.026 325.621928,2.298 325.046917,3.29175 L319.266067,13.2915 C318.881477,13.95675 318.183517,14.3295 317.466065,14.3295" id="Fill-50" fill="#5A3513" sketch:type="MSShapeGroup" mask="url(#mask-2)"></path>
                <path d="M323.685482,14.3295 C323.332379,14.3295 322.975527,14.23875 322.647163,14.049 C321.654575,13.47525 321.314966,12.204 321.889228,11.2095 L327.670077,1.20975 C328.244339,0.216 329.512812,-0.1245 330.509148,0.4515 C331.501736,1.026 331.841345,2.298 331.266334,3.29175 L325.485484,13.2915 C325.100894,13.95675 324.402934,14.3295 323.685482,14.3295" id="Fill-51" fill="#5A3513" sketch:type="MSShapeGroup" mask="url(#mask-2)"></path>
                <path d="M329.904149,14.3295 C329.551046,14.3295 329.194194,14.23875 328.86658,14.049 C327.873243,13.47525 327.533634,12.204 328.107895,11.21025 L333.887995,1.2105 C334.461507,0.216 335.732229,-0.1245 336.725567,0.4515 C337.719654,1.026 338.059263,2.298 337.484252,3.291 L331.704152,13.29075 C331.320311,13.95675 330.621601,14.3295 329.904149,14.3295" id="Fill-52" fill="#5A3513" sketch:type="MSShapeGroup" mask="url(#mask-2)"></path>
                <path d="M336.122817,14.3295 C335.769714,14.3295 335.412112,14.23875 335.084498,14.049 C334.09191,13.47525 333.752301,12.204 334.326563,11.2095 L340.107412,1.20975 C340.682423,0.216 341.950147,-0.1245 342.945733,0.4515 C343.938321,1.026 344.27868,2.298 343.703669,3.29175 L337.922819,13.2915 C337.537479,13.95675 336.840269,14.3295 336.122817,14.3295" id="Fill-53" fill="#5A3513" sketch:type="MSShapeGroup" mask="url(#mask-2)"></path>
                <path d="M342.341484,14.3295 C341.988381,14.3295 341.63078,14.23875 341.303166,14.049 C340.310578,13.47525 339.970969,12.204 340.54523,11.2095 L346.32608,1.20975 C346.900341,0.216 348.168814,-0.1245 349.164401,0.4515 C350.156989,1.026 350.497347,2.298 349.922336,3.29175 L344.141487,13.2915 C343.756147,13.95675 343.058936,14.3295 342.341484,14.3295" id="Fill-54" fill="#5A3513" sketch:type="MSShapeGroup" mask="url(#mask-2)"></path>
                <path d="M348.560152,14.3295 C348.207049,14.3295 347.849447,14.23875 347.521833,14.049 C346.529245,13.47525 346.189636,12.204 346.763898,11.2095 L352.544747,1.20975 C353.119009,0.216 354.388232,-0.1245 355.383068,0.4515 C356.375656,1.026 356.715265,2.298 356.141004,3.29175 L350.360154,13.2915 C349.974814,13.95675 349.277604,14.3295 348.560152,14.3295" id="Fill-55" fill="#5A3513" sketch:type="MSShapeGroup" mask="url(#mask-2)"></path>
                <path d="M354.779569,14.3295 C354.426466,14.3295 354.068864,14.23875 353.74125,14.049 C352.747913,13.47525 352.408304,12.204 352.983315,11.2095 L358.764164,1.20975 C359.337676,0.216 360.606899,-0.1245 361.602486,0.4515 C362.595073,1.026 362.934682,2.298 362.360421,3.29175 L356.579572,13.2915 C356.194232,13.95675 355.497021,14.3295 354.779569,14.3295" id="Fill-56" fill="#5A3513" sketch:type="MSShapeGroup" mask="url(#mask-2)"></path>
                <path d="M360.997487,14.3295 C360.645133,14.3295 360.287532,14.23875 359.959918,14.049 C358.96658,13.47525 358.626971,12.204 359.201983,11.2095 L364.982832,1.20975 C365.557093,0.216 366.826316,-0.1245 367.821153,0.4515 C368.813741,1.026 369.15335,2.298 368.579088,3.29175 L362.798239,13.2915 C362.412899,13.95675 361.714939,14.3295 360.997487,14.3295" id="Fill-57" fill="#5A3513" sketch:type="MSShapeGroup" mask="url(#mask-2)"></path>
                <path d="M367.216154,14.3295 C366.863801,14.3295 366.506199,14.23875 366.178585,14.049 C365.185248,13.47525 364.845639,12.204 365.42065,11.2095 L371.201499,1.20975 C371.775761,0.216 373.044984,-0.1245 374.039821,0.4515 C375.032408,1.026 375.372017,2.298 374.797756,3.29175 L369.016907,13.2915 C368.631567,13.95675 367.933606,14.3295 367.216154,14.3295" id="Fill-58" fill="#5A3513" sketch:type="MSShapeGroup" mask="url(#mask-2)"></path>
                <path d="M373.435572,14.3295 C373.083218,14.3295 372.725616,14.23875 372.398002,14.049 C371.404665,13.47525 371.065056,12.204 371.640067,11.2095 L377.420917,1.20975 C377.994428,0.216 379.264401,-0.1245 380.259238,0.4515 C381.251826,1.026 381.591435,2.298 381.017173,3.29175 L375.236324,13.2915 C374.850984,13.95675 374.153024,14.3295 373.435572,14.3295" id="Fill-59" fill="#5A3513" sketch:type="MSShapeGroup" mask="url(#mask-2)"></path>
                <path d="M379.654239,14.3295 C379.301136,14.3295 378.944284,14.23875 378.61592,14.049 C377.623333,13.47525 377.283724,12.204 377.858735,11.2095 L383.639584,1.20975 C384.213846,0.216 385.483068,-0.1245 386.477905,0.4515 C387.470493,1.026 387.810102,2.298 387.235841,3.29175 L381.454991,13.2915 C381.069651,13.95675 380.371691,14.3295 379.654239,14.3295" id="Fill-60" fill="#5A3513" sketch:type="MSShapeGroup" mask="url(#mask-2)"></path>
                <path d="M385.872907,14.3295 C385.519803,14.3295 385.162951,14.23875 384.834588,14.049 C383.842,13.47525 383.502391,12.204 384.077402,11.2095 L389.857502,1.20975 C390.431763,0.216 391.700986,-0.1245 392.696573,0.4515 C393.689161,1.026 394.02877,2.298 393.453758,3.29175 L387.672909,13.2915 C387.288319,13.95675 386.590359,14.3295 385.872907,14.3295" id="Fill-61" fill="#5A3513" sketch:type="MSShapeGroup" mask="url(#mask-2)"></path>
                <path d="M392.092324,14.3295 C391.73922,14.3295 391.382369,14.23875 391.054005,14.049 C390.061417,13.47525 389.721808,12.204 390.296819,11.2095 L396.076919,1.20975 C396.651181,0.216 397.920403,-0.1245 398.91524,0.4515 C399.908578,1.026 400.248187,2.298 399.673176,3.29175 L393.892326,13.2915 C393.507736,13.95675 392.809776,14.3295 392.092324,14.3295" id="Fill-62" fill="#5A3513" sketch:type="MSShapeGroup" mask="url(#mask-2)"></path>
                <path d="M398.310991,14.3295 C397.957888,14.3295 397.601036,14.23875 397.272672,14.049 C396.280085,13.47525 395.940476,12.204 396.514737,11.2095 L402.295587,1.20975 C402.869848,0.216 404.138321,-0.1245 405.134658,0.4515 C406.127245,1.026 406.466854,2.298 405.891843,3.29175 L400.110994,13.2915 C399.726403,13.95675 399.028443,14.3295 398.310991,14.3295" id="Fill-63" fill="#5A3513" sketch:type="MSShapeGroup" mask="url(#mask-2)"></path>
                <path d="M404.530408,14.3295 C404.177305,14.3295 403.820453,14.23875 403.49209,14.049 C402.499502,13.47525 402.159893,12.204 402.734154,11.2095 L408.515004,1.20975 C409.089265,0.216 410.358488,-0.1245 411.353325,0.4515 C412.346663,1.026 412.686271,2.298 412.11126,3.29175 L406.330411,13.2915 C405.945071,13.95675 405.247861,14.3295 404.530408,14.3295" id="Fill-64" fill="#5A3513" sketch:type="MSShapeGroup" mask="url(#mask-2)"></path>
                <path d="M410.749076,14.3295 C410.395973,14.3295 410.038371,14.23875 409.711507,14.049 C408.718169,13.47525 408.37856,12.204 408.952822,11.21025 L414.732922,1.2105 C415.306433,0.216 416.577156,-0.1245 417.570493,0.4515 C418.56458,1.026 418.904189,2.298 418.329178,3.291 L412.549078,13.29075 C412.164488,13.95675 411.466528,14.3295 410.749076,14.3295" id="Fill-65" fill="#5A3513" sketch:type="MSShapeGroup" mask="url(#mask-2)"></path>
                <path d="M416.966994,14.3295 C416.61389,14.3295 416.256289,14.23875 415.928675,14.049 C414.936087,13.47525 414.595729,12.204 415.17074,11.2095 L420.951589,1.20975 C421.525851,0.216 422.794324,-0.1245 423.78991,0.4515 C424.782498,1.026 425.122857,2.298 424.547846,3.29175 L418.766996,13.2915 C418.381656,13.95675 417.684446,14.3295 416.966994,14.3295" id="Fill-66" fill="#5A3513" sketch:type="MSShapeGroup" mask="url(#mask-2)"></path>
                <path d="M423.186411,14.3295 C422.833308,14.3295 422.475706,14.23875 422.148092,14.049 C421.155504,13.47525 420.815146,12.204 421.390157,11.2095 L427.171006,1.20975 C427.745268,0.216 429.014491,-0.1245 430.009328,0.4515 C431.001915,1.026 431.342274,2.298 430.767263,3.29175 L424.986413,13.2915 C424.601073,13.95675 423.903863,14.3295 423.186411,14.3295" id="Fill-67" fill="#5A3513" sketch:type="MSShapeGroup" mask="url(#mask-2)"></path>
                <path d="M429.404329,14.3295 C429.051975,14.3295 428.694374,14.23875 428.36676,14.049 C427.373422,13.47525 427.033813,12.204 427.608824,11.2095 L433.389674,1.20975 C433.963186,0.216 435.232408,-0.1245 436.227995,0.4515 C437.220583,1.026 437.560192,2.298 436.98593,3.29175 L431.205081,13.2915 C430.819741,13.95675 430.122531,14.3295 429.404329,14.3295" id="Fill-68" fill="#5A3513" sketch:type="MSShapeGroup" mask="url(#mask-2)"></path>
                <path d="M435.622996,14.3295 C435.270643,14.3295 434.913041,14.23875 434.585427,14.049 C433.59209,13.47525 433.252481,12.204 433.827492,11.2095 L439.608341,1.20975 C440.182603,0.216 441.451076,-0.1245 442.446663,0.4515 C443.43925,1.026 443.778859,2.298 443.204598,3.29175 L437.423748,13.2915 C437.038408,13.95675 436.340448,14.3295 435.622996,14.3295" id="Fill-69" fill="#5A3513" sketch:type="MSShapeGroup" mask="url(#mask-2)"></path>
                <path d="M441.841664,14.3295 C441.48931,14.3295 441.131709,14.23875 440.804095,14.049 C439.810757,13.47525 439.471148,12.204 440.046159,11.2095 L445.827009,1.20975 C446.400521,0.216 447.670493,-0.1245 448.66533,0.4515 C449.657918,1.026 449.997527,2.298 449.423265,3.29175 L443.642416,13.2915 C443.257076,13.95675 442.559116,14.3295 441.841664,14.3295" id="Fill-70" fill="#5A3513" sketch:type="MSShapeGroup" mask="url(#mask-2)"></path>
                <path d="M448.060331,14.3295 C447.707228,14.3295 447.350376,14.23875 447.023512,14.049 C446.029425,13.47525 445.689816,12.204 446.264827,11.21025 L452.044927,1.2105 C452.617689,0.216 453.889161,-0.1245 454.882498,0.4515 C455.875836,1.026 456.215445,2.298 455.641183,3.291 L449.861083,13.29075 C449.476493,13.95675 448.777783,14.3295 448.060331,14.3295" id="Fill-71" fill="#5A3513" sketch:type="MSShapeGroup" mask="url(#mask-2)"></path>
                <path d="M454.278999,14.3295 C453.926645,14.3295 453.569044,14.23875 453.24068,14.049 C452.248092,13.47525 451.908483,12.204 452.483494,11.2095 L458.264344,1.20975 C458.838605,0.216 460.107078,-0.1245 461.102665,0.4515 C462.095253,1.026 462.434862,2.298 461.8606,3.29175 L456.079751,13.2915 C455.694411,13.95675 454.996451,14.3295 454.278999,14.3295" id="Fill-72" fill="#5A3513" sketch:type="MSShapeGroup" mask="url(#mask-2)"></path>
                <path d="M460.497666,14.3295 C460.144563,14.3295 459.787711,14.23875 459.459347,14.049 C458.46676,13.47525 458.127151,12.204 458.702162,11.2095 L464.483011,1.20975 C465.056523,0.216 466.325746,-0.1245 467.321333,0.4515 C468.31392,1.026 468.653529,2.298 468.078518,3.29175 L462.298418,13.2915 C461.913078,13.95675 461.215118,14.3295 460.497666,14.3295" id="Fill-73" fill="#5A3513" sketch:type="MSShapeGroup" mask="url(#mask-2)"></path>
                <path d="M466.716334,14.3295 C466.36323,14.3295 466.006379,14.23875 465.678015,14.049 C464.685427,13.47525 464.345818,12.204 464.920829,11.2095 L470.700929,1.20975 C471.275191,0.216 472.544413,-0.1245 473.54,0.4515 C474.532588,1.026 474.872197,2.298 474.297186,3.29175 L468.516336,13.2915 C468.131746,13.95675 467.433786,14.3295 466.716334,14.3295" id="Fill-74" fill="#5A3513" sketch:type="MSShapeGroup" mask="url(#mask-2)"></path>
                <path d="M472.935751,14.3295 C472.582648,14.3295 472.225796,14.23875 471.897432,14.049 C470.904844,13.47525 470.565235,12.204 471.139497,11.2095 L476.920346,1.20975 C477.494608,0.216 478.763081,-0.1245 479.759417,0.4515 C480.752005,1.026 481.091614,2.298 480.516603,3.29175 L474.735753,13.2915 C474.351163,13.95675 473.653203,14.3295 472.935751,14.3295" id="Fill-75" fill="#5A3513" sketch:type="MSShapeGroup" mask="url(#mask-2)"></path>
                <path d="M479.154418,14.3295 C478.801315,14.3295 478.444463,14.23875 478.116849,14.049 C477.123512,13.47525 476.783903,12.204 477.358164,11.21025 L483.138264,1.2105 C483.711776,0.216 484.982498,-0.1245 485.975836,0.4515 C486.969923,1.026 487.309532,2.298 486.734521,3.291 L480.954421,13.29075 C480.57058,13.95675 479.87187,14.3295 479.154418,14.3295" id="Fill-76" fill="#5A3513" sketch:type="MSShapeGroup" mask="url(#mask-2)"></path>
                <path d="M485.372336,14.3295 C485.019233,14.3295 484.662381,14.23875 484.334017,14.049 C483.34143,13.47525 483.001821,12.204 483.576082,11.2095 L489.356932,1.20975 C489.931193,0.216 491.200416,-0.1245 492.195253,0.4515 C493.18859,1.026 493.528199,2.298 492.953188,3.29175 L487.172339,13.2915 C486.787748,13.95675 486.089788,14.3295 485.372336,14.3295" id="Fill-77" fill="#5A3513" sketch:type="MSShapeGroup" mask="url(#mask-2)"></path>
                <path d="M491.591753,14.3295 C491.23865,14.3295 490.881049,14.23875 490.553435,14.049 C489.560847,13.47525 489.221238,12.204 489.795499,11.2095 L495.576349,1.20975 C496.15061,0.216 497.419083,-0.1245 498.41467,0.4515 C499.408007,1.026 499.747616,2.298 499.172605,3.29175 L493.391756,13.2915 C493.006416,13.95675 492.309205,14.3295 491.591753,14.3295" id="Fill-78" fill="#5A3513" sketch:type="MSShapeGroup" mask="url(#mask-2)"></path>
                <path d="M497.810421,14.3295 C497.457318,14.3295 497.099716,14.23875 496.772102,14.049 C495.779514,13.47525 495.439156,12.204 496.014167,11.2095 L501.795016,1.20975 C502.369278,0.216 503.638501,-0.1245 504.633337,0.4515 C505.625925,1.026 505.966284,2.298 505.391273,3.29175 L499.610423,13.2915 C499.225083,13.95675 498.527873,14.3295 497.810421,14.3295" id="Fill-79" fill="#5A3513" sketch:type="MSShapeGroup" mask="url(#mask-2)"></path>
                <path d="M504.029088,14.3295 C503.676735,14.3295 503.319133,14.23875 502.991519,14.049 C501.998932,13.47525 501.658573,12.204 502.233584,11.2095 L508.014433,1.20975 C508.588695,0.216 509.857168,-0.1245 510.852755,0.4515 C511.845342,1.026 512.184951,2.298 511.61069,3.29175 L505.829841,13.2915 C505.444501,13.95675 504.74729,14.3295 504.029088,14.3295" id="Fill-80" fill="#5A3513" sketch:type="MSShapeGroup" mask="url(#mask-2)"></path>
                <path d="M510.247756,14.3295 C509.895402,14.3295 509.537801,14.23875 509.210187,14.049 C508.216849,13.47525 507.87724,12.204 508.452252,11.2095 L514.233101,1.20975 C514.806613,0.216 516.076585,-0.1245 517.071422,0.4515 C518.06401,1.026 518.403619,2.298 517.829357,3.29175 L512.048508,13.2915 C511.663168,13.95675 510.965208,14.3295 510.247756,14.3295" id="Fill-81" fill="#5A3513" sketch:type="MSShapeGroup" mask="url(#mask-2)"></path>
                <path d="M516.466423,14.3295 C516.11407,14.3295 515.756468,14.23875 515.428854,14.049 C514.435517,13.47525 514.095908,12.204 514.670919,11.2095 L520.451768,1.20975 C521.02603,0.216 522.294503,-0.1245 523.29009,0.4515 C524.282677,1.026 524.622286,2.298 524.048025,3.29175 L518.267176,13.2915 C517.881836,13.95675 517.183875,14.3295 516.466423,14.3295" id="Fill-82" fill="#5A3513" sketch:type="MSShapeGroup" mask="url(#mask-2)"></path>
                <path d="M522.685841,14.3295 C522.333487,14.3295 521.975885,14.23875 521.648271,14.049 C520.654934,13.47525 520.315325,12.204 520.890336,11.2095 L526.671186,1.20975 C527.244697,0.216 528.51467,-0.1245 529.509507,0.4515 C530.502095,1.026 530.841704,2.298 530.267442,3.29175 L524.486593,13.2915 C524.101253,13.95675 523.403293,14.3295 522.685841,14.3295" id="Fill-83" fill="#5A3513" sketch:type="MSShapeGroup" mask="url(#mask-2)"></path>
                <path d="M528.904508,14.3295 C528.551405,14.3295 528.194553,14.23875 527.866189,14.049 C526.873601,13.47525 526.533993,12.204 527.109004,11.2095 L532.889853,1.20975 C533.464115,0.216 534.733337,-0.1245 535.728174,0.4515 C536.720762,1.026 537.060371,2.298 536.48536,3.29175 L530.70526,13.2915 C530.31992,13.95675 529.62196,14.3295 528.904508,14.3295" id="Fill-84" fill="#5A3513" sketch:type="MSShapeGroup" mask="url(#mask-2)"></path>
                <path d="M535.123925,14.3295 C534.770822,14.3295 534.41397,14.23875 534.085606,14.049 C533.093019,13.47525 532.75341,12.204 533.328421,11.2095 L539.10927,1.20975 C539.682782,0.216 540.952005,-0.1245 541.947592,0.4515 C542.940179,1.026 543.279788,2.298 542.704777,3.29175 L536.923928,13.2915 C536.539337,13.95675 535.841377,14.3295 535.123925,14.3295" id="Fill-85" fill="#5A3513" sketch:type="MSShapeGroup" mask="url(#mask-2)"></path>
                <path d="M541.342593,14.3295 C540.989489,14.3295 540.632638,14.23875 540.304274,14.049 C539.311686,13.47525 538.972077,12.204 539.546339,11.2095 L545.327188,1.20975 C545.902199,0.216 547.170672,-0.1245 548.166259,0.4515 C549.158847,1.026 549.498456,2.298 548.923445,3.29175 L543.142595,13.2915 C542.758005,13.95675 542.060045,14.3295 541.342593,14.3295" id="Fill-86" fill="#5A3513" sketch:type="MSShapeGroup" mask="url(#mask-2)"></path>
                <path d="M547.56126,14.3295 C547.208157,14.3295 546.851305,14.23875 546.522941,14.049 C545.530354,13.47525 545.190745,12.204 545.765006,11.2095 L551.545856,1.20975 C552.120117,0.216 553.38859,-0.1245 554.384927,0.4515 C555.377514,1.026 555.717123,2.298 555.142112,3.29175 L549.361263,13.2915 C548.976672,13.95675 548.278712,14.3295 547.56126,14.3295" id="Fill-87" fill="#5A3513" sketch:type="MSShapeGroup" mask="url(#mask-2)"></path>
                <path d="M553.780677,14.3295 C553.427574,14.3295 553.070722,14.23875 552.742359,14.049 C551.749771,13.47525 551.410162,12.204 551.984423,11.2095 L557.765273,1.20975 C558.339534,0.216 559.608757,-0.1245 560.603594,0.4515 C561.596932,1.026 561.93654,2.298 561.361529,3.29175 L555.58068,13.2915 C555.19534,13.95675 554.49813,14.3295 553.780677,14.3295" id="Fill-88" fill="#5A3513" sketch:type="MSShapeGroup" mask="url(#mask-2)"></path>
                <path d="M559.999345,14.3295 C559.646242,14.3295 559.28939,14.23875 558.961776,14.049 C557.968438,13.47525 557.628829,12.204 558.203091,11.21025 L563.983191,1.2105 C564.556702,0.216 565.827425,-0.1245 566.820762,0.4515 C567.814849,1.026 568.154458,2.298 567.579447,3.291 L561.799347,13.29075 C561.414757,13.95675 560.716797,14.3295 559.999345,14.3295" id="Fill-89" fill="#5A3513" sketch:type="MSShapeGroup" mask="url(#mask-2)"></path>
                <path d="M566.217263,14.3295 C565.864159,14.3295 565.506558,14.23875 565.178944,14.049 C564.186356,13.47525 563.846747,12.204 564.421009,11.2095 L570.201858,1.20975 C570.77612,0.216 572.044593,-0.1245 573.040179,0.4515 C574.033517,1.026 574.373126,2.298 573.798115,3.29175 L568.017265,13.2915 C567.631925,13.95675 566.934715,14.3295 566.217263,14.3295" id="Fill-90" fill="#5A3513" sketch:type="MSShapeGroup" mask="url(#mask-2)"></path>
                <path d="M572.43668,14.3295 C572.083577,14.3295 571.725975,14.23875 571.398361,14.049 C570.405773,13.47525 570.065415,12.204 570.640426,11.2095 L576.421275,1.20975 C576.995537,0.216 578.26476,-0.1245 579.259597,0.4515 C580.252184,1.026 580.591793,2.298 580.017532,3.29175 L574.236682,13.2915 C573.851342,13.95675 573.154132,14.3295 572.43668,14.3295" id="Fill-91" fill="#5A3513" sketch:type="MSShapeGroup" mask="url(#mask-2)"></path>
                <path d="M578.654598,14.3295 C578.302244,14.3295 577.944643,14.23875 577.617029,14.049 C576.624441,13.47525 576.284082,12.204 576.859093,11.2095 L582.639943,1.20975 C583.214204,0.216 584.482677,-0.1245 585.478264,0.4515 C586.470852,1.026 586.810461,2.298 586.236199,3.29175 L580.45535,13.2915 C580.07001,13.95675 579.3728,14.3295 578.654598,14.3295" id="Fill-92" fill="#5A3513" sketch:type="MSShapeGroup" mask="url(#mask-2)"></path>
                <path d="M584.874015,14.3295 C584.521661,14.3295 584.16406,14.23875 583.837196,14.049 C582.843108,13.47525 582.503499,12.204 583.078511,11.21025 L588.857861,1.2105 C589.431372,0.216 590.702844,-0.1245 591.695432,0.4515 C592.68877,1.026 593.028379,2.298 592.454117,3.291 L586.674767,13.29075 C586.290177,13.95675 585.591467,14.3295 584.874015,14.3295" id="Fill-93" fill="#5A3513" sketch:type="MSShapeGroup" mask="url(#mask-2)"></path>
                <path d="M591.091933,14.3295 C590.739579,14.3295 590.381978,14.23875 590.054364,14.049 C589.061026,13.47525 588.721417,12.204 589.296428,11.2095 L595.077278,1.20975 C595.65079,0.216 596.920762,-0.1245 597.915599,0.4515 C598.908187,1.026 599.247796,2.298 598.673534,3.29175 L592.892685,13.2915 C592.507345,13.95675 591.809385,14.3295 591.091933,14.3295" id="Fill-94" fill="#5A3513" sketch:type="MSShapeGroup" mask="url(#mask-2)"></path>
                <path d="M597.3106,14.3295 C596.958247,14.3295 596.600645,14.23875 596.273781,14.049 C595.279694,13.47525 594.940085,12.204 595.515096,11.21025 L601.295196,1.2105 C601.867958,0.216 603.13943,-0.1245 604.132767,0.4515 C605.126105,1.026 605.465714,2.298 604.891452,3.291 L599.111352,13.29075 C598.726762,13.95675 598.028052,14.3295 597.3106,14.3295" id="Fill-95" fill="#5A3513" sketch:type="MSShapeGroup" mask="url(#mask-2)"></path>
                <path d="M603.529268,14.3295 C603.176914,14.3295 602.819313,14.23875 602.490949,14.049 C601.498361,13.47525 601.158752,12.204 601.733763,11.2095 L607.514613,1.20975 C608.088874,0.216 609.357347,-0.1245 610.352934,0.4515 C611.345522,1.026 611.685131,2.298 611.11012,3.29175 L605.33002,13.2915 C604.94468,13.95675 604.24672,14.3295 603.529268,14.3295" id="Fill-96" fill="#5A3513" sketch:type="MSShapeGroup" mask="url(#mask-2)"></path>
                <path d="M609.747609,14.3295 C609.393756,14.3295 609.036904,14.23875 608.70929,14.049 C607.715953,13.47525 607.376344,12.204 607.950605,11.2095 L613.731455,1.20975 C614.306466,0.21525 615.576438,-0.123 616.569776,0.4515 C617.563113,1.026 617.902722,2.298 617.328461,3.29175 L611.547611,13.2915 C611.162271,13.95675 610.464311,14.3295 609.747609,14.3295" id="Fill-1" fill="#5A3513" sketch:type="MSShapeGroup" mask="url(#mask-2)"></path>
                <path d="M615.966276,14.3295 C615.613173,14.3295 615.255572,14.23875 614.927958,14.049 C613.93462,13.47525 613.595011,12.204 614.170022,11.2095 L619.950122,1.20975 C620.524384,0.21525 621.795856,-0.123 622.789193,0.4515 C623.781781,1.026 624.12139,2.298 623.547128,3.29175 L617.766279,13.2915 C617.381689,13.95675 616.683729,14.3295 615.966276,14.3295" id="Fill-2" fill="#5A3513" sketch:type="MSShapeGroup" mask="url(#mask-2)"></path>
                <path d="M622.184944,14.3295 C621.831841,14.3295 621.474989,14.23875 621.147375,14.049 C620.154037,13.47525 619.814428,12.204 620.38869,11.2095 L626.169539,1.20975 C626.743051,0.216 628.012274,-0.1245 629.007861,0.4515 C630.001198,1.026 630.340807,2.298 629.765796,3.29175 L623.985696,13.2915 C623.600356,13.95675 622.902396,14.3295 622.184944,14.3295" id="Fill-3" fill="#5A3513" sketch:type="MSShapeGroup" mask="url(#mask-2)"></path>
                <path d="M628.403611,14.3295 C628.050508,14.3295 627.693656,14.23875 627.366042,14.049 C626.372705,13.47525 626.033096,12.204 626.607357,11.21025 L632.387457,1.2105 C632.960969,0.216 634.231691,-0.1245 635.225029,0.4515 C636.219116,1.026 636.558725,2.298 635.983714,3.291 L630.203614,13.29075 C629.819773,13.95675 629.121064,14.3295 628.403611,14.3295" id="Fill-4" fill="#5A3513" sketch:type="MSShapeGroup" mask="url(#mask-2)"></path>
                <path d="M634.622279,14.3295 C634.269176,14.3295 633.911574,14.23875 633.58396,14.049 C632.591372,13.47525 632.251763,12.204 632.826025,11.2095 L638.606874,1.20975 C639.181885,0.216 640.449609,-0.1245 641.445196,0.4515 C642.438533,1.026 642.778142,2.298 642.203131,3.29175 L636.422281,13.2915 C636.036941,13.95675 635.339731,14.3295 634.622279,14.3295" id="Fill-5" fill="#5A3513" sketch:type="MSShapeGroup" mask="url(#mask-2)"></path>
                <path d="M640.840946,14.3295 C640.487843,14.3295 640.130242,14.23875 639.802628,14.049 C638.81004,13.47525 638.470431,12.204 639.044692,11.2095 L644.825542,1.20975 C645.399803,0.216 646.668276,-0.1245 647.663863,0.4515 C648.656451,1.026 648.996809,2.298 648.421798,3.29175 L642.640949,13.2915 C642.255609,13.95675 641.558399,14.3295 640.840946,14.3295" id="Fill-6" fill="#5A3513" sketch:type="MSShapeGroup" mask="url(#mask-2)"></path>
                <path d="M647.059614,14.3295 C646.706511,14.3295 646.348909,14.23875 646.021295,14.049 C645.028707,13.47525 644.688349,12.204 645.26336,11.2095 L651.044209,1.20975 C651.618471,0.216 652.887694,-0.1245 653.882531,0.4515 C654.875118,1.026 655.215477,2.298 654.640466,3.29175 L648.859616,13.2915 C648.474276,13.95675 647.777066,14.3295 647.059614,14.3295" id="Fill-7" fill="#5A3513" sketch:type="MSShapeGroup" mask="url(#mask-2)"></path>
                <path d="M653.278281,14.3295 C652.925928,14.3295 652.568326,14.23875 652.240712,14.049 C651.248125,13.47525 650.907766,12.204 651.482777,11.2095 L657.263626,1.20975 C657.837138,0.216 659.106361,-0.1245 660.101948,0.4515 C661.094535,1.026 661.434144,2.298 660.859883,3.29175 L655.079034,13.2915 C654.693694,13.95675 653.995733,14.3295 653.278281,14.3295" id="Fill-8" fill="#5A3513" sketch:type="MSShapeGroup" mask="url(#mask-2)"></path>
                <path d="M659.496949,14.3295 C659.144595,14.3295 658.786994,14.23875 658.45938,14.049 C657.466042,13.47525 657.126433,12.204 657.701445,11.2095 L663.482294,1.20975 C664.055806,0.216 665.325778,-0.1245 666.320615,0.4515 C667.313203,1.026 667.652812,2.298 667.07855,3.29175 L661.297701,13.2915 C660.912361,13.95675 660.214401,14.3295 659.496949,14.3295" id="Fill-9" fill="#5A3513" sketch:type="MSShapeGroup" mask="url(#mask-2)"></path>
                <path d="M665.715616,14.3295 C665.363263,14.3295 665.005661,14.23875 664.678047,14.049 C663.68471,13.47525 663.345101,12.204 663.920112,11.2095 L669.700961,1.20975 C670.275223,0.216 671.544446,-0.1245 672.539283,0.4515 C673.53187,1.026 673.871479,2.298 673.297218,3.29175 L667.516369,13.2915 C667.131029,13.95675 666.433068,14.3295 665.715616,14.3295" id="Fill-10" fill="#5A3513" sketch:type="MSShapeGroup" mask="url(#mask-2)"></path>
                <path d="M671.935034,14.3295 C671.58268,14.3295 671.225078,14.23875 670.896715,14.049 C669.904127,13.47525 669.564518,12.204 670.139529,11.2095 L675.920379,1.20975 C676.49389,0.216 677.763113,-0.1245 678.7587,0.4515 C679.751288,1.026 680.090897,2.298 679.516635,3.29175 L673.735786,13.2915 C673.350446,13.95675 672.652486,14.3295 671.935034,14.3295" id="Fill-11" fill="#5A3513" sketch:type="MSShapeGroup" mask="url(#mask-2)"></path>
                <path d="M678.153701,14.3295 C677.800598,14.3295 677.443746,14.23875 677.115382,14.049 C676.122795,13.47525 675.783186,12.204 676.358197,11.2095 L682.139046,1.20975 C682.712558,0.216 683.981781,-0.1245 684.977367,0.4515 C685.969955,1.026 686.309564,2.298 685.734553,3.29175 L679.953704,13.2915 C679.569113,13.95675 678.871153,14.3295 678.153701,14.3295" id="Fill-12" fill="#5A3513" sketch:type="MSShapeGroup" mask="url(#mask-2)"></path>
                <path d="M684.372369,14.3295 C684.019265,14.3295 683.662413,14.23875 683.33405,14.049 C682.341462,13.47525 682.001853,12.204 682.576115,11.2095 L688.357714,1.20975 C688.931225,0.216 690.199699,-0.1245 691.196035,0.4515 C692.188623,1.026 692.528232,2.298 691.95322,3.29175 L686.172371,13.2915 C685.787781,13.95675 685.089821,14.3295 684.372369,14.3295" id="Fill-13" fill="#5A3513" sketch:type="MSShapeGroup" mask="url(#mask-2)"></path>
                <path d="M690.591786,14.3295 C690.238682,14.3295 689.881831,14.23875 689.553467,14.049 C688.560879,13.47525 688.22127,12.204 688.795532,11.2095 L694.576381,1.20975 C695.150643,0.216 696.419866,-0.1245 697.415452,0.4515 C698.40804,1.026 698.747649,2.298 698.172638,3.29175 L692.391788,13.2915 C692.007198,13.95675 691.309238,14.3295 690.591786,14.3295" id="Fill-14" fill="#5A3513" sketch:type="MSShapeGroup" mask="url(#mask-2)"></path>
                <path d="M696.810453,14.3295 C696.45735,14.3295 696.100498,14.23875 695.772134,14.049 C694.779547,13.47525 694.439938,12.204 695.014199,11.2095 L700.795049,1.20975 C701.36931,0.216 702.637783,-0.1245 703.63337,0.4515 C704.626707,1.026 704.966316,2.298 704.391305,3.29175 L698.610456,13.2915 C698.225866,13.95675 697.527905,14.3295 696.810453,14.3295" id="Fill-15" fill="#5A3513" sketch:type="MSShapeGroup" mask="url(#mask-2)"></path>
                <path d="M703.02987,14.3295 C702.676767,14.3295 702.319915,14.23875 701.991552,14.049 C700.998964,13.47525 700.659355,12.204 701.233616,11.2095 L707.014466,1.20975 C707.588727,0.216 708.85795,-0.1245 709.852787,0.4515 C710.846125,1.026 711.185733,2.298 710.610722,3.29175 L704.829873,13.2915 C704.445283,13.95675 703.747323,14.3295 703.02987,14.3295" id="Fill-16" fill="#5A3513" sketch:type="MSShapeGroup" mask="url(#mask-2)"></path>
                <path d="M709.248538,14.3295 C708.895435,14.3295 708.537833,14.23875 708.210969,14.049 C707.217631,13.47525 706.878022,12.204 707.452284,11.21025 L713.232384,1.2105 C713.805895,0.216 715.076618,-0.1245 716.069955,0.4515 C717.064042,1.026 717.403651,2.298 716.82864,3.291 L711.04854,13.29075 C710.66395,13.95675 709.96599,14.3295 709.248538,14.3295" id="Fill-17" fill="#5A3513" sketch:type="MSShapeGroup" mask="url(#mask-2)"></path>
                <path d="M715.466456,14.3295 C715.113352,14.3295 714.755751,14.23875 714.428137,14.049 C713.435549,13.47525 713.09594,12.204 713.670202,11.2095 L719.451051,1.20975 C720.025313,0.216 721.293786,-0.1245 722.289372,0.4515 C723.28196,1.026 723.622319,2.298 723.047308,3.29175 L717.266458,13.2915 C716.881118,13.95675 716.183908,14.3295 715.466456,14.3295" id="Fill-18" fill="#5A3513" sketch:type="MSShapeGroup" mask="url(#mask-2)"></path>
                <path d="M721.685873,14.3295 C721.33277,14.3295 720.975168,14.23875 720.647554,14.049 C719.654966,13.47525 719.314608,12.204 719.889619,11.2095 L725.670468,1.20975 C726.24473,0.216 727.513953,-0.1245 728.50879,0.4515 C729.501377,1.026 729.840986,2.298 729.266725,3.29175 L723.485875,13.2915 C723.100535,13.95675 722.403325,14.3295 721.685873,14.3295" id="Fill-19" fill="#5A3513" sketch:type="MSShapeGroup" mask="url(#mask-2)"></path>
                <path d="M727.90454,14.3295 C727.551437,14.3295 727.193836,14.23875 726.866222,14.049 C725.872884,13.47525 725.533275,12.204 726.108286,11.2095 L731.889136,1.20975 C732.463397,0.216 733.73262,-0.1245 734.727457,0.4515 C735.720045,1.026 736.059654,2.298 735.485392,3.29175 L729.704543,13.2915 C729.319203,13.95675 728.621993,14.3295 727.90454,14.3295" id="Fill-20" fill="#5A3513" sketch:type="MSShapeGroup" mask="url(#mask-2)"></path>
                <path d="M734.122458,14.3295 C733.770105,14.3295 733.412503,14.23875 733.084889,14.049 C732.091552,13.47525 731.751943,12.204 732.326954,11.2095 L738.107803,1.20975 C738.682065,0.216 739.950538,-0.1245 740.946125,0.4515 C741.938712,1.026 742.278321,2.298 741.70406,3.29175 L735.92321,13.2915 C735.53787,13.95675 734.83991,14.3295 734.122458,14.3295" id="Fill-21" fill="#5A3513" sketch:type="MSShapeGroup" mask="url(#mask-2)"></path>
                <path d="M740.341126,14.3295 C739.988772,14.3295 739.631171,14.23875 739.302807,14.049 C738.310219,13.47525 737.97061,12.204 738.545621,11.2095 L744.326471,1.20975 C744.899983,0.216 746.169955,-0.1245 747.164792,0.4515 C748.15738,1.026 748.496989,2.298 747.922727,3.29175 L742.141878,13.2915 C741.756538,13.95675 741.058578,14.3295 740.341126,14.3295" id="Fill-22" fill="#5A3513" sketch:type="MSShapeGroup" mask="url(#mask-2)"></path>
                <path d="M746.559793,14.3295 C746.20744,14.3295 745.849838,14.23875 745.522224,14.049 C744.528887,13.47525 744.189278,12.204 744.764289,11.21025 L750.544389,1.2105 C751.117151,0.216 752.388623,-0.1245 753.38196,0.4515 C754.375298,1.026 754.714907,2.298 754.140645,3.291 L748.360545,13.29075 C747.975955,13.95675 747.277245,14.3295 746.559793,14.3295" id="Fill-23" fill="#5A3513" sketch:type="MSShapeGroup" mask="url(#mask-2)"></path>
                <path d="M752.778461,14.3295 C752.425357,14.3295 752.068506,14.23875 751.740142,14.049 C750.747554,13.47525 750.407945,12.204 750.982956,11.2095 L756.763806,1.20975 C757.338067,0.216 758.60654,-0.1245 759.602127,0.4515 C760.594715,1.026 760.934324,2.298 760.359313,3.29175 L754.579213,13.2915 C754.193873,13.95675 753.495913,14.3295 752.778461,14.3295" id="Fill-24" fill="#5A3513" sketch:type="MSShapeGroup" mask="url(#mask-2)"></path>
                <path d="M758.997128,14.3295 C758.644025,14.3295 758.287173,14.23875 757.958809,14.049 C756.966222,13.47525 756.626613,12.204 757.201624,11.2095 L762.981724,1.20975 C763.555985,0.216 764.825208,-0.1245 765.820795,0.4515 C766.813382,1.026 767.152991,2.298 766.57798,3.29175 L760.797131,13.2915 C760.41254,13.95675 759.71458,14.3295 758.997128,14.3295" id="Fill-25" fill="#5A3513" sketch:type="MSShapeGroup" mask="url(#mask-2)"></path>
                <path d="M765.215796,14.3295 C764.862692,14.3295 764.505841,14.23875 764.177477,14.049 C763.184889,13.47525 762.84528,12.204 763.419542,11.2095 L769.200391,1.20975 C769.774653,0.216 771.043875,-0.1245 772.039462,0.4515 C773.03205,1.026 773.371659,2.298 772.796648,3.29175 L767.015798,13.2915 C766.631208,13.95675 765.933248,14.3295 765.215796,14.3295" id="Fill-26" fill="#5A3513" sketch:type="MSShapeGroup" mask="url(#mask-2)"></path>
                <path d="M771.435213,14.3295 C771.08211,14.3295 770.725258,14.23875 770.396894,14.049 C769.404306,13.47525 769.064697,12.204 769.638959,11.2095 L775.419808,1.20975 C775.99407,0.216 777.262543,-0.1245 778.258879,0.4515 C779.251467,1.026 779.591076,2.298 779.016065,3.29175 L773.235215,13.2915 C772.850625,13.95675 772.152665,14.3295 771.435213,14.3295" id="Fill-27" fill="#5A3513" sketch:type="MSShapeGroup" mask="url(#mask-2)"></path>
                <path d="M777.65388,14.3295 C777.300777,14.3295 776.943925,14.23875 776.616311,14.049 C775.622974,13.47525 775.283365,12.204 775.857626,11.21025 L781.637726,1.2105 C782.211238,0.216 783.48196,-0.1245 784.475298,0.4515 C785.469385,1.026 785.808994,2.298 785.233983,3.291 L779.453883,13.29075 C779.070042,13.95675 778.371333,14.3295 777.65388,14.3295" id="Fill-28" fill="#5A3513" sketch:type="MSShapeGroup" mask="url(#mask-2)"></path>
                <path d="M783.871798,14.3295 C783.518695,14.3295 783.161843,14.23875 782.833479,14.049 C781.840892,13.47525 781.501283,12.204 782.075544,11.2095 L787.856394,1.20975 C788.430655,0.216 789.699878,-0.1245 790.694715,0.4515 C791.688052,1.026 792.027661,2.298 791.45265,3.29175 L785.671801,13.2915 C785.28721,13.95675 784.58925,14.3295 783.871798,14.3295" id="Fill-29" fill="#5A3513" sketch:type="MSShapeGroup" mask="url(#mask-2)"></path>
                <path d="M790.091215,14.3295 C789.738112,14.3295 789.380511,14.23875 789.052897,14.049 C788.060309,13.47525 787.7207,12.204 788.294961,11.2095 L794.075811,1.20975 C794.650822,0.216 795.918545,-0.1245 796.914132,0.4515 C797.90672,1.026 798.247078,2.298 797.672067,3.29175 L791.891218,13.2915 C791.505878,13.95675 790.808667,14.3295 790.091215,14.3295" id="Fill-30" fill="#5A3513" sketch:type="MSShapeGroup" mask="url(#mask-2)"></path>
                <path d="M796.309883,14.3295 C795.95678,14.3295 795.599178,14.23875 795.271564,14.049 C794.278976,13.47525 793.939367,12.204 794.513629,11.2095 L800.294478,1.20975 C800.86874,0.216 802.137963,-0.1245 803.1328,0.4515 C804.125387,1.026 804.464996,2.298 803.890735,3.29175 L798.109885,13.2915 C797.724545,13.95675 797.027335,14.3295 796.309883,14.3295" id="Fill-31" fill="#5A3513" sketch:type="MSShapeGroup" mask="url(#mask-2)"></path>
                <path d="M802.5293,14.3295 C802.176197,14.3295 801.818595,14.23875 801.490981,14.049 C800.497644,13.47525 800.158035,12.204 800.733046,11.2095 L806.513895,1.20975 C807.087407,0.216 808.35663,-0.1245 809.352217,0.4515 C810.344804,1.026 810.684413,2.298 810.110152,3.29175 L804.329303,13.2915 C803.943963,13.95675 803.246752,14.3295 802.5293,14.3295" id="Fill-32" fill="#5A3513" sketch:type="MSShapeGroup" mask="url(#mask-2)"></path>
                <path d="M808.747218,14.3295 C808.394864,14.3295 808.037263,14.23875 807.709649,14.049 C806.716311,13.47525 806.376702,12.204 806.951714,11.2095 L812.732563,1.20975 C813.306824,0.216 814.576047,-0.1245 815.570884,0.4515 C816.563472,1.026 816.903081,2.298 816.328819,3.29175 L810.54797,13.2915 C810.16263,13.95675 809.46467,14.3295 808.747218,14.3295" id="Fill-33" fill="#5A3513" sketch:type="MSShapeGroup" mask="url(#mask-2)"></path>
                <path d="M814.965885,14.3295 C814.613532,14.3295 814.25593,14.23875 813.928316,14.049 C812.934979,13.47525 812.59537,12.204 813.170381,11.2095 L818.95123,1.20975 C819.525492,0.216 820.794715,-0.1245 821.789552,0.4515 C822.782139,1.026 823.121748,2.298 822.547487,3.29175 L816.766638,13.2915 C816.381298,13.95675 815.683337,14.3295 814.965885,14.3295" id="Fill-34" fill="#5A3513" sketch:type="MSShapeGroup" mask="url(#mask-2)"></path>
                <path d="M821.185303,14.3295 C820.832949,14.3295 820.475347,14.23875 820.147733,14.049 C819.154396,13.47525 818.814787,12.204 819.389798,11.2095 L825.170648,1.20975 C825.744159,0.216 827.014132,-0.1245 828.008969,0.4515 C829.001557,1.026 829.341166,2.298 828.766904,3.29175 L822.986055,13.2915 C822.600715,13.95675 821.902755,14.3295 821.185303,14.3295" id="Fill-35" fill="#5A3513" sketch:type="MSShapeGroup" mask="url(#mask-2)"></path>
                <path d="M827.40397,14.3295 C827.050867,14.3295 826.694015,14.23875 826.365651,14.049 C825.373064,13.47525 825.033455,12.204 825.608466,11.2095 L831.389315,1.20975 C831.963577,0.216 833.2328,-0.1245 834.227636,0.4515 C835.220224,1.026 835.559833,2.298 834.984822,3.29175 L829.204722,13.2915 C828.819382,13.95675 828.121422,14.3295 827.40397,14.3295" id="Fill-36" fill="#5A3513" sketch:type="MSShapeGroup" mask="url(#mask-2)"></path>
                <path d="M833.623387,14.3295 C833.270284,14.3295 832.913432,14.23875 832.585068,14.049 C831.592481,13.47525 831.252872,12.204 831.827133,11.2095 L837.608732,1.20975 C838.182244,0.216 839.450717,-0.1245 840.447054,0.4515 C841.439641,1.026 841.77925,2.298 841.204239,3.29175 L835.42339,13.2915 C835.0388,13.95675 834.340839,14.3295 833.623387,14.3295" id="Fill-37" fill="#5A3513" sketch:type="MSShapeGroup" mask="url(#mask-2)"></path>
                <path d="M839.842055,14.3295 C839.488951,14.3295 839.1321,14.23875 838.803736,14.049 C837.811148,13.47525 837.471539,12.204 838.04655,11.2095 L843.82665,1.20975 C844.400912,0.216 845.670134,-0.1245 846.665721,0.4515 C847.658309,1.026 847.997918,2.298 847.422907,3.29175 L841.642057,13.2915 C841.257467,13.95675 840.559507,14.3295 839.842055,14.3295" id="Fill-38" fill="#5A3513" sketch:type="MSShapeGroup" mask="url(#mask-2)"></path>
                <path d="M846.060722,14.3295 C845.707619,14.3295 845.350767,14.23875 845.022403,14.049 C844.029816,13.47525 843.690207,12.204 844.264468,11.2095 L850.045318,1.20975 C850.619579,0.216 851.888052,-0.1245 852.883639,0.4515 C853.876976,1.026 854.216585,2.298 853.641574,3.29175 L847.860725,13.2915 C847.476134,13.95675 846.778174,14.3295 846.060722,14.3295" id="Fill-39" fill="#5A3513" sketch:type="MSShapeGroup" mask="url(#mask-2)"></path>
                <path d="M852.280139,14.3295 C851.927036,14.3295 851.570184,14.23875 851.241821,14.049 C850.249233,13.47525 849.909624,12.204 850.483885,11.2095 L856.264735,1.20975 C856.838996,0.216 858.108219,-0.1245 859.103056,0.4515 C860.096394,1.026 860.436002,2.298 859.860991,3.29175 L854.080142,13.2915 C853.695552,13.95675 852.997592,14.3295 852.280139,14.3295" id="Fill-40" fill="#5A3513" sketch:type="MSShapeGroup" mask="url(#mask-2)"></path>
                <path d="M858.498807,14.3295 C858.145704,14.3295 857.788102,14.23875 857.461238,14.049 C856.4679,13.47525 856.128291,12.204 856.702553,11.21025 L862.482653,1.2105 C863.056164,0.216 864.326887,-0.1245 865.320224,0.4515 C866.314311,1.026 866.65392,2.298 866.078909,3.291 L860.298809,13.29075 C859.914219,13.95675 859.216259,14.3295 858.498807,14.3295" id="Fill-41" fill="#5A3513" sketch:type="MSShapeGroup" mask="url(#mask-2)"></path>
                <path d="M864.716725,14.3295 C864.363621,14.3295 864.00602,14.23875 863.678406,14.049 C862.685818,13.47525 862.346209,12.204 862.920471,11.2095 L868.70132,1.20975 C869.275582,0.216 870.544055,-0.1245 871.539641,0.4515 C872.532229,1.026 872.872588,2.298 872.297577,3.29175 L866.516727,13.2915 C866.131387,13.95675 865.434177,14.3295 864.716725,14.3295" id="Fill-42" fill="#5A3513" sketch:type="MSShapeGroup" mask="url(#mask-2)"></path>
                <path d="M870.936142,14.3295 C870.583039,14.3295 870.225437,14.23875 869.897823,14.049 C868.905235,13.47525 868.564877,12.204 869.139888,11.2095 L874.920737,1.20975 C875.494999,0.216 876.764222,-0.1245 877.759059,0.4515 C878.751646,1.026 879.092005,2.298 878.516994,3.29175 L872.736144,13.2915 C872.350804,13.95675 871.653594,14.3295 870.936142,14.3295" id="Fill-43" fill="#5A3513" sketch:type="MSShapeGroup" mask="url(#mask-2)"></path>
                <path d="M877.154809,14.3295 C876.801706,14.3295 876.444105,14.23875 876.116491,14.049 C875.123153,13.47525 874.783544,12.204 875.358555,11.2095 L881.139405,1.20975 C881.713666,0.216 882.982139,-0.1245 883.977726,0.4515 C884.970314,1.026 885.309923,2.298 884.735661,3.29175 L878.954812,13.2915 C878.569472,13.95675 877.872262,14.3295 877.154809,14.3295" id="Fill-44" fill="#5A3513" sketch:type="MSShapeGroup" mask="url(#mask-2)"></path>
                <path d="M883.373477,14.3295 C883.021123,14.3295 882.663522,14.23875 882.336658,14.049 C881.34257,13.47525 881.002961,12.204 881.577973,11.21025 L887.357323,1.2105 C887.930085,0.216 889.202306,-0.1245 890.194894,0.4515 C891.188232,1.026 891.527841,2.298 890.953579,3.291 L885.174229,13.29075 C884.789639,13.95675 884.090929,14.3295 883.373477,14.3295" id="Fill-45" fill="#5A3513" sketch:type="MSShapeGroup" mask="url(#mask-2)"></path>
                <path d="M889.591395,14.3295 C889.239041,14.3295 888.88144,14.23875 888.553076,14.049 C887.560488,13.47525 887.220879,12.204 887.79589,11.2095 L893.57674,1.20975 C894.150252,0.216 895.420224,-0.1245 896.415061,0.4515 C897.407649,1.026 897.747258,2.298 897.172996,3.29175 L891.392147,13.2915 C891.006807,13.95675 890.308847,14.3295 889.591395,14.3295" id="Fill-46" fill="#5A3513" sketch:type="MSShapeGroup" mask="url(#mask-2)"></path>
                <path d="M895.810062,14.3295 C895.456959,14.3295 895.100107,14.23875 894.772493,14.049 C893.779156,13.47525 893.439547,12.204 894.014558,11.21025 L899.794658,1.2105 C900.36742,0.216 901.638892,-0.1245 902.632229,0.4515 C903.625567,1.026 903.965176,2.298 903.390914,3.291 L897.610814,13.29075 C897.226224,13.95675 896.527514,14.3295 895.810062,14.3295" id="Fill-47" fill="#5A3513" sketch:type="MSShapeGroup" mask="url(#mask-2)"></path>
                <path d="M902.02873,14.3295 C901.676376,14.3295 901.318775,14.23875 900.990411,14.049 C899.997823,13.47525 899.658214,12.204 900.233225,11.2095 L906.014075,1.20975 C906.588336,0.216 907.856809,-0.1245 908.852396,0.4515 C909.844984,1.026 910.184593,2.298 909.610331,3.29175 L903.828732,13.2915 C903.444142,13.95675 902.746182,14.3295 902.02873,14.3295" id="Fill-48" fill="#5A3513" sketch:type="MSShapeGroup" mask="url(#mask-2)"></path>
                <path d="M908.247397,14.3295 C907.894294,14.3295 907.537442,14.23875 907.209078,14.049 C906.216491,13.47525 905.876882,12.204 906.451893,11.2095 L912.231993,1.20975 C912.806254,0.216 914.074727,-0.1245 915.071064,0.4515 C916.063651,1.026 916.40326,2.298 915.828249,3.29175 L910.0474,13.2915 C909.662809,13.95675 908.964849,14.3295 908.247397,14.3295" id="Fill-49" fill="#5A3513" sketch:type="MSShapeGroup" mask="url(#mask-2)"></path>
                <path d="M914.466065,14.3295 C914.112961,14.3295 913.75611,14.23875 913.427746,14.049 C912.435158,13.47525 912.095549,12.204 912.669811,11.2095 L918.45066,1.20975 C919.024922,0.216 920.294144,-0.1245 921.289731,0.4515 C922.282319,1.026 922.621928,2.298 922.046917,3.29175 L916.266067,13.2915 C915.881477,13.95675 915.183517,14.3295 914.466065,14.3295" id="Fill-50" fill="#5A3513" sketch:type="MSShapeGroup" mask="url(#mask-2)"></path>
                <path d="M920.685482,14.3295 C920.332379,14.3295 919.975527,14.23875 919.647163,14.049 C918.654575,13.47525 918.314966,12.204 918.889228,11.2095 L924.670077,1.20975 C925.244339,0.216 926.512812,-0.1245 927.509148,0.4515 C928.501736,1.026 928.841345,2.298 928.266334,3.29175 L922.485484,13.2915 C922.100894,13.95675 921.402934,14.3295 920.685482,14.3295" id="Fill-51" fill="#5A3513" sketch:type="MSShapeGroup" mask="url(#mask-2)"></path>
                <path d="M926.904149,14.3295 C926.551046,14.3295 926.194194,14.23875 925.86658,14.049 C924.873243,13.47525 924.533634,12.204 925.107895,11.21025 L930.887995,1.2105 C931.461507,0.216 932.732229,-0.1245 933.725567,0.4515 C934.719654,1.026 935.059263,2.298 934.484252,3.291 L928.704152,13.29075 C928.320311,13.95675 927.621601,14.3295 926.904149,14.3295" id="Fill-52" fill="#5A3513" sketch:type="MSShapeGroup" mask="url(#mask-2)"></path>
                <path d="M933.122817,14.3295 C932.769714,14.3295 932.412112,14.23875 932.084498,14.049 C931.09191,13.47525 930.752301,12.204 931.326563,11.2095 L937.107412,1.20975 C937.682423,0.216 938.950147,-0.1245 939.945733,0.4515 C940.938321,1.026 941.27868,2.298 940.703669,3.29175 L934.922819,13.2915 C934.537479,13.95675 933.840269,14.3295 933.122817,14.3295" id="Fill-53" fill="#5A3513" sketch:type="MSShapeGroup" mask="url(#mask-2)"></path>
                <path d="M939.341484,14.3295 C938.988381,14.3295 938.63078,14.23875 938.303166,14.049 C937.310578,13.47525 936.970969,12.204 937.54523,11.2095 L943.32608,1.20975 C943.900341,0.216 945.168814,-0.1245 946.164401,0.4515 C947.156989,1.026 947.497347,2.298 946.922336,3.29175 L941.141487,13.2915 C940.756147,13.95675 940.058936,14.3295 939.341484,14.3295" id="Fill-54" fill="#5A3513" sketch:type="MSShapeGroup" mask="url(#mask-2)"></path>
                <path d="M945.560152,14.3295 C945.207049,14.3295 944.849447,14.23875 944.521833,14.049 C943.529245,13.47525 943.189636,12.204 943.763898,11.2095 L949.544747,1.20975 C950.119009,0.216 951.388232,-0.1245 952.383068,0.4515 C953.375656,1.026 953.715265,2.298 953.141004,3.29175 L947.360154,13.2915 C946.974814,13.95675 946.277604,14.3295 945.560152,14.3295" id="Fill-55" fill="#5A3513" sketch:type="MSShapeGroup" mask="url(#mask-2)"></path>
                <path d="M951.779569,14.3295 C951.426466,14.3295 951.068864,14.23875 950.74125,14.049 C949.747913,13.47525 949.408304,12.204 949.983315,11.2095 L955.764164,1.20975 C956.337676,0.216 957.606899,-0.1245 958.602486,0.4515 C959.595073,1.026 959.934682,2.298 959.360421,3.29175 L953.579572,13.2915 C953.194232,13.95675 952.497021,14.3295 951.779569,14.3295" id="Fill-56" fill="#5A3513" sketch:type="MSShapeGroup" mask="url(#mask-2)"></path>
                <path d="M957.997487,14.3295 C957.645133,14.3295 957.287532,14.23875 956.959918,14.049 C955.96658,13.47525 955.626971,12.204 956.201983,11.2095 L961.982832,1.20975 C962.557093,0.216 963.826316,-0.1245 964.821153,0.4515 C965.813741,1.026 966.15335,2.298 965.579088,3.29175 L959.798239,13.2915 C959.412899,13.95675 958.714939,14.3295 957.997487,14.3295" id="Fill-57" fill="#5A3513" sketch:type="MSShapeGroup" mask="url(#mask-2)"></path>
                <path d="M964.216154,14.3295 C963.863801,14.3295 963.506199,14.23875 963.178585,14.049 C962.185248,13.47525 961.845639,12.204 962.42065,11.2095 L968.201499,1.20975 C968.775761,0.216 970.044984,-0.1245 971.039821,0.4515 C972.032408,1.026 972.372017,2.298 971.797756,3.29175 L966.016907,13.2915 C965.631567,13.95675 964.933606,14.3295 964.216154,14.3295" id="Fill-58" fill="#5A3513" sketch:type="MSShapeGroup" mask="url(#mask-2)"></path>
                <path d="M970.435572,14.3295 C970.083218,14.3295 969.725616,14.23875 969.398002,14.049 C968.404665,13.47525 968.065056,12.204 968.640067,11.2095 L974.420917,1.20975 C974.994428,0.216 976.264401,-0.1245 977.259238,0.4515 C978.251826,1.026 978.591435,2.298 978.017173,3.29175 L972.236324,13.2915 C971.850984,13.95675 971.153024,14.3295 970.435572,14.3295" id="Fill-59" fill="#5A3513" sketch:type="MSShapeGroup" mask="url(#mask-2)"></path>
                <path d="M976.654239,14.3295 C976.301136,14.3295 975.944284,14.23875 975.61592,14.049 C974.623333,13.47525 974.283724,12.204 974.858735,11.2095 L980.639584,1.20975 C981.213846,0.216 982.483068,-0.1245 983.477905,0.4515 C984.470493,1.026 984.810102,2.298 984.235841,3.29175 L978.454991,13.2915 C978.069651,13.95675 977.371691,14.3295 976.654239,14.3295" id="Fill-60" fill="#5A3513" sketch:type="MSShapeGroup" mask="url(#mask-2)"></path>
                <path d="M982.872907,14.3295 C982.519803,14.3295 982.162951,14.23875 981.834588,14.049 C980.842,13.47525 980.502391,12.204 981.077402,11.2095 L986.857502,1.20975 C987.431763,0.216 988.700986,-0.1245 989.696573,0.4515 C990.689161,1.026 991.02877,2.298 990.453758,3.29175 L984.672909,13.2915 C984.288319,13.95675 983.590359,14.3295 982.872907,14.3295" id="Fill-61" fill="#5A3513" sketch:type="MSShapeGroup" mask="url(#mask-2)"></path>
                <path d="M989.092324,14.3295 C988.73922,14.3295 988.382369,14.23875 988.054005,14.049 C987.061417,13.47525 986.721808,12.204 987.296819,11.2095 L993.076919,1.20975 C993.651181,0.216 994.920403,-0.1245 995.91524,0.4515 C996.908578,1.026 997.248187,2.298 996.673176,3.29175 L990.892326,13.2915 C990.507736,13.95675 989.809776,14.3295 989.092324,14.3295" id="Fill-62" fill="#5A3513" sketch:type="MSShapeGroup" mask="url(#mask-2)"></path>
                <path d="M995.310991,14.3295 C994.957888,14.3295 994.601036,14.23875 994.272672,14.049 C993.280085,13.47525 992.940476,12.204 993.514737,11.2095 L999.295587,1.20975 C999.869848,0.216 1001.13832,-0.1245 1002.13466,0.4515 C1003.12725,1.026 1003.46685,2.298 1002.89184,3.29175 L997.110994,13.2915 C996.726403,13.95675 996.028443,14.3295 995.310991,14.3295" id="Fill-63" fill="#5A3513" sketch:type="MSShapeGroup" mask="url(#mask-2)"></path>
                <path d="M1001.53041,14.3295 C1001.17731,14.3295 1000.82045,14.23875 1000.49209,14.049 C999.499502,13.47525 999.159893,12.204 999.734154,11.2095 L1005.515,1.20975 C1006.08927,0.216 1007.35849,-0.1245 1008.35333,0.4515 C1009.34666,1.026 1009.68627,2.298 1009.11126,3.29175 L1003.33041,13.2915 C1002.94507,13.95675 1002.24786,14.3295 1001.53041,14.3295" id="Fill-64" fill="#5A3513" sketch:type="MSShapeGroup" mask="url(#mask-2)"></path>
                <path d="M1007.74908,14.3295 C1007.39597,14.3295 1007.03837,14.23875 1006.71151,14.049 C1005.71817,13.47525 1005.37856,12.204 1005.95282,11.21025 L1011.73292,1.2105 C1012.30643,0.216 1013.57716,-0.1245 1014.57049,0.4515 C1015.56458,1.026 1015.90419,2.298 1015.32918,3.291 L1009.54908,13.29075 C1009.16449,13.95675 1008.46653,14.3295 1007.74908,14.3295" id="Fill-65" fill="#5A3513" sketch:type="MSShapeGroup" mask="url(#mask-2)"></path>
                <path d="M1013.96699,14.3295 C1013.61389,14.3295 1013.25629,14.23875 1012.92867,14.049 C1011.93609,13.47525 1011.59573,12.204 1012.17074,11.2095 L1017.95159,1.20975 C1018.52585,0.216 1019.79432,-0.1245 1020.78991,0.4515 C1021.7825,1.026 1022.12286,2.298 1021.54785,3.29175 L1015.767,13.2915 C1015.38166,13.95675 1014.68445,14.3295 1013.96699,14.3295" id="Fill-66" fill="#5A3513" sketch:type="MSShapeGroup" mask="url(#mask-2)"></path>
                <path d="M1020.18641,14.3295 C1019.83331,14.3295 1019.47571,14.23875 1019.14809,14.049 C1018.1555,13.47525 1017.81515,12.204 1018.39016,11.2095 L1024.17101,1.20975 C1024.74527,0.216 1026.01449,-0.1245 1027.00933,0.4515 C1028.00192,1.026 1028.34227,2.298 1027.76726,3.29175 L1021.98641,13.2915 C1021.60107,13.95675 1020.90386,14.3295 1020.18641,14.3295" id="Fill-67" fill="#5A3513" sketch:type="MSShapeGroup" mask="url(#mask-2)"></path>
                <path d="M1026.40433,14.3295 C1026.05198,14.3295 1025.69437,14.23875 1025.36676,14.049 C1024.37342,13.47525 1024.03381,12.204 1024.60882,11.2095 L1030.38967,1.20975 C1030.96319,0.216 1032.23241,-0.1245 1033.228,0.4515 C1034.22058,1.026 1034.56019,2.298 1033.98593,3.29175 L1028.20508,13.2915 C1027.81974,13.95675 1027.12253,14.3295 1026.40433,14.3295" id="Fill-68" fill="#5A3513" sketch:type="MSShapeGroup" mask="url(#mask-2)"></path>
                <path d="M1032.623,14.3295 C1032.27064,14.3295 1031.91304,14.23875 1031.58543,14.049 C1030.59209,13.47525 1030.25248,12.204 1030.82749,11.2095 L1036.60834,1.20975 C1037.1826,0.216 1038.45108,-0.1245 1039.44666,0.4515 C1040.43925,1.026 1040.77886,2.298 1040.2046,3.29175 L1034.42375,13.2915 C1034.03841,13.95675 1033.34045,14.3295 1032.623,14.3295" id="Fill-69" fill="#5A3513" sketch:type="MSShapeGroup" mask="url(#mask-2)"></path>
                <path d="M1038.84166,14.3295 C1038.48931,14.3295 1038.13171,14.23875 1037.80409,14.049 C1036.81076,13.47525 1036.47115,12.204 1037.04616,11.2095 L1042.82701,1.20975 C1043.40052,0.216 1044.67049,-0.1245 1045.66533,0.4515 C1046.65792,1.026 1046.99753,2.298 1046.42327,3.29175 L1040.64242,13.2915 C1040.25708,13.95675 1039.55912,14.3295 1038.84166,14.3295" id="Fill-70" fill="#5A3513" sketch:type="MSShapeGroup" mask="url(#mask-2)"></path>
                <path d="M1045.06033,14.3295 C1044.70723,14.3295 1044.35038,14.23875 1044.02351,14.049 C1043.02942,13.47525 1042.68982,12.204 1043.26483,11.21025 L1049.04493,1.2105 C1049.61769,0.216 1050.88916,-0.1245 1051.8825,0.4515 C1052.87584,1.026 1053.21544,2.298 1052.64118,3.291 L1046.86108,13.29075 C1046.47649,13.95675 1045.77778,14.3295 1045.06033,14.3295" id="Fill-71" fill="#5A3513" sketch:type="MSShapeGroup" mask="url(#mask-2)"></path>
                <path d="M1051.279,14.3295 C1050.92665,14.3295 1050.56904,14.23875 1050.24068,14.049 C1049.24809,13.47525 1048.90848,12.204 1049.48349,11.2095 L1055.26434,1.20975 C1055.83861,0.216 1057.10708,-0.1245 1058.10267,0.4515 C1059.09525,1.026 1059.43486,2.298 1058.8606,3.29175 L1053.07975,13.2915 C1052.69441,13.95675 1051.99645,14.3295 1051.279,14.3295" id="Fill-72" fill="#5A3513" sketch:type="MSShapeGroup" mask="url(#mask-2)"></path>
                <path d="M1057.49767,14.3295 C1057.14456,14.3295 1056.78771,14.23875 1056.45935,14.049 C1055.46676,13.47525 1055.12715,12.204 1055.70216,11.2095 L1061.48301,1.20975 C1062.05652,0.216 1063.32575,-0.1245 1064.32133,0.4515 C1065.31392,1.026 1065.65353,2.298 1065.07852,3.29175 L1059.29842,13.2915 C1058.91308,13.95675 1058.21512,14.3295 1057.49767,14.3295" id="Fill-73" fill="#5A3513" sketch:type="MSShapeGroup" mask="url(#mask-2)"></path>
                <path d="M1063.71633,14.3295 C1063.36323,14.3295 1063.00638,14.23875 1062.67801,14.049 C1061.68543,13.47525 1061.34582,12.204 1061.92083,11.2095 L1067.70093,1.20975 C1068.27519,0.216 1069.54441,-0.1245 1070.54,0.4515 C1071.53259,1.026 1071.8722,2.298 1071.29719,3.29175 L1065.51634,13.2915 C1065.13175,13.95675 1064.43379,14.3295 1063.71633,14.3295" id="Fill-74" fill="#5A3513" sketch:type="MSShapeGroup" mask="url(#mask-2)"></path>
                <path d="M1069.93575,14.3295 C1069.58265,14.3295 1069.2258,14.23875 1068.89743,14.049 C1067.90484,13.47525 1067.56524,12.204 1068.1395,11.2095 L1073.92035,1.20975 C1074.49461,0.216 1075.76308,-0.1245 1076.75942,0.4515 C1077.752,1.026 1078.09161,2.298 1077.5166,3.29175 L1071.73575,13.2915 C1071.35116,13.95675 1070.6532,14.3295 1069.93575,14.3295" id="Fill-75" fill="#5A3513" sketch:type="MSShapeGroup" mask="url(#mask-2)"></path>
                <path d="M1076.15442,14.3295 C1075.80132,14.3295 1075.44446,14.23875 1075.11685,14.049 C1074.12351,13.47525 1073.7839,12.204 1074.35816,11.21025 L1080.13826,1.2105 C1080.71178,0.216 1081.9825,-0.1245 1082.97584,0.4515 C1083.96992,1.026 1084.30953,2.298 1083.73452,3.291 L1077.95442,13.29075 C1077.57058,13.95675 1076.87187,14.3295 1076.15442,14.3295" id="Fill-76" fill="#5A3513" sketch:type="MSShapeGroup" mask="url(#mask-2)"></path>
                <path d="M1082.37234,14.3295 C1082.01923,14.3295 1081.66238,14.23875 1081.33402,14.049 C1080.34143,13.47525 1080.00182,12.204 1080.57608,11.2095 L1086.35693,1.20975 C1086.93119,0.216 1088.20042,-0.1245 1089.19525,0.4515 C1090.18859,1.026 1090.5282,2.298 1089.95319,3.29175 L1084.17234,13.2915 C1083.78775,13.95675 1083.08979,14.3295 1082.37234,14.3295" id="Fill-77" fill="#5A3513" sketch:type="MSShapeGroup" mask="url(#mask-2)"></path>
                <path d="M1088.59175,14.3295 C1088.23865,14.3295 1087.88105,14.23875 1087.55343,14.049 C1086.56085,13.47525 1086.22124,12.204 1086.7955,11.2095 L1092.57635,1.20975 C1093.15061,0.216 1094.41908,-0.1245 1095.41467,0.4515 C1096.40801,1.026 1096.74762,2.298 1096.17261,3.29175 L1090.39176,13.2915 C1090.00642,13.95675 1089.30921,14.3295 1088.59175,14.3295" id="Fill-78" fill="#5A3513" sketch:type="MSShapeGroup" mask="url(#mask-2)"></path>
                <path d="M1094.81042,14.3295 C1094.45732,14.3295 1094.09972,14.23875 1093.7721,14.049 C1092.77951,13.47525 1092.43916,12.204 1093.01417,11.2095 L1098.79502,1.20975 C1099.36928,0.216 1100.6385,-0.1245 1101.63334,0.4515 C1102.62593,1.026 1102.96628,2.298 1102.39127,3.29175 L1096.61042,13.2915 C1096.22508,13.95675 1095.52787,14.3295 1094.81042,14.3295" id="Fill-79" fill="#5A3513" sketch:type="MSShapeGroup" mask="url(#mask-2)"></path>
                <path d="M1101.02909,14.3295 C1100.67673,14.3295 1100.31913,14.23875 1099.99152,14.049 C1098.99893,13.47525 1098.65857,12.204 1099.23358,11.2095 L1105.01443,1.20975 C1105.58869,0.216 1106.85717,-0.1245 1107.85275,0.4515 C1108.84534,1.026 1109.18495,2.298 1108.61069,3.29175 L1102.82984,13.2915 C1102.4445,13.95675 1101.74729,14.3295 1101.02909,14.3295" id="Fill-80" fill="#5A3513" sketch:type="MSShapeGroup" mask="url(#mask-2)"></path>
                <path d="M1107.24776,14.3295 C1106.8954,14.3295 1106.5378,14.23875 1106.21019,14.049 C1105.21685,13.47525 1104.87724,12.204 1105.45225,11.2095 L1111.2331,1.20975 C1111.80661,0.216 1113.07659,-0.1245 1114.07142,0.4515 C1115.06401,1.026 1115.40362,2.298 1114.82936,3.29175 L1109.04851,13.2915 C1108.66317,13.95675 1107.96521,14.3295 1107.24776,14.3295" id="Fill-81" fill="#5A3513" sketch:type="MSShapeGroup" mask="url(#mask-2)"></path>
                <path d="M1113.46642,14.3295 C1113.11407,14.3295 1112.75647,14.23875 1112.42885,14.049 C1111.43552,13.47525 1111.09591,12.204 1111.67092,11.2095 L1117.45177,1.20975 C1118.02603,0.216 1119.2945,-0.1245 1120.29009,0.4515 C1121.28268,1.026 1121.62229,2.298 1121.04802,3.29175 L1115.26718,13.2915 C1114.88184,13.95675 1114.18388,14.3295 1113.46642,14.3295" id="Fill-82" fill="#5A3513" sketch:type="MSShapeGroup" mask="url(#mask-2)"></path>
                <path d="M1119.68584,14.3295 C1119.33349,14.3295 1118.97589,14.23875 1118.64827,14.049 C1117.65493,13.47525 1117.31533,12.204 1117.89034,11.2095 L1123.67119,1.20975 C1124.2447,0.216 1125.51467,-0.1245 1126.50951,0.4515 C1127.50209,1.026 1127.8417,2.298 1127.26744,3.29175 L1121.48659,13.2915 C1121.10125,13.95675 1120.40329,14.3295 1119.68584,14.3295" id="Fill-83" fill="#5A3513" sketch:type="MSShapeGroup" mask="url(#mask-2)"></path>
                <path d="M1125.90451,14.3295 C1125.5514,14.3295 1125.19455,14.23875 1124.86619,14.049 C1123.8736,13.47525 1123.53399,12.204 1124.109,11.2095 L1129.88985,1.20975 C1130.46411,0.216 1131.73334,-0.1245 1132.72817,0.4515 C1133.72076,1.026 1134.06037,2.298 1133.48536,3.29175 L1127.70526,13.2915 C1127.31992,13.95675 1126.62196,14.3295 1125.90451,14.3295" id="Fill-84" fill="#5A3513" sketch:type="MSShapeGroup" mask="url(#mask-2)"></path>
                <path d="M1132.12393,14.3295 C1131.77082,14.3295 1131.41397,14.23875 1131.08561,14.049 C1130.09302,13.47525 1129.75341,12.204 1130.32842,11.2095 L1136.10927,1.20975 C1136.68278,0.216 1137.952,-0.1245 1138.94759,0.4515 C1139.94018,1.026 1140.27979,2.298 1139.70478,3.29175 L1133.92393,13.2915 C1133.53934,13.95675 1132.84138,14.3295 1132.12393,14.3295" id="Fill-85" fill="#5A3513" sketch:type="MSShapeGroup" mask="url(#mask-2)"></path>
                <path d="M1138.34259,14.3295 C1137.98949,14.3295 1137.63264,14.23875 1137.30427,14.049 C1136.31169,13.47525 1135.97208,12.204 1136.54634,11.2095 L1142.32719,1.20975 C1142.9022,0.216 1144.17067,-0.1245 1145.16626,0.4515 C1146.15885,1.026 1146.49846,2.298 1145.92344,3.29175 L1140.1426,13.2915 C1139.758,13.95675 1139.06004,14.3295 1138.34259,14.3295" id="Fill-86" fill="#5A3513" sketch:type="MSShapeGroup" mask="url(#mask-2)"></path>
                <path d="M1144.56126,14.3295 C1144.20816,14.3295 1143.85131,14.23875 1143.52294,14.049 C1142.53035,13.47525 1142.19074,12.204 1142.76501,11.2095 L1148.54586,1.20975 C1149.12012,0.216 1150.38859,-0.1245 1151.38493,0.4515 C1152.37751,1.026 1152.71712,2.298 1152.14211,3.29175 L1146.36126,13.2915 C1145.97667,13.95675 1145.27871,14.3295 1144.56126,14.3295" id="Fill-87" fill="#5A3513" sketch:type="MSShapeGroup" mask="url(#mask-2)"></path>
                <path d="M1150.78068,14.3295 C1150.42757,14.3295 1150.07072,14.23875 1149.74236,14.049 C1148.74977,13.47525 1148.41016,12.204 1148.98442,11.2095 L1154.76527,1.20975 C1155.33953,0.216 1156.60876,-0.1245 1157.60359,0.4515 C1158.59693,1.026 1158.93654,2.298 1158.36153,3.29175 L1152.58068,13.2915 C1152.19534,13.95675 1151.49813,14.3295 1150.78068,14.3295" id="Fill-88" fill="#5A3513" sketch:type="MSShapeGroup" mask="url(#mask-2)"></path>
            </g>
        </g>
    </g>
</svg>